<svg width="805" height="807" viewBox="0 0 805 807" fill="none" xmlns="http://www.w3.org/2000/svg">
<path d="M566 403.5C566 494.571 492.579 568 402.5 568C312.421 568 239 494.571 239 403.5C239 312.429 312.421 239 402.5 239C492.579 239 566 312.429 566 403.5Z" stroke="url(#paint0_linear_1094_1186)" stroke-width="100"/>
<path d="M755 403.5C755 208.15 597.063 50 402.5 50C207.937 50 50 208.15 50 403.5C50 598.85 207.937 757 402.5 757C597.063 757 755 598.85 755 403.5Z" stroke="url(#paint1_linear_1094_1186)" stroke-width="100"/>
<defs>
<linearGradient id="paint0_linear_1094_1186" x1="402.5" y1="288.168" x2="402.5" y2="560.771" gradientUnits="userSpaceOnUse">
<stop stop-color="#F7F7F7"/>
<stop offset="0.0001" stop-color="#F7F7F7" stop-opacity="0.1"/>
<stop offset="1" stop-color="white"/>
<stop offset="1" stop-color="#F5F5F5"/>
</linearGradient>
<linearGradient id="paint1_linear_1094_1186" x1="356.5" y1="807" x2="402.541" y2="107.657" gradientUnits="userSpaceOnUse">
<stop stop-color="#F7F7F7"/>
<stop offset="1" stop-color="white" stop-opacity="0.4"/>
</linearGradient>
</defs>
</svg>
