<svg width="79" height="43" viewBox="0 0 79 43" fill="none" xmlns="http://www.w3.org/2000/svg">
<path d="M1.92417 31.2325C0.892167 34.704 0.134425 38.4258 0.575908 42.0505C0.639084 42.5781 1.38317 42.6009 1.49436 42.0862C2.15771 39.0496 2.60252 35.9642 3.54976 32.9943C4.48557 30.0598 5.75947 27.2173 7.2891 24.5454C10.3195 19.2413 14.4862 14.5451 19.458 10.9905C29.5413 3.78394 42.4849 2.09869 54.2676 5.69248C57.5353 6.68758 60.6644 8.1363 63.5728 9.92648C64.9637 10.7831 66.2897 11.7566 67.5535 12.7926C68.0901 13.2317 68.6029 13.7055 69.1267 14.1666C68.6385 14.0423 68.1512 13.916 67.6598 13.7929C64.634 13.0304 61.4818 12.0385 58.3551 11.9099C57.7222 11.8831 57.4262 12.657 58.0167 12.9917C60.7739 14.551 64.0391 15.3722 67.0533 16.3224C70.1516 17.2992 73.2565 18.2512 76.3679 19.1783C77.3134 19.4605 78.2124 18.43 78.1206 17.556C77.8617 15.0892 77.6049 12.6234 77.3469 10.1545C77.2231 8.95808 77.0992 7.76161 76.9774 6.56611C76.9186 5.96935 76.8813 5.36481 76.7978 4.77177C76.703 4.09459 76.381 3.55515 76.1369 2.91996C75.6938 1.76476 73.8369 1.83373 73.664 3.14297C73.5882 3.71235 73.393 4.28176 73.4008 4.85721C73.4088 5.44293 73.5651 6.06497 73.6441 6.64577C73.8161 7.91306 73.9851 9.18147 74.152 10.4489L74.8346 15.6603C74.5681 15.589 74.2995 15.5167 74.032 15.4475C74.3464 15.0253 74.466 14.4764 74.2105 13.9198C72.826 10.8985 69.3049 8.83178 66.5526 7.14257C63.7981 5.45239 60.8359 4.08685 57.7809 3.0337C51.5671 0.894056 44.9397 0.0349074 38.3908 0.686455C25.0783 2.00853 13.2182 9.8679 6.32108 21.264C4.42848 24.3913 2.96371 27.734 1.92222 31.2367L1.92417 31.2325Z" fill="#EDEDED"/>
</svg>
