<svg width="156" height="34" viewBox="0 0 156 34" fill="none" xmlns="http://www.w3.org/2000/svg">
<g clip-path="url(#clip0_1029_962)">
<path d="M16.3873 0C11.1376 0 6.20722 2.61255 3.12127 7.02814C3.4405 7.02814 3.75974 7.02814 4.07898 7.06494C5.28498 7.10173 6.45551 7.3961 7.51963 7.94805C8.22905 8.31602 8.86752 8.83117 9.39958 9.45671C10.2154 10.4134 10.8893 11.5173 11.3859 12.658C11.6697 13.2836 11.9535 13.9091 12.2018 14.5346C12.4501 15.1602 12.7338 15.8225 12.9466 16.4481C13.3014 17.368 13.6561 18.3247 14.0108 19.2446C14.2591 19.9069 14.4719 20.5693 14.7202 21.2316C15.0039 22.0043 15.2877 22.7403 15.5715 23.513L16.2099 25.2424C16.2454 25.3896 16.3164 25.5 16.4582 25.5736C16.6001 25.6104 16.7775 25.5368 16.8484 25.3528C16.9903 24.9481 17.2031 24.5433 17.4514 24.2121C17.8061 23.5498 18.1963 22.8874 18.551 22.2251C19.0121 21.3788 19.5087 20.5325 19.9698 19.6861C20.431 18.8398 20.9275 17.9199 21.3887 17.0368C21.9207 16.0433 22.4173 15.0498 22.8784 14.0195C23.1977 13.3203 23.4814 12.6212 23.7297 11.8853C23.8716 11.4437 24.0135 10.9654 24.0844 10.487C24.1908 10.0087 24.1908 9.49351 24.1199 9.01515C24.049 8.64719 23.9071 8.27922 23.6588 7.98485C23.3041 7.54329 22.8075 7.24892 22.3109 7.06494C21.9207 6.91775 21.4951 6.80736 21.0694 6.73377C20.9985 6.73377 20.963 6.69697 20.9275 6.66017C21.034 6.62338 21.1758 6.58658 21.2823 6.62338L22.7011 6.47619C23.2331 6.43939 23.7652 6.4026 24.3327 6.4026C24.7584 6.3658 25.2195 6.4026 25.6451 6.47619C25.858 6.51299 26.0708 6.51299 26.2836 6.54978C27.2059 6.66017 28.0572 6.99134 28.7666 7.58009C29.1567 7.94805 29.476 8.42641 29.5824 8.97835C29.7597 9.78788 29.7597 10.6342 29.6179 11.4437C29.5114 12.1797 27.9862 16.5952 27.7379 17.2208C27.5251 17.6991 27.3123 18.1407 27.0994 18.619C26.7802 19.2446 26.461 19.9069 26.1417 20.5325C25.7516 21.3052 25.3259 22.0779 24.9003 22.8506C24.5456 23.4762 24.2263 24.1017 23.8716 24.6905C23.3396 25.684 22.772 26.6407 22.2045 27.6342C21.7434 28.4437 21.1758 29.1797 20.5374 29.842C19.8989 30.5779 19.0831 31.1299 18.2318 31.4978C17.4869 31.829 16.7065 31.9394 15.9262 31.7922C15.0039 31.645 14.1172 31.2771 13.4078 30.6883C12.9112 30.2468 12.4855 29.6948 12.1308 29.1061C11.7406 28.4069 11.3859 27.7078 11.0667 26.9719C10.7475 26.2727 10.4992 25.5736 10.2154 24.8377C9.93164 24.0649 9.64787 23.2554 9.39958 22.4827C9.18675 21.8571 8.97393 21.1948 8.76111 20.5693C8.58375 20.0909 8.44187 19.6494 8.26452 19.171C8.05169 18.619 7.83887 18.1039 7.62604 17.5887C7.34228 16.8896 7.05851 16.1905 6.73928 15.4913C6.27816 14.4242 5.78157 13.4307 5.21404 12.4372C4.64651 11.4069 3.93709 10.487 3.12127 9.67749C3.01486 9.5671 2.90844 9.49351 2.80203 9.38312C2.66015 9.27273 2.51827 9.16234 2.37638 9.08874C2.26997 9.01515 2.16356 8.94156 2.05715 8.90476C1.98621 9.05195 1.8798 9.23593 1.80885 9.38312C2.02168 9.49351 2.2345 9.64069 2.41186 9.78788C3.33409 10.5974 4.14992 11.5173 4.78839 12.5844C5.28498 13.3571 5.71063 14.2035 6.10081 15.0498C6.38457 15.6753 6.63286 16.3009 6.84569 16.9632C6.88116 17 6.88116 17.0736 6.88116 17.1104C6.77475 17.1104 6.73928 17 6.70381 16.9632C6.1008 16.1537 5.42686 15.4177 4.71745 14.6818C3.6888 13.5779 2.4828 12.658 1.20585 11.9221L0.851146 11.7013C-2.02198 20.5325 2.62468 30.1732 11.2086 33.1169C19.7925 36.0606 29.0858 31.2771 31.9235 22.3723C34.7611 13.4675 30.1499 3.82684 21.566 0.883117C19.8989 0.294372 18.1608 0 16.3873 0ZM22.0626 7.28571C22.843 7.54329 23.4814 8.16883 23.7297 8.97835C23.8361 9.38312 23.8716 9.82468 23.8007 10.2294C23.6588 11.0022 23.446 11.7749 23.1622 12.474C23.0558 12.6948 22.9494 12.9156 22.8784 13.1732C22.843 13.21 22.843 13.2835 22.772 13.2835C22.7011 13.2835 22.7366 13.21 22.7366 13.1732C22.6656 12.4372 22.4883 11.7013 22.169 11.0022C21.9207 10.3766 21.3887 9.89827 20.7857 9.67749C20.5019 9.6039 20.2536 9.5671 19.9698 9.5671C19.1185 9.64069 18.3027 9.93506 17.5933 10.4502C16.6001 11.1126 15.7134 11.9221 14.933 12.8788C14.8975 12.9156 14.8621 12.9892 14.7556 12.9892C15.0394 12.5476 15.2877 12.1061 15.536 11.6645C16.1745 10.5606 16.9194 9.5671 17.8061 8.64719C18.3027 8.09524 18.9057 7.65368 19.5797 7.28571C19.8989 7.13853 20.2536 7.02814 20.6083 7.02814C21.0694 7.06494 21.566 7.13853 22.0626 7.28571Z" fill="white"/>
<path d="M155.61 12.7317C155.823 12.7317 156 12.9157 156 13.1365C156 14.9395 156 21.9308 155.964 25.0217C155.964 26.4936 155.61 27.8183 154.546 28.8854C153.978 29.4373 153.304 29.8053 152.559 30.0261C151.46 30.3572 150.289 30.4676 149.119 30.3205C147.593 30.0997 146.529 29.1798 145.713 27.9287L142.308 22.5932C141.457 21.2685 140.606 19.9438 139.754 18.6192C139.471 18.1408 139.01 17.8464 138.477 17.8096C138.194 17.7728 137.91 17.9568 137.839 18.288C137.839 18.3248 137.839 18.3616 137.839 18.3984C137.839 18.5456 137.839 18.6927 137.839 18.8399C137.839 22.5196 137.839 26.1992 137.839 29.8789V30.2837C137.662 30.2837 137.555 30.2837 137.449 30.2837C136.101 30.2837 134.753 30.2837 133.37 30.2837C133.086 30.2837 132.979 30.2101 132.979 29.9157C132.979 25.9785 132.979 22.0412 133.015 18.104C133.015 17.4049 133.121 16.7425 133.334 16.0802C133.902 14.1668 135.285 13.2469 137.094 12.8789C138.087 12.6581 139.08 12.6213 140.074 12.8053C141.386 13.0997 142.557 13.946 143.231 15.1235C145.217 18.2144 147.168 21.2685 149.154 24.3226C149.402 24.6538 149.722 24.9482 150.076 25.1321C150.679 25.4265 151.14 25.0953 151.14 24.433V14.8659C151.14 14.2404 151.14 13.6148 151.14 12.9893C151.14 12.8789 151.282 12.6949 151.318 12.6949C152.24 12.7317 154.404 12.7317 155.61 12.7317Z" fill="white"/>
<path d="M120.494 12.7686C121.949 12.7686 123.403 12.7686 124.857 12.7686C125.992 12.7686 127.127 12.9893 128.191 13.4677C130.071 14.2772 131.065 15.7859 131.313 17.8465C131.384 18.3616 131.384 18.8768 131.384 19.3919C131.384 21.3422 131.384 23.3292 131.384 25.2794C131.384 27.4872 130.391 28.959 128.369 29.695C127.127 30.1365 125.85 30.3205 124.538 30.3205C121.878 30.3573 119.182 30.3573 116.522 30.3205C115.174 30.3573 113.861 30.0997 112.62 29.5478C110.917 28.8486 109.782 27.156 109.676 25.2794C109.534 23.3292 109.605 21.379 109.569 19.4287C109.569 18.9504 109.569 18.472 109.64 17.9937C109.995 15.2707 111.378 13.6517 113.968 13.0997C114.89 12.9157 115.812 12.8054 116.734 12.7686C118.011 12.695 119.217 12.7318 120.494 12.7686ZM120.494 16.5218C119.146 16.5218 117.799 16.485 116.415 16.5218C115.457 16.485 114.642 17.1841 114.5 18.1409C114.429 18.3984 114.429 18.656 114.429 18.9504C114.429 20.643 114.429 22.3725 114.429 24.0651C114.429 25.6474 115.209 26.5305 116.734 26.5673C119.253 26.6041 121.736 26.6041 124.254 26.5673C125.779 26.5305 126.56 25.6841 126.56 24.1019C126.56 22.3725 126.56 20.6798 126.56 18.9504C126.56 17.3681 125.744 16.5218 124.183 16.5218H120.494Z" fill="white"/>
<path d="M107.653 12.7685V16.5217H95.5933C95.345 16.5217 95.0967 16.5217 94.8484 16.5585C93.7488 16.7793 93.1458 17.5152 93.1103 18.8031C93.0748 20.6061 93.0748 22.4092 93.1103 24.2122C93.1458 25.7577 93.9971 26.5304 95.5223 26.5672C96.7283 26.5672 97.8988 26.5672 99.1048 26.5672H107.653C107.653 26.6776 107.689 26.788 107.689 26.8984C107.689 27.9287 107.689 28.9222 107.689 29.9525C107.689 30.21 107.653 30.3204 107.37 30.3204C103.29 30.3204 99.2113 30.3204 95.1321 30.3204C93.8197 30.3572 92.5428 30.0629 91.3368 29.5477C89.6342 28.8118 88.4636 27.1191 88.3927 25.2057C88.2508 23.4027 88.2863 21.5629 88.3218 19.7598C88.2863 18.9135 88.3572 18.0304 88.4991 17.1841C88.9248 14.9763 90.3436 13.6884 92.3654 13.1365C93.3586 12.8421 94.3872 12.7317 95.4159 12.7317H107.263C107.37 12.7317 107.511 12.7685 107.653 12.7685Z" fill="white"/>
<path d="M65.4082 30.2835C65.4437 30.1731 65.5146 30.0628 65.5501 29.9524C67.9266 25.0216 70.3032 20.0909 72.6797 15.1602C73.2827 13.9459 74.134 12.9892 75.5173 12.8052C76.5105 12.6948 77.5037 12.7316 78.4614 12.842C79.4546 12.9892 80.1995 13.6883 80.7315 14.5714C80.9444 14.9026 81.1217 15.2338 81.2636 15.6017C83.5692 20.3485 85.8748 25.132 88.1449 29.8788C88.2158 29.9892 88.2513 30.1363 88.3223 30.2835C88.1804 30.2835 88.074 30.3203 87.9676 30.3203C86.4068 30.3203 84.8107 30.3203 83.25 30.3203C83.0371 30.3571 82.8243 30.2099 82.7534 30.026C82.2568 28.9589 81.7247 27.9286 81.2281 26.8615C81.1572 26.6407 80.9444 26.5303 80.7315 26.5303C78.1422 26.5303 75.5173 26.5303 72.928 26.5303C72.7152 26.4935 72.5378 26.6407 72.4669 26.8247C71.9703 27.8918 71.4382 28.9589 70.9416 29.9892C70.8707 30.1363 70.7288 30.2467 70.5869 30.2467C68.8843 30.2467 67.2172 30.2467 65.5146 30.2467C65.4791 30.2835 65.4437 30.2835 65.4082 30.2835ZM74.4532 22.777H79.2772L76.8652 17.7727L74.4532 22.777Z" fill="white"/>
<path d="M58.5264 12.7685C58.6328 12.7685 58.7392 12.7317 58.8101 12.7317C60.1935 12.7317 61.5768 12.7317 62.9957 12.7317C63.2794 12.7317 63.3504 12.8053 63.3504 13.0997C63.3504 18.7295 63.3504 24.3226 63.3504 29.9525C63.3504 30.0629 63.3504 30.1732 63.3149 30.2836H58.5264V12.7685Z" fill="white"/>
<path d="M33.8037 12.7317H34.5841C36.0029 12.7317 37.4217 12.7317 38.8405 12.7317C39.0888 12.6949 39.3371 12.8421 39.4435 13.0996C41.3235 17.0001 43.2034 20.9005 45.0834 24.8377L45.3317 25.2793C45.4026 25.0953 45.4736 24.9849 45.5445 24.8745C47.4244 20.9373 49.3399 17.0369 51.2198 13.0996C51.3262 12.8421 51.539 12.6949 51.7873 12.7317C53.3126 12.7317 54.8378 12.7317 56.3631 12.7317H56.7887C56.7178 12.8789 56.6823 13.026 56.6114 13.1364C54.2703 18.0304 51.9292 22.9243 49.5527 27.8182C48.9852 29.0325 48.1339 30.026 46.786 30.21C45.7928 30.3572 44.7996 30.3572 43.8419 30.21C42.6004 30.0628 41.7846 29.1797 41.2171 28.0758C40.5077 26.6776 39.8692 25.2793 39.1953 23.881C37.4572 20.275 35.7191 16.7057 34.0165 13.1732C33.9811 13.0628 33.9101 12.9157 33.8037 12.7317Z" fill="white"/>
<path d="M38.4505 10.0456H37.812L37.3154 8.57373H35.2581L34.7615 10.0456H34.123L35.9675 4.78369H36.5351L38.4505 10.0456ZM37.1381 7.98499L36.3932 5.7772C36.3577 5.7036 36.3577 5.59322 36.3222 5.40923C36.2868 5.55642 36.2868 5.66681 36.2513 5.7772L35.5064 7.98499H37.1381Z" fill="white" stroke="white" stroke-width="0.75" stroke-miterlimit="10"/>
<path d="M43.0265 10.0456H42.317L39.8696 5.85079C39.7986 5.7404 39.7632 5.63001 39.7277 5.51962H39.6922C39.7277 5.63001 39.7277 5.88759 39.7277 6.25555V10.0456H39.1602V4.78369H39.905L42.2816 8.9049C42.388 9.08889 42.4589 9.19928 42.4589 9.27287C42.4235 9.12568 42.4235 8.86811 42.4235 8.50014V4.78369H42.991L43.0265 10.0456Z" fill="white" stroke="white" stroke-width="0.75" stroke-miterlimit="10"/>
<path d="M46.715 10.0456H46.1475V4.78369H46.715V10.0456Z" fill="white" stroke="white" stroke-width="0.75" stroke-miterlimit="10"/>
<path d="M47.7435 9.82472V9.08879C47.8144 9.16238 47.9208 9.23597 48.0272 9.27277C48.1337 9.34636 48.2401 9.38316 48.3465 9.41996C48.4529 9.45675 48.5948 9.49355 48.7012 9.53035C48.8076 9.56714 48.914 9.56714 49.0204 9.56714C49.3751 9.56714 49.6234 9.49355 49.8008 9.34636C49.9781 9.19918 50.0491 9.01519 50.0491 8.72082C50.0491 8.57364 50.0136 8.46325 49.9781 8.35286C49.9072 8.24247 49.8362 8.16887 49.7298 8.05848C49.6234 7.94809 49.517 7.8745 49.3751 7.80091C49.2332 7.72732 49.0914 7.65372 48.914 7.54333C48.7367 7.43294 48.5948 7.35935 48.4529 7.24896C48.311 7.13857 48.1691 7.06498 48.0627 6.91779C47.9563 6.8074 47.8854 6.66022 47.8144 6.51303C47.7435 6.36584 47.708 6.18186 47.708 5.99788C47.708 5.7403 47.7435 5.55632 47.8499 5.37234C47.9563 5.18835 48.0627 5.04117 48.2401 4.93078C48.382 4.82039 48.5593 4.7468 48.7721 4.6732C48.985 4.59961 49.1623 4.59961 49.3751 4.59961C49.8362 4.59961 50.191 4.6732 50.4038 4.78359V5.51952C50.12 5.29874 49.7653 5.18835 49.3042 5.18835C49.1978 5.18835 49.0559 5.18835 48.9495 5.22515C48.8431 5.26195 48.7012 5.29874 48.6302 5.37234C48.5593 5.44593 48.4529 5.51952 48.3819 5.62991C48.311 5.7403 48.2755 5.85069 48.2755 5.99788C48.2755 6.14506 48.311 6.25545 48.3465 6.36584C48.382 6.47623 48.4529 6.54983 48.5593 6.62342C48.6657 6.69701 48.7721 6.77061 48.8785 6.8442C49.0204 6.91779 49.1623 6.99138 49.3397 7.10177C49.517 7.21216 49.6589 7.28576 49.8362 7.39615C49.9781 7.50654 50.12 7.61693 50.2264 7.72732C50.3328 7.8377 50.4392 7.98489 50.5102 8.13208C50.5811 8.27926 50.6166 8.46325 50.6166 8.64723C50.6166 8.9048 50.5811 9.12558 50.4747 9.30957C50.3683 9.49355 50.2619 9.64073 50.0845 9.75112C49.9427 9.86151 49.7298 9.93511 49.5525 10.0087C49.3397 10.0455 49.1268 10.0823 48.914 10.0823C48.8431 10.0823 48.7367 10.0823 48.6302 10.0455C48.5238 10.0455 48.4174 10.0087 48.2755 9.9719C48.1691 9.93511 48.0627 9.89831 47.9563 9.86151C47.8854 9.89831 47.8144 9.86151 47.7435 9.82472Z" fill="white" stroke="white" stroke-width="0.75" stroke-miterlimit="10"/>
<path d="M53.4905 10.0824C52.8166 10.0824 52.249 9.82479 51.8589 9.34643C51.4332 8.86808 51.2559 8.20574 51.2559 7.43301C51.2559 6.58669 51.4687 5.88756 51.8943 5.4092C52.32 4.89405 52.8875 4.63647 53.5969 4.63647C54.2709 4.63647 54.8029 4.89405 55.1931 5.37241C55.5833 5.85076 55.7961 6.5131 55.7961 7.28582C55.7961 8.13214 55.5833 8.83128 55.1576 9.34643C54.7675 9.86158 54.1999 10.0824 53.4905 10.0824ZM53.526 5.26202C53.0294 5.26202 52.6037 5.446 52.2845 5.85076C51.9653 6.25552 51.8234 6.77067 51.8234 7.43301C51.8234 8.09535 51.9653 8.6105 52.2845 9.01526C52.6037 9.42002 52.9939 9.60401 53.4905 9.60401C54.0226 9.60401 54.4482 9.42002 54.732 9.05206C55.0512 8.68409 55.1931 8.13214 55.1931 7.46981C55.1931 6.77067 55.0512 6.21873 54.732 5.85076C54.4482 5.446 54.058 5.26202 53.526 5.26202Z" fill="white" stroke="white" stroke-width="0.75" stroke-miterlimit="10"/>
<path d="M58.5266 9.93518V9.34643C58.8104 9.53041 59.0941 9.60401 59.3779 9.60401C59.8036 9.60401 60.1583 9.42002 60.4066 9.01526C60.6549 8.6105 60.7613 8.09535 60.7613 7.35942C60.5484 7.80098 60.1937 8.05855 59.6971 8.05855C59.2715 8.05855 58.9523 7.91137 58.6685 7.5802C58.4202 7.28583 58.2783 6.88106 58.2783 6.40271C58.2783 5.88756 58.4202 5.446 58.704 5.11483C58.9877 4.78366 59.3779 4.63647 59.8036 4.63647C60.2647 4.63647 60.6549 4.85725 60.9031 5.26202C61.1514 5.66678 61.2933 6.25552 61.2933 7.06505C61.2933 8.05855 61.116 8.79448 60.7613 9.27284C60.4066 9.78799 59.9454 10.0824 59.307 10.0824C59.0587 10.0824 58.7749 10.0456 58.5266 9.93518ZM59.7681 5.18842C59.4843 5.18842 59.2715 5.29881 59.0941 5.51959C58.9168 5.74037 58.8104 6.03474 58.8104 6.36591C58.8104 6.73388 58.8813 7.02825 59.0587 7.24903C59.236 7.46981 59.4843 7.5802 59.7681 7.5802C60.0164 7.5802 60.2647 7.46981 60.442 7.28582C60.6194 7.10184 60.7258 6.84427 60.7258 6.58669C60.7258 6.18193 60.6194 5.85076 60.442 5.59318C60.2647 5.33561 60.0519 5.18842 59.7681 5.18842Z" fill="white" stroke="white" stroke-width="0.75" stroke-miterlimit="10"/>
<path d="M63.4569 10.0823C62.9958 10.0823 62.6056 9.86151 62.3218 9.41996C62.038 8.9784 61.9316 8.31606 61.9316 7.46974C61.9316 6.54983 62.0735 5.8139 62.3573 5.33554C62.6411 4.85719 63.0312 4.59961 63.5633 4.59961C64.5565 4.59961 65.0885 5.51952 65.0885 7.28576C65.0885 8.16887 64.9466 8.86801 64.6629 9.34636C64.3791 9.82472 63.9535 10.0823 63.4569 10.0823ZM63.5278 5.18835C62.8539 5.18835 62.4992 5.96108 62.4992 7.43294C62.4992 8.86801 62.8539 9.56714 63.5278 9.56714C64.2018 9.56714 64.521 8.83121 64.521 7.39615C64.4855 5.92428 64.1663 5.18835 63.5278 5.18835Z" fill="white" stroke="white" stroke-width="0.75" stroke-miterlimit="10"/>
<path d="M67.1112 10.0823C66.6501 10.0823 66.2599 9.86151 65.9761 9.41996C65.6924 8.9784 65.5859 8.31606 65.5859 7.46974C65.5859 6.54983 65.7278 5.8139 66.0116 5.33554C66.2954 4.85719 66.6855 4.59961 67.2176 4.59961C68.2108 4.59961 68.7428 5.51952 68.7428 7.28576C68.7428 8.16887 68.6009 8.86801 68.3172 9.34636C68.0334 9.89831 67.6432 10.0823 67.1112 10.0823ZM67.1821 5.18835C66.5082 5.18835 66.1535 5.96108 66.1535 7.43294C66.1535 8.86801 66.5082 9.56714 67.1821 9.56714C67.8561 9.56714 68.1753 8.83121 68.1753 7.39615C68.1753 5.92428 67.8561 5.18835 67.1821 5.18835Z" fill="white" stroke="white" stroke-width="0.75" stroke-miterlimit="10"/>
<path d="M71.4025 10.0455H70.8349V5.48273C70.7995 5.51952 70.7285 5.59312 70.6576 5.62991C70.5866 5.70351 70.4802 5.7403 70.3738 5.8139C70.2674 5.88749 70.161 5.92428 70.0546 5.99788C69.9482 6.03467 69.8418 6.10827 69.7354 6.10827V5.48273C69.8418 5.44593 69.9836 5.40913 70.1255 5.33554C70.2674 5.26195 70.4093 5.18835 70.5157 5.11476C70.6576 5.04117 70.764 4.96757 70.8704 4.85719C70.9768 4.78359 71.0832 4.6732 71.1896 4.59961H71.4025V10.0455Z" fill="white" stroke="white" stroke-width="0.75" stroke-miterlimit="10"/>
<path d="M73.4602 6.99141C73.3538 6.99141 73.2828 6.95461 73.2119 6.88102C73.1409 6.80743 73.1055 6.69704 73.1055 6.58665C73.1055 6.47626 73.1409 6.36587 73.2119 6.29227C73.2828 6.21868 73.3892 6.18188 73.4602 6.18188C73.5666 6.18188 73.6375 6.21868 73.7439 6.29227C73.8503 6.36587 73.8503 6.47626 73.8503 6.58665C73.8503 6.69704 73.8149 6.80743 73.7439 6.88102C73.6375 6.95461 73.5666 6.99141 73.4602 6.99141ZM73.4602 10.0823C73.3538 10.0823 73.2828 10.0455 73.2119 9.97193C73.1409 9.89834 73.1055 9.78795 73.1055 9.67756C73.1055 9.56717 73.1409 9.45678 73.2119 9.38318C73.2828 9.30959 73.3892 9.27279 73.4602 9.27279C73.5666 9.27279 73.6375 9.30959 73.7439 9.38318C73.8503 9.45678 73.8503 9.56717 73.8503 9.67756C73.8503 9.78795 73.8149 9.89834 73.7439 9.97193C73.673 10.0455 73.5666 10.0823 73.4602 10.0823Z" fill="white" stroke="white" stroke-width="0.75" stroke-miterlimit="10"/>
<path d="M76.7588 6.14513C76.7588 5.99795 76.7233 5.85076 76.6878 5.70357C76.6523 5.59318 76.5814 5.48279 76.5105 5.4092C76.4395 5.33561 76.3331 5.26202 76.2267 5.22522C76.1203 5.18842 76.0139 5.15163 75.872 5.15163C75.7656 5.15163 75.6592 5.15163 75.5528 5.18842C75.4463 5.22522 75.3399 5.26202 75.269 5.33561C75.198 5.4092 75.0916 5.446 74.9852 5.55639C74.8788 5.66678 74.8079 5.74037 74.7369 5.81396V5.15163C74.8788 5.00444 75.0562 4.85725 75.269 4.78366C75.4818 4.71007 75.6946 4.63647 75.9784 4.63647C76.1912 4.63647 76.3686 4.67327 76.5105 4.74686C76.6523 4.82046 76.8297 4.89405 76.9361 5.00444C77.0425 5.11483 77.1489 5.26202 77.2199 5.446C77.2908 5.62998 77.3263 5.81396 77.3263 6.07154C77.3263 6.29232 77.2908 6.4763 77.2553 6.62349C77.2199 6.80747 77.1489 6.95466 77.0425 7.10184C76.9716 7.24903 76.8297 7.39621 76.7233 7.5434C76.6169 7.69059 76.4395 7.83777 76.2622 7.94816C76.0493 8.13215 75.8365 8.27933 75.6946 8.38972C75.5527 8.50011 75.4463 8.6473 75.3399 8.75769C75.2335 8.86808 75.198 8.97847 75.1626 9.08886C75.1271 9.19925 75.1271 9.30964 75.1271 9.45682H77.5036V10.0088H74.5596V9.75119C74.5596 9.53041 74.595 9.30963 74.6305 9.16245C74.666 9.01526 74.7369 8.83128 74.8433 8.68409C74.9497 8.53691 75.0916 8.38972 75.2335 8.20574C75.3754 8.02176 75.5882 7.87457 75.8365 7.69059C76.0139 7.5434 76.1558 7.43301 76.2622 7.28583C76.3686 7.17544 76.475 7.02825 76.5459 6.91786C76.6169 6.80747 76.6523 6.66028 76.6878 6.54989C76.7233 6.40271 76.7588 6.29232 76.7588 6.14513Z" fill="white" stroke="white" stroke-width="0.75" stroke-miterlimit="10"/>
<path d="M79.6317 10.0823C79.1706 10.0823 78.7804 9.86151 78.4966 9.41996C78.2129 8.9784 78.1064 8.31606 78.1064 7.46974C78.1064 6.54983 78.2483 5.8139 78.5321 5.33554C78.8159 4.85719 79.206 4.59961 79.7381 4.59961C80.7313 4.59961 81.2633 5.51952 81.2633 7.28576C81.2633 8.16887 81.1215 8.86801 80.8377 9.34636C80.5539 9.89831 80.1637 10.0823 79.6317 10.0823ZM79.7026 5.18835C79.0287 5.18835 78.674 5.96108 78.674 7.43294C78.674 8.86801 79.0287 9.56714 79.7026 9.56714C80.3766 9.56714 80.6958 8.83121 80.6958 7.39615C80.6958 5.92428 80.3766 5.18835 79.7026 5.18835Z" fill="white" stroke="white" stroke-width="0.75" stroke-miterlimit="10"/>
<path d="M83.924 10.0455H83.3564V5.48273C83.321 5.51952 83.25 5.59312 83.1791 5.62991C83.1081 5.70351 83.0017 5.7403 82.8953 5.8139C82.7889 5.88749 82.6825 5.92428 82.5761 5.99788C82.4697 6.03467 82.3632 6.10827 82.2568 6.10827V5.48273C82.3632 5.44593 82.5051 5.40913 82.647 5.33554C82.7889 5.26195 82.9308 5.18835 83.0372 5.11476C83.1791 5.04117 83.2855 4.96757 83.3919 4.85719C83.4983 4.78359 83.6047 4.6732 83.7111 4.59961H83.924V10.0455Z" fill="white" stroke="white" stroke-width="0.75" stroke-miterlimit="10"/>
<path d="M85.7686 9.89841V9.27287C86.0878 9.49365 86.4425 9.64083 86.7617 9.64083C87.081 9.64083 87.3647 9.53044 87.5776 9.30966C87.7904 9.08889 87.8968 8.83131 87.8968 8.46334C87.8968 8.13218 87.7904 7.8378 87.5776 7.65382C87.3647 7.46984 87.0455 7.35945 86.6553 7.35945C86.5134 7.35945 86.2651 7.35945 85.9104 7.39625V4.78369H88.216V5.33564H86.407V6.88109C86.5489 6.88109 86.6908 6.88109 86.8327 6.88109C87.3647 6.88109 87.7549 7.02828 88.0387 7.32265C88.3224 7.61702 88.4643 7.98499 88.4643 8.50014C88.4643 9.01529 88.3224 9.42005 88.0032 9.75122C87.684 10.0456 87.2938 10.2296 86.7617 10.2296C86.2651 10.0824 85.9814 10.0456 85.7686 9.89841Z" fill="white" stroke="white" stroke-width="0.75" stroke-miterlimit="10"/>
<path d="M94.6001 9.82479C94.2454 10.0456 93.7843 10.1192 93.2522 10.1192C92.5783 10.1192 92.0108 9.86158 91.6206 9.38323C91.2304 8.90487 91.0176 8.27933 91.0176 7.46981C91.0176 6.62349 91.2659 5.92435 91.727 5.4092C92.1881 4.89405 92.7911 4.63647 93.5005 4.63647C93.9616 4.63647 94.3518 4.71007 94.6356 4.85725V5.51959C94.2809 5.29881 93.9262 5.18842 93.5005 5.18842C92.933 5.18842 92.5073 5.4092 92.1526 5.81396C91.7979 6.21873 91.6206 6.77067 91.6206 7.43301C91.6206 8.09535 91.7979 8.5737 92.1172 8.97847C92.4364 9.34643 92.862 9.56721 93.3941 9.56721C93.8907 9.56721 94.2809 9.45682 94.6356 9.19925L94.6001 9.82479Z" fill="white" stroke="white" stroke-width="0.75" stroke-miterlimit="10"/>
<path d="M98.1473 10.0456H95.6289V4.78369H98.0409V5.33564H96.161V7.10187H97.899V7.65382H96.161V9.49365H98.1473V10.0456Z" fill="white" stroke="white" stroke-width="0.75" stroke-miterlimit="10"/>
<path d="M102.51 10.0456H101.836L101.021 8.57373C100.95 8.42655 100.879 8.31616 100.808 8.20577C100.737 8.09538 100.666 8.02179 100.595 7.98499C100.524 7.94819 100.453 7.8746 100.347 7.8378C100.276 7.80101 100.169 7.80101 100.063 7.80101H99.6017V10.0088H99.0342V4.78369H100.488C100.701 4.78369 100.879 4.82049 101.056 4.85728C101.233 4.93088 101.375 5.00447 101.517 5.11486C101.659 5.22525 101.765 5.37244 101.836 5.55642C101.907 5.7404 101.943 5.92438 101.943 6.18196C101.943 6.36594 101.907 6.54993 101.872 6.69711C101.836 6.8443 101.765 6.99148 101.659 7.10187C101.553 7.21226 101.446 7.32265 101.34 7.39625C101.198 7.46984 101.056 7.54343 100.914 7.58023C100.985 7.61702 101.056 7.65382 101.127 7.72741C101.198 7.76421 101.233 7.8378 101.304 7.9114C101.375 7.98499 101.411 8.05858 101.482 8.13218C101.553 8.20577 101.588 8.31616 101.659 8.42655L102.51 10.0456ZM99.6017 5.33564V7.24906H100.382C100.524 7.24906 100.666 7.21226 100.772 7.17547C100.879 7.13867 100.985 7.06508 101.091 6.99148C101.198 6.91789 101.233 6.8075 101.304 6.66031C101.375 6.51313 101.375 6.40274 101.375 6.21876C101.375 5.92438 101.304 5.7036 101.127 5.55642C100.95 5.40923 100.701 5.33564 100.418 5.33564C100.418 5.33564 99.6017 5.33564 99.6017 5.33564Z" fill="white" stroke="white" stroke-width="0.75" stroke-miterlimit="10"/>
<path d="M105.987 5.33564H104.604V10.0456H104.036V5.33564H102.617V4.78369H105.916L105.987 5.33564Z" fill="white" stroke="white" stroke-width="0.75" stroke-miterlimit="10"/>
<path d="M107.264 10.0456H106.696V4.78369H107.264V10.0456Z" fill="white" stroke="white" stroke-width="0.75" stroke-miterlimit="10"/>
<path d="M110.988 5.33564H109.108V7.17547H110.846V7.72741H109.108V10.0456H108.54V4.78369H110.952V5.33564H110.988Z" fill="white" stroke="white" stroke-width="0.75" stroke-miterlimit="10"/>
<path d="M112.406 10.0456H111.839V4.78369H112.406V10.0456Z" fill="white" stroke="white" stroke-width="0.75" stroke-miterlimit="10"/>
<path d="M116.202 10.0456H113.684V4.78369H116.096V5.33564H114.216V7.10187H115.954V7.65382H114.216V9.49365H116.202V10.0456Z" fill="white" stroke="white" stroke-width="0.75" stroke-miterlimit="10"/>
<path d="M117.124 10.0456V4.78369H118.472C120.174 4.78369 120.99 5.63001 120.99 7.32265C120.99 8.13218 120.742 8.79451 120.281 9.27287C119.82 9.75122 119.181 10.0088 118.401 10.0088L117.124 10.0456ZM117.692 5.33564V9.45685H118.401C119.039 9.45685 119.536 9.27287 119.891 8.9049C120.245 8.53694 120.423 8.02179 120.423 7.32265C120.423 5.96118 119.749 5.29884 118.436 5.29884C118.436 5.33564 117.692 5.33564 117.692 5.33564Z" fill="white" stroke="white" stroke-width="0.75" stroke-miterlimit="10"/>
<path d="M127.056 9.82479C126.701 10.0456 126.24 10.1192 125.708 10.1192C125.034 10.1192 124.467 9.86158 124.077 9.38323C123.686 8.90487 123.474 8.27933 123.474 7.46981C123.474 6.62349 123.722 5.92435 124.183 5.4092C124.644 4.89405 125.247 4.63647 125.957 4.63647C126.418 4.63647 126.808 4.71007 127.092 4.85725V5.51959C126.737 5.29881 126.382 5.18842 125.957 5.18842C125.389 5.18842 124.963 5.4092 124.609 5.81396C124.254 6.21873 124.077 6.77067 124.077 7.43301C124.077 8.09535 124.254 8.5737 124.573 8.97847C124.892 9.34643 125.318 9.56721 125.85 9.56721C126.347 9.56721 126.737 9.45682 127.092 9.19925L127.056 9.82479Z" fill="white" stroke="white" stroke-width="0.75" stroke-miterlimit="10"/>
<path d="M129.929 10.0824C129.255 10.0824 128.688 9.82479 128.297 9.34643C127.872 8.86808 127.694 8.20574 127.694 7.43301C127.694 6.58669 127.907 5.88756 128.333 5.4092C128.758 4.89405 129.326 4.63647 130.035 4.63647C130.709 4.63647 131.241 4.89405 131.632 5.37241C132.022 5.85076 132.235 6.5131 132.235 7.28582C132.235 8.13214 132.022 8.83128 131.596 9.34643C131.206 9.86158 130.638 10.0824 129.929 10.0824ZM129.964 5.26202C129.468 5.26202 129.042 5.446 128.723 5.85076C128.404 6.25552 128.262 6.77067 128.262 7.43301C128.262 8.09535 128.404 8.6105 128.723 9.01526C129.042 9.42002 129.432 9.60401 129.929 9.60401C130.461 9.60401 130.887 9.42002 131.17 9.05206C131.49 8.68409 131.632 8.13214 131.632 7.46981C131.632 6.77067 131.49 6.21873 131.17 5.85076C130.922 5.446 130.497 5.26202 129.964 5.26202Z" fill="white" stroke="white" stroke-width="0.75" stroke-miterlimit="10"/>
<path d="M138.017 10.0455H137.449V6.54986C137.449 6.25548 137.449 5.92432 137.485 5.51955C137.414 5.74033 137.378 5.92432 137.343 6.0347L135.711 10.0455H135.427L133.796 6.0347C133.76 5.92432 133.689 5.74033 133.654 5.48276C133.689 5.70354 133.689 6.03471 133.689 6.51306V10.0087H133.157V4.78362H133.902L135.392 8.42648C135.498 8.72085 135.569 8.90483 135.605 9.05202H135.64C135.747 8.75765 135.818 8.53687 135.888 8.38968L137.414 4.74683H138.123V10.0455H138.017V10.0455Z" fill="white" stroke="white" stroke-width="0.75" stroke-miterlimit="10"/>
<path d="M139.861 8.02179V10.0088H139.294V4.78369H140.606C141.138 4.78369 141.529 4.93088 141.812 5.18845C142.096 5.44603 142.238 5.85079 142.238 6.36594C142.238 6.88109 142.096 7.28586 141.777 7.58023C141.458 7.9114 141.032 8.05858 140.5 8.05858H139.861V8.02179ZM139.861 5.33564V7.50664H140.464C140.855 7.50664 141.138 7.39625 141.351 7.21226C141.564 7.02828 141.67 6.73391 141.67 6.36594C141.67 5.66681 141.28 5.33564 140.535 5.33564C140.5 5.33564 139.861 5.33564 139.861 5.33564Z" fill="white" stroke="white" stroke-width="0.75" stroke-miterlimit="10"/>
<path d="M146.813 10.0456H146.175L145.678 8.57373H143.657L143.16 10.0456H142.521L144.366 4.78369H144.933L146.813 10.0456ZM145.501 7.98499L144.756 5.7772C144.721 5.7036 144.721 5.59322 144.685 5.40923C144.65 5.55642 144.65 5.66681 144.614 5.7772L143.869 7.98499H145.501Z" fill="white" stroke="white" stroke-width="0.75" stroke-miterlimit="10"/>
<path d="M151.354 10.0456H150.644L148.197 5.85079C148.126 5.7404 148.09 5.63001 148.055 5.51962H148.019C148.055 5.63001 148.055 5.88759 148.055 6.25555V10.0456H147.487V4.78369H148.232L150.609 8.9049C150.715 9.08889 150.786 9.19928 150.786 9.27287C150.822 9.08889 150.822 8.83131 150.822 8.46334V4.78369H151.389L151.354 10.0456Z" fill="white" stroke="white" stroke-width="0.75" stroke-miterlimit="10"/>
<path d="M155.717 4.78369L154.12 8.09538V10.0456H153.553V8.09538L151.992 4.78369H152.631L153.695 7.13867C153.695 7.17547 153.73 7.28586 153.801 7.46984C153.837 7.39625 153.872 7.28586 153.943 7.13867L155.078 4.78369H155.717V4.78369Z" fill="white" stroke="white" stroke-width="0.75" stroke-miterlimit="10"/>
</g>
<defs>
<clipPath id="clip0_1029_962">
<rect width="156" height="34" fill="white"/>
</clipPath>
</defs>
</svg>
