<svg width="14" height="17" viewBox="0 0 14 17" fill="none" xmlns="http://www.w3.org/2000/svg">
<path d="M12.4884 0H0.968763C0.711818 0.000599556 0.465592 0.0995754 0.284015 0.27525C0.102437 0.450924 0.000309571 0.688976 0 0.937266V16.0605C0.000677393 16.243 0.056517 16.4214 0.16066 16.5738C0.264803 16.7261 0.412715 16.8457 0.586233 16.9179C0.75975 16.9901 0.951318 17.0118 1.13741 16.9803C1.3235 16.9488 1.49601 16.8654 1.63376 16.7405L6.72856 12.1063L11.8234 16.7427C12.0012 16.9072 12.2376 16.9993 12.4837 17C12.6173 16.9997 12.7495 16.9727 12.8719 16.9207C13.047 16.8501 13.1963 16.7307 13.3008 16.5776C13.4052 16.4246 13.4601 16.2449 13.4583 16.0616V0.937266C13.458 0.68878 13.3557 0.450557 13.1739 0.27485C12.992 0.0991435 12.7455 0.000299924 12.4884 0Z" fill="#3C3C3B"/>
</svg>
