<svg width="17" height="17" viewBox="0 0 17 17" fill="none" xmlns="http://www.w3.org/2000/svg">
<path d="M16.6728 6.464C16.6728 6.46072 16.6725 6.45744 16.6717 6.45424C15.9299 3.27843 13.2859 0.754001 10.0798 0.152248C7.26691 -0.370852 4.50337 0.468098 2.4998 2.45193C0.496231 4.43576 -0.36244 7.18943 0.140919 10.0122C0.733107 13.3383 3.36834 16.0328 6.69446 16.7236C8.37233 17.0691 10.0897 16.9112 11.6491 16.2696C11.8267 16.2006 12.0932 16.1315 12.3893 16.2203L14.7581 16.9408C14.8765 16.9803 15.0048 17 15.1331 17C15.4391 17 15.7352 16.8914 15.9622 16.6842C16.2879 16.3881 16.4359 15.9538 16.357 15.5195L15.8734 12.9534C15.824 12.677 15.903 12.4303 15.9918 12.2625C16.8991 10.4677 17.1363 8.46587 16.674 6.47376C16.6732 6.47057 16.6728 6.46729 16.6728 6.464ZM15.1085 11.8085C15.1107 11.8085 15.1122 11.8109 15.1111 11.8129C14.8958 12.236 14.8274 12.6884 14.9061 13.1212L15.3898 15.6873C15.4283 15.8673 15.2213 16.0439 15.0443 15.9933L12.6756 15.2728C12.488 15.2136 12.3005 15.184 12.1031 15.184C11.8268 15.184 11.5504 15.2432 11.274 15.3518C9.89228 15.9242 8.3822 16.0624 6.89186 15.7564C3.96053 15.1445 1.63125 12.7658 1.10816 9.83452C0.664014 7.34733 1.42399 4.9095 3.19068 3.15267C4.95738 1.39585 7.40508 0.655618 9.89227 1.1195C12.715 1.6426 15.0542 3.88306 15.7056 6.68608C16.1197 8.45113 15.9132 10.226 15.1058 11.8041C15.1047 11.8061 15.1062 11.8085 15.1085 11.8085Z" fill="#3C3C3B"/>
</svg>
