<svg width="18" height="4" viewBox="0 0 18 4" fill="none" xmlns="http://www.w3.org/2000/svg">
<path d="M4.60363 2.12969C4.60363 3.19613 3.89266 3.9071 2.77544 3.9071C1.65822 3.9071 0.921875 3.19613 0.921875 2.12969C0.921875 1.06325 1.64552 0.377686 2.77544 0.377686C3.90536 0.377686 4.60363 1.06325 4.60363 2.12969Z" fill="#4D4D4F"/>
<path d="M11.2433 2.12969C11.2433 3.19613 10.5323 3.9071 9.41509 3.9071C8.29786 3.9071 7.56152 3.19613 7.56152 2.12969C7.56152 1.06325 8.28517 0.377686 9.41509 0.377686C10.545 0.377686 11.2433 1.06325 11.2433 2.12969Z" fill="#4D4D4F"/>
<path d="M17.883 2.12969C17.883 3.19613 17.172 3.9071 16.0548 3.9071C14.9376 3.9071 14.2012 3.19613 14.2012 2.12969C14.2012 1.06325 14.9249 0.377686 16.0548 0.377686C17.1847 0.377686 17.883 1.06325 17.883 2.12969Z" fill="#4D4D4F"/>
</svg>
