<svg width="17" height="17" viewBox="0 0 17 17" fill="none" xmlns="http://www.w3.org/2000/svg">
<path d="M16.8097 0.401758C16.6229 0.142674 16.3236 0 15.9667 0C15.7991 0 15.6195 0.0315762 15.4329 0.093832L0.975314 4.913C0.475939 5.07945 0.131755 5.41961 0.0309836 5.84634C-0.0697879 6.2731 0.0859015 6.73137 0.458142 7.10371C0.494532 7.14013 0.536368 7.17068 0.582122 7.19429L6.66895 10.3319L9.80668 16.4187C9.83026 16.4645 9.8608 16.5063 9.89719 16.5427C10.1963 16.8419 10.5413 17 10.8949 17H10.895C11.4305 17 11.8877 16.6266 12.0879 16.0256L16.9072 1.56802C17.0587 1.11333 17.024 0.699158 16.8097 0.401758ZM1.00042 6.07528C1.01947 5.99449 1.13057 5.91125 1.29028 5.858L15.0126 1.28387L6.94371 9.35279L1.11523 6.34841C1.02744 6.24581 0.984046 6.1446 1.00042 6.07528ZM11.1429 15.7106C11.0956 15.8524 11.0057 16.0039 10.895 16.0039C10.8279 16.0039 10.7402 15.9605 10.6525 15.8856L7.64805 10.0571L15.7172 1.988L11.1429 15.7106Z" fill="#3C3C3B"/>
</svg>
