<svg width="31" height="32" viewBox="0 0 31 32" fill="none" xmlns="http://www.w3.org/2000/svg">
<ellipse cx="15.5" cy="16" rx="15.5" ry="16" fill="#00C97F"/>
<path d="M15.5064 0C10.5387 0 5.87299 2.45998 2.95275 6.6177C3.25484 6.6177 3.55693 6.6177 3.85903 6.65235C5.00027 6.68699 6.10795 6.96417 7.11494 7.48389C7.78626 7.83036 8.39045 8.31543 8.89394 8.90444C9.66596 9.80528 10.3037 10.8447 10.7736 11.9188C11.0422 12.5078 11.3107 13.0968 11.5457 13.6858C11.7806 14.2748 12.0491 14.8985 12.2505 15.4875C12.5862 16.3537 12.9219 17.2545 13.2575 18.1207C13.4925 18.7444 13.6939 19.368 13.9288 19.9917C14.1974 20.7193 14.4659 21.4122 14.7344 22.1398L15.3386 23.7683C15.3722 23.9069 15.4393 24.0108 15.5736 24.0801C15.7078 24.1148 15.8757 24.0455 15.9428 23.8722C16.0771 23.4911 16.2785 23.11 16.5134 22.7981C16.8491 22.1745 17.2183 21.5508 17.554 20.9272C17.9903 20.1303 18.4603 19.3334 18.8966 18.5365C19.333 17.7396 19.8029 16.8734 20.2393 16.0419C20.7428 15.1064 21.2127 14.1709 21.649 13.2007C21.9511 12.5424 22.2197 11.8841 22.4546 11.1912C22.5889 10.7754 22.7232 10.325 22.7903 9.87457C22.891 9.42416 22.891 8.93909 22.8238 8.48867C22.7567 8.14219 22.6224 7.79572 22.3875 7.51854C22.0518 7.10276 21.5819 6.82558 21.112 6.65235C20.7428 6.51375 20.34 6.40981 19.9372 6.34052C19.87 6.34052 19.8365 6.30587 19.8029 6.27122C19.9036 6.23657 20.0379 6.20193 20.1386 6.23657L21.4812 6.09798C21.9847 6.06334 22.4882 6.02869 23.0252 6.02869C23.428 5.99404 23.8644 6.02869 24.2672 6.09798C24.4686 6.13263 24.67 6.13263 24.8714 6.16728C25.7441 6.27122 26.5497 6.58305 27.221 7.13741C27.5902 7.48389 27.8923 7.93431 27.993 8.45402C28.1609 9.21627 28.1608 10.0132 28.0266 10.7754C27.9259 11.4684 26.4825 15.6261 26.2476 16.2151C26.0462 16.6655 25.8448 17.0813 25.6434 17.5317C25.3413 18.1207 25.0392 18.7444 24.7371 19.3334C24.3679 20.061 23.9651 20.7886 23.5623 21.5162C23.2266 22.1052 22.9245 22.6942 22.5889 23.2486C22.0854 24.184 21.5483 25.0849 21.0113 26.0204C20.5749 26.7826 20.0379 27.4756 19.4337 28.0992C18.8295 28.7922 18.0575 29.3119 17.2519 29.6584C16.547 29.9702 15.8085 30.0741 15.0701 29.9356C14.1974 29.797 13.3582 29.4505 12.6869 28.8961C12.217 28.4804 11.8142 27.9606 11.4785 27.4063C11.1093 26.748 10.7736 26.0897 10.4715 25.3967C10.1694 24.7384 9.93448 24.0801 9.66596 23.3872C9.39743 22.6596 9.1289 21.8973 8.89394 21.1697C8.69254 20.5807 8.49114 19.957 8.28975 19.368C8.12192 18.9176 7.98765 18.5018 7.81982 18.0514C7.61843 17.5317 7.41703 17.0466 7.21563 16.5616C6.94711 15.9033 6.67858 15.245 6.37648 14.5867C5.94012 13.5819 5.4702 12.6464 4.93314 11.7109C4.39609 10.7408 3.72476 9.87457 2.95275 9.11233C2.85205 9.00838 2.75135 8.93909 2.65065 8.83515C2.51639 8.7312 2.38212 8.62726 2.24786 8.55797C2.14716 8.48867 2.04646 8.41937 1.94576 8.38473C1.87863 8.52332 1.77793 8.69656 1.7108 8.83515C1.9122 8.93909 2.11359 9.07768 2.28142 9.21627C3.15414 9.97852 3.92616 10.8447 4.53035 11.8495C5.00027 12.5771 5.40307 13.374 5.77229 14.1709C6.04082 14.7599 6.27578 15.3489 6.47718 15.9726C6.51075 16.0072 6.51075 16.0765 6.51075 16.1111C6.41005 16.1111 6.37648 16.0072 6.34292 15.9726C5.77229 15.2103 5.13454 14.5174 4.46322 13.8244C3.4898 12.785 2.34856 11.9188 1.14018 11.2258L0.804519 11.0179C-1.91433 19.3334 2.48282 28.4111 10.6058 31.1829C18.7288 33.9547 27.5231 29.4505 30.2084 21.0658C32.8937 12.681 28.5301 3.60335 20.4071 0.831543C18.8295 0.277181 17.1848 0 15.5064 0ZM20.877 6.86023C21.6155 7.10276 22.2197 7.69177 22.4546 8.45402C22.5553 8.83515 22.5889 9.25092 22.5218 9.63204C22.3875 10.3596 22.1861 11.0872 21.9176 11.7455C21.8169 11.9534 21.7162 12.1613 21.649 12.4039C21.6155 12.4385 21.6155 12.5078 21.5483 12.5078C21.4812 12.5078 21.5148 12.4385 21.5148 12.4039C21.4476 11.7109 21.2798 11.0179 20.9777 10.3596C20.7428 9.77063 20.2393 9.32021 19.6686 9.11233C19.4001 9.04303 19.1651 9.00838 18.8966 9.00838C18.091 9.07768 17.319 9.35486 16.6477 9.83993C15.7078 10.4636 14.8687 11.2258 14.1302 12.1267C14.0967 12.1613 14.0631 12.2306 13.9624 12.2306C14.2309 11.8148 14.4659 11.3991 14.7009 10.9833C15.3051 9.94387 16.0099 9.00838 16.8491 8.14219C17.319 7.62248 17.8896 7.20671 18.5274 6.86023C18.8295 6.72164 19.1651 6.6177 19.5008 6.6177C19.9372 6.65235 20.4071 6.72164 20.877 6.86023Z" fill="white"/>
<path d="M30.25 16C30.25 24.445 23.6239 31.25 15.5 31.25C7.37607 31.25 0.75 24.445 0.75 16C0.75 7.55503 7.37607 0.75 15.5 0.75C23.6239 0.75 30.25 7.55503 30.25 16Z" stroke="#00C97F" stroke-width="1.5"/>
</svg>
