<svg width="50" height="54" viewBox="0 0 50 54" fill="none" xmlns="http://www.w3.org/2000/svg">
<path d="M49.5429 28.2557L43.975 18.6119L44.427 18.3509C45.3975 17.7906 46.0917 16.8859 46.3818 15.8035C46.6719 14.7209 46.523 13.5905 45.9627 12.62C44.806 10.6166 42.2352 9.92754 40.2319 11.0844L39.7799 11.3453L34.212 1.70153C33.7579 0.914992 33.0247 0.352372 32.1474 0.117304C31.2702 -0.117763 30.3539 0.00294733 29.5674 0.457043C28.7808 0.911138 28.2181 1.64425 27.9831 2.52151C27.822 3.12246 27.8281 3.74163 27.9937 4.32498L22.662 10.3239C22.2799 10.754 22.3187 11.4122 22.7487 11.7943C23.1785 12.1763 23.8369 12.1377 24.2191 11.7078L29.0188 6.30727L42.964 30.4612L19.6588 35.4606L13.1413 24.1718L17.9926 18.7133C18.3748 18.2833 18.3359 17.6251 17.906 17.2429C17.4763 16.8609 16.8178 16.8996 16.4356 17.3295L11.1967 23.224L2.48435 28.254C1.33599 28.9171 0.514453 29.9877 0.171278 31.2685C-0.171898 32.5494 0.00422059 33.8873 0.667242 35.0357L4.01672 40.8371C4.93522 42.428 6.60735 43.3183 8.32448 43.3183C9.16612 43.3183 10.0187 43.1043 10.7984 42.6542L13.2741 41.2248L24.1418 52.0915C24.9526 52.9021 26.0335 53.3245 27.1254 53.3245C27.8469 53.3245 28.5734 53.14 29.2295 52.7611C30.3735 52.1006 31.1285 50.9708 31.301 49.661C31.4734 48.3512 31.0365 47.0643 30.1024 46.1303L26.3365 42.3648L27.3637 41.7719C28.1491 41.3184 28.6569 40.5414 28.7569 39.6401C28.8569 38.7387 28.5319 37.8693 27.8653 37.2546L26.6122 36.0994L44.1665 32.3336C44.5881 32.7663 45.1196 33.0796 45.7184 33.24C46.0114 33.3186 46.3085 33.3574 46.6039 33.3574C47.1931 33.3574 47.7746 33.2028 48.2985 32.9003C49.0851 32.4463 49.6477 31.7131 49.8827 30.8358C50.1177 29.9586 49.9971 29.0422 49.5429 28.2557ZM40.8213 13.1492L41.2733 12.8883C42.282 12.3057 43.5763 12.6527 44.1589 13.6615C44.7413 14.6702 44.3943 15.9646 43.3856 16.547L42.9337 16.808L40.856 13.2093L40.8213 13.1492ZM9.75686 40.8504C8.38082 41.6445 6.61506 41.1716 5.8206 39.7957L2.47113 33.9943C2.08629 33.3277 1.98412 32.5513 2.18325 31.8077C2.38239 31.0642 2.85929 30.443 3.52586 30.058L11.4823 25.4645L17.7132 36.2568L9.75686 40.8504ZM29.2358 49.3893C29.1486 50.0517 28.7667 50.6232 28.188 50.9573C27.3539 51.4388 26.2956 51.2996 25.6146 50.6186L15.1417 40.1466L18.9647 37.9395L28.6295 47.6034C29.1019 48.0758 29.323 48.7268 29.2358 49.3893ZM26.4533 38.7861C26.6277 38.9469 26.7127 39.1744 26.6866 39.4102C26.6605 39.646 26.5276 39.8493 26.3221 39.9679L24.8116 40.84L21.2259 37.2547L24.1192 36.6341L26.4533 38.7861ZM47.8706 30.2967C47.7795 30.6366 47.5616 30.9205 47.2569 31.0965C46.9523 31.2723 46.5973 31.3193 46.2574 31.2281C45.9175 31.1371 45.6335 30.9191 45.4576 30.6144L30.1265 4.05981C29.9507 3.75517 29.904 3.40033 29.995 3.0607C30.0862 2.72085 30.304 2.43694 30.6088 2.26093C30.8118 2.14376 31.037 2.08387 31.2652 2.08387C31.3797 2.08387 31.4948 2.09897 31.6082 2.12938C31.9481 2.22041 32.2321 2.4384 32.408 2.74314L47.739 29.2973C47.9149 29.6019 47.9617 29.9569 47.8706 30.2967Z" fill="white"/>
<path d="M20.3267 15.5599C20.6006 15.5599 20.8693 15.4485 21.063 15.2548C21.2567 15.061 21.3681 14.7923 21.3681 14.5184C21.3681 14.2445 21.2567 13.9758 21.063 13.7821C20.8693 13.5885 20.6016 13.4769 20.3267 13.4769C20.0527 13.4769 19.784 13.5884 19.5903 13.7821C19.3966 13.9758 19.2852 14.2445 19.2852 14.5184C19.2852 14.7923 19.3966 15.061 19.5903 15.2548C19.784 15.4484 20.0527 15.5599 20.3267 15.5599Z" fill="white"/>
</svg>
