<svg width="44" height="44" viewBox="0 0 44 44" fill="none" xmlns="http://www.w3.org/2000/svg">
<path d="M43.7891 27.1173C43.4922 26.5235 43.4219 26.6876 33.7188 26.6876C33.7188 6.88292 33.8047 7.15635 33.6406 6.83604C33.5469 6.63292 34.0312 7.14854 27.2422 0.351667C26.8828 0.000104405 27.7734 0.125104 4.8125 0.125104C4.6053 0.125104 4.40659 0.207415 4.26007 0.353927C4.11356 0.50044 4.03125 0.699154 4.03125 0.906354V11.0626H0.90625C0.69905 11.0626 0.500336 11.1449 0.353823 11.2914C0.20731 11.4379 0.125 11.6367 0.125 11.8439V22.7814C0.125 22.9886 0.20731 23.1873 0.353823 23.3338C0.500336 23.4803 0.69905 23.5626 0.90625 23.5626H4.03125V39.9689C4.03125 40.1761 4.11356 40.3748 4.26007 40.5213C4.40659 40.6678 4.6053 40.7501 4.8125 40.7501H17.3125V43.0939C17.3125 43.3011 17.3948 43.4998 17.5413 43.6463C17.6878 43.7928 17.8865 43.8751 18.0938 43.8751H43.0938C43.3009 43.8751 43.4997 43.7928 43.6462 43.6463C43.7927 43.4998 43.875 43.3011 43.875 43.0939C43.875 26.7657 43.9141 27.3595 43.7891 27.1173ZM39.7812 28.2501L30.5938 32.8439L21.4062 28.2501H39.7812ZM31.0547 6.3751H27.4688V2.78917L31.0547 6.3751ZM1.6875 12.6251H15.75V22.0001H1.6875V12.6251ZM5.59375 39.1876V23.5626H16.5312C16.7385 23.5626 16.9372 23.4803 17.0837 23.3338C17.2302 23.1873 17.3125 22.9886 17.3125 22.7814V11.8439C17.3125 11.6367 17.2302 11.4379 17.0837 11.2914C16.9372 11.1449 16.7385 11.0626 16.5312 11.0626H5.59375V1.6876H25.9062V7.15635C25.9062 7.36355 25.9886 7.56227 26.1351 7.70878C26.2816 7.85529 26.4803 7.9376 26.6875 7.9376H32.1562V26.6876C17.8359 26.6876 17.7031 26.5079 17.3984 27.1173C17.2656 27.3751 17.3125 26.8595 17.3125 39.1876H5.59375ZM18.875 42.3126V28.7345C31.2656 34.9298 30.3203 34.5001 30.5938 34.5001C30.8672 34.5001 29.9922 34.8907 42.3125 28.7345V42.3126H18.875Z" fill="white"/>
<path d="M39.2733 25.5861C39.346 25.6856 39.4413 25.7665 39.5513 25.8222C39.6612 25.8778 39.7828 25.9067 39.9061 25.9064C40.4139 25.9064 40.3124 25.9064 42.9296 22.4767C43.1639 22.172 43.0936 23.4454 43.0936 5.59387C43.092 5.32119 43.019 5.0537 42.8819 4.81796C42.7449 4.58222 42.5485 4.38646 42.3124 4.25012V2.46887C42.3124 1.84727 42.0654 1.25113 41.6259 0.811591C41.1864 0.372052 40.5902 0.125122 39.9686 0.125122C39.347 0.125122 38.7509 0.372052 38.3113 0.811591C37.8718 1.25113 37.6249 1.84727 37.6249 2.46887V4.25012C37.3887 4.38646 37.1924 4.58222 37.0553 4.81796C36.9182 5.0537 36.8453 5.32119 36.8436 5.59387C36.8436 23.5626 36.7811 22.1642 36.9921 22.4611L39.2733 25.5861ZM41.5311 21.7345L39.9217 23.8204L38.4061 21.7423V5.59387H41.5311V21.7345ZM39.1874 2.46887C39.1874 2.26167 39.2697 2.06296 39.4162 1.91645C39.5627 1.76993 39.7614 1.68762 39.9686 1.68762C40.1758 1.68762 40.3745 1.76993 40.521 1.91645C40.6676 2.06296 40.7499 2.26167 40.7499 2.46887V4.03137H39.1874V2.46887Z" fill="white"/>
<path d="M7.9375 16.5314C7.9375 16.0678 7.80004 15.6147 7.54251 15.2293C7.28497 14.8438 6.91893 14.5434 6.49067 14.366C6.0624 14.1886 5.59115 14.1422 5.13651 14.2327C4.68187 14.3231 4.26425 14.5463 3.93647 14.8741C3.60869 15.2019 3.38547 15.6195 3.29504 16.0741C3.2046 16.5288 3.25102 17 3.42841 17.4283C3.6058 17.8566 3.90621 18.2226 4.29163 18.4801C4.67706 18.7377 5.1302 18.8751 5.59375 18.8751C6.21535 18.8751 6.81149 18.6282 7.25103 18.1887C7.69057 17.7491 7.9375 17.153 7.9375 16.5314ZM4.8125 16.5314C4.8125 16.3242 4.89481 16.1255 5.04132 15.9789C5.18784 15.8324 5.38655 15.7501 5.59375 15.7501C5.80095 15.7501 5.99967 15.8324 6.14618 15.9789C6.29269 16.1255 6.375 16.3242 6.375 16.5314C6.375 16.7386 6.29269 16.9373 6.14618 17.0838C5.99967 17.2303 5.80095 17.3126 5.59375 17.3126C5.38655 17.3126 5.18784 17.2303 5.04132 17.0838C4.89481 16.9373 4.8125 16.7386 4.8125 16.5314Z" fill="white"/>
<path d="M10.2812 18.0939H13.4062C13.6135 18.0939 13.8122 18.0116 13.9587 17.865C14.1052 17.7185 14.1875 17.5198 14.1875 17.3126C14.1875 17.1054 14.1052 16.9067 13.9587 16.7602C13.8122 16.6137 13.6135 16.5314 13.4062 16.5314H10.2812C10.074 16.5314 9.87534 16.6137 9.72882 16.7602C9.58231 16.9067 9.5 17.1054 9.5 17.3126C9.5 17.5198 9.58231 17.7185 9.72882 17.865C9.87534 18.0116 10.074 18.0939 10.2812 18.0939Z" fill="white"/>
<path d="M10.2812 20.4376H13.4062C13.6135 20.4376 13.8122 20.3553 13.9587 20.2088C14.1052 20.0623 14.1875 19.8636 14.1875 19.6564C14.1875 19.4492 14.1052 19.2505 13.9587 19.1039C13.8122 18.9574 13.6135 18.8751 13.4062 18.8751H10.2812C10.074 18.8751 9.87534 18.9574 9.72882 19.1039C9.58231 19.2505 9.5 19.4492 9.5 19.6564C9.5 19.8636 9.58231 20.0623 9.72882 20.2088C9.87534 20.3553 10.074 20.4376 10.2812 20.4376Z" fill="white"/>
<path d="M11.0625 3.25012C10.4444 3.25012 9.84025 3.4334 9.32635 3.77678C8.81244 4.12016 8.4119 4.60822 8.17538 5.17924C7.93885 5.75026 7.87697 6.37859 7.99755 6.98478C8.11813 7.59097 8.41575 8.14779 8.85279 8.58483C9.28983 9.02187 9.84665 9.3195 10.4528 9.44008C11.059 9.56066 11.6874 9.49877 12.2584 9.26225C12.8294 9.02572 13.3175 8.62518 13.6608 8.11128C14.0042 7.59737 14.1875 6.99319 14.1875 6.37512C14.1875 5.54632 13.8583 4.75146 13.2722 4.16541C12.6862 3.57936 11.8913 3.25012 11.0625 3.25012ZM11.0625 7.93762C10.7535 7.93762 10.4514 7.84598 10.1944 7.67429C9.93747 7.5026 9.7372 7.25857 9.61894 6.97306C9.50068 6.68756 9.46974 6.37339 9.53002 6.07029C9.59031 5.7672 9.73913 5.48879 9.95765 5.27027C10.1762 5.05175 10.4546 4.90293 10.7577 4.84264C11.0608 4.78236 11.3749 4.8133 11.6604 4.93156C11.946 5.04982 12.19 5.25009 12.3617 5.50704C12.5334 5.764 12.625 6.06609 12.625 6.37512C12.625 6.78952 12.4604 7.18695 12.1674 7.47998C11.8743 7.773 11.4769 7.93762 11.0625 7.93762Z" fill="white"/>
<path d="M16.5312 5.59387H23.5625C23.7697 5.59387 23.9684 5.51156 24.1149 5.36505C24.2614 5.21854 24.3438 5.01982 24.3438 4.81262C24.3438 4.60542 24.2614 4.40671 24.1149 4.2602C23.9684 4.11368 23.7697 4.03137 23.5625 4.03137H16.5312C16.324 4.03137 16.1253 4.11368 15.9788 4.2602C15.8323 4.40671 15.75 4.60542 15.75 4.81262C15.75 5.01982 15.8323 5.21854 15.9788 5.36505C16.1253 5.51156 16.324 5.59387 16.5312 5.59387Z" fill="white"/>
<path d="M20.4375 7.15637H16.5312C16.324 7.15637 16.1253 7.23868 15.9788 7.3852C15.8323 7.53171 15.75 7.73042 15.75 7.93762C15.75 8.14482 15.8323 8.34354 15.9788 8.49005C16.1253 8.63656 16.324 8.71887 16.5312 8.71887H20.4375C20.6447 8.71887 20.8434 8.63656 20.9899 8.49005C21.1364 8.34354 21.2188 8.14482 21.2188 7.93762C21.2188 7.73042 21.1364 7.53171 20.9899 7.3852C20.8434 7.23868 20.6447 7.15637 20.4375 7.15637Z" fill="white"/>
<path d="M23.1719 35.2814C22.6311 35.2814 22.1024 35.4417 21.6527 35.7422C21.2031 36.0427 20.8526 36.4697 20.6456 36.9693C20.4387 37.469 20.3845 38.0188 20.49 38.5492C20.5955 39.0796 20.856 39.5668 21.2384 39.9492C21.6208 40.3317 22.108 40.5921 22.6384 40.6976C23.1688 40.8031 23.7186 40.7489 24.2183 40.542C24.7179 40.335 25.145 39.9846 25.4454 39.5349C25.7459 39.0852 25.9063 38.5566 25.9063 38.0157C25.9063 37.2905 25.6182 36.595 25.1054 36.0823C24.5926 35.5695 23.8971 35.2814 23.1719 35.2814ZM23.1719 39.1876C22.8611 39.1876 22.563 39.0642 22.3432 38.8444C22.1235 38.6246 22 38.3265 22 38.0157C22 37.7049 22.1235 37.4069 22.3432 37.1871C22.563 36.9673 22.8611 36.8439 23.1719 36.8439C23.4827 36.8439 23.7807 36.9673 24.0005 37.1871C24.2203 37.4069 24.3438 37.7049 24.3438 38.0157C24.3438 38.3265 24.2203 38.6246 24.0005 38.8444C23.7807 39.0642 23.4827 39.1876 23.1719 39.1876Z" fill="white"/>
<path d="M35.2812 36.0626H28.25C28.0428 36.0626 27.8441 36.1449 27.6976 36.2914C27.5511 36.438 27.4688 36.6367 27.4688 36.8439C27.4688 37.0511 27.5511 37.2498 27.6976 37.3963C27.8441 37.5428 28.0428 37.6251 28.25 37.6251H35.2812C35.4885 37.6251 35.6872 37.5428 35.8337 37.3963C35.9802 37.2498 36.0625 37.0511 36.0625 36.8439C36.0625 36.6367 35.9802 36.438 35.8337 36.2914C35.6872 36.1449 35.4885 36.0626 35.2812 36.0626Z" fill="white"/>
<path d="M32.1562 39.1876H28.25C28.0428 39.1876 27.8441 39.2699 27.6976 39.4164C27.5511 39.563 27.4688 39.7617 27.4688 39.9689C27.4688 40.1761 27.5511 40.3748 27.6976 40.5213C27.8441 40.6678 28.0428 40.7501 28.25 40.7501H32.1562C32.3635 40.7501 32.5622 40.6678 32.7087 40.5213C32.8552 40.3748 32.9375 40.1761 32.9375 39.9689C32.9375 39.7617 32.8552 39.563 32.7087 39.4164C32.5622 39.2699 32.3635 39.1876 32.1562 39.1876Z" fill="white"/>
</svg>
