<svg width="50" height="50" viewBox="0 0 50 50" fill="none" xmlns="http://www.w3.org/2000/svg">
<g clip-path="url(#clip0_862_905)">
<path d="M46.4897 6.32867H29.9947C30.8289 4.32535 30.0664 1.95914 28.138 0.845667C26.0431 -0.364001 23.3544 0.356312 22.1448 2.45153L19.9064 6.32858H4.42578C1.98545 6.32867 0 8.31403 0 10.7545V38.3348C0 40.7752 1.98545 42.7606 4.42578 42.7606H18.1401C18.3074 44.2552 18.2035 46.0431 17.8516 47.7894H12.3498C11.8105 47.7894 11.3732 48.2267 11.3732 48.766C11.3732 49.3052 11.8105 49.7425 12.3498 49.7425H37.6508C38.19 49.7425 38.6273 49.3052 38.6273 48.766C38.6273 48.2267 38.19 47.7894 37.6508 47.7894H32.0949C31.7115 46.0267 31.5879 44.238 31.7513 42.7606H45.5741C48.0145 42.7606 50 40.7752 50 38.3348V9.83951C50 7.90368 48.4253 6.32867 46.4897 6.32867ZM13.8092 22.2255L16.787 23.9448L13.8092 25.664V22.2255ZM18.3827 22.6108L14.1666 20.1766L22.1682 6.31754L26.3843 8.75172L18.3827 22.6108ZM27.1615 2.53707C28.3238 3.20817 28.7235 4.69977 28.0525 5.86227L27.3608 7.06032L23.1447 4.62614L23.8364 3.42819C24.5075 2.26569 25.999 1.86627 27.1615 2.53707ZM4.42578 8.2818H18.7788L11.9869 20.0458C11.9012 20.1943 11.8561 20.3627 11.8561 20.534V27.3555C11.8561 27.8948 12.2934 28.3321 12.8326 28.3321H37.1674C37.7066 28.3321 38.1439 27.8948 38.1439 27.3555C38.1439 26.8163 37.7066 26.379 37.1674 26.379H16.4772L19.2285 24.7905C19.3771 24.7047 19.5002 24.5815 19.5859 24.4331L28.9109 8.2818H46.4897C47.3483 8.2818 48.0469 8.98053 48.0469 9.83951V33.9464H1.95312V10.7545C1.95312 9.39098 3.0623 8.2818 4.42578 8.2818ZM30.1014 47.7894H19.8394C20.1544 46.0541 20.2492 44.2893 20.1043 42.7606H29.7875C29.6474 44.2768 29.7594 46.0415 30.1014 47.7894ZM45.5741 40.8075H4.42578C3.0623 40.8075 1.95312 39.6983 1.95312 38.3348V35.8996H48.0469V38.3348C48.0469 39.6983 46.9376 40.8075 45.5741 40.8075ZM38.1439 21.4464C38.1439 21.9857 37.7066 22.423 37.1674 22.423H27.0506C26.5113 22.423 26.074 21.9857 26.074 21.4464C26.074 20.9072 26.5113 20.4699 27.0506 20.4699H37.1674C37.7066 20.4699 38.1439 20.9072 38.1439 21.4464Z" fill="white"/>
</g>
<defs>
<clipPath id="clip0_862_905">
<rect width="50" height="50" fill="white"/>
</clipPath>
</defs>
</svg>
