<svg width="50" height="50" viewBox="0 0 50 50" fill="none" xmlns="http://www.w3.org/2000/svg">
<g clip-path="url(#clip0_862_869)">
<path d="M49.2661 48.9764H44.5205V19.9647C44.5205 19.5594 44.192 19.2308 43.7866 19.2308H35.9589C35.5535 19.2308 35.225 19.5594 35.225 19.9647V48.9764H29.6478V28.5753C29.6478 28.17 29.3192 27.8414 28.9139 27.8414H21.0861C20.6808 27.8414 20.3522 28.17 20.3522 28.5753V48.9764H14.775V32.4891C14.775 32.0839 14.4465 31.7552 14.0411 31.7552H6.21338C5.80801 31.7552 5.47949 32.0839 5.47949 32.4891V48.9763H0.733887C0.328516 48.9763 0 49.305 0 49.7102C0 50.1155 0.328516 50.4441 0.733887 50.4441H49.2661C49.6715 50.4441 50 50.1155 50 49.7102C49.9999 49.305 49.6715 48.9764 49.2661 48.9764ZM13.3072 48.9764H6.94717V33.223H13.3072V48.9764ZM28.1801 48.9764H21.82V29.3092H28.1801V48.9764ZM43.0528 48.9764H36.6928V20.6986H43.0528V48.9764Z" fill="white"/>
<path d="M47.6573 0.575725C47.1627 0.139103 46.5044 -0.0643145 45.8501 0.0179121L39.5879 0.800725C38.3447 0.956096 37.4359 2.12299 37.5915 3.36742C37.7486 4.62494 38.8991 5.52113 40.1583 5.36391L40.6692 5.30014C32.9832 14.2119 23.8458 18.8175 17.389 21.1322C9.33808 24.0184 3.07177 24.2653 3.01073 24.2673C1.74481 24.3069 0.745987 25.3691 0.784268 26.6352C0.822158 27.8856 1.83124 28.865 3.08173 28.865C3.10497 28.865 3.12831 28.8647 3.15224 28.8639C3.43085 28.8555 10.0735 28.6209 18.825 25.5026C23.7447 23.7495 28.374 21.4222 32.5841 18.5856C32.9202 18.3592 33.0091 17.903 32.7825 17.5669C32.5561 17.2307 32.1001 17.1419 31.7639 17.3684C27.6557 20.1366 23.1366 22.4081 18.3323 24.1201C9.79589 27.1618 3.37675 27.3887 3.10829 27.3968L3.08173 27.3972C2.62978 27.3972 2.26493 27.043 2.25126 26.5908C2.23739 26.1328 2.59872 25.7486 3.05692 25.7342C3.12099 25.7322 9.5661 25.4956 17.8843 22.5137C24.8529 20.0156 34.866 14.9147 42.9942 4.80102C43.3989 4.2975 42.9711 3.53295 42.3313 3.61313L39.9767 3.90746C39.5684 3.95795 39.172 3.69047 39.0684 3.29184C38.9437 2.81215 39.2789 2.3184 39.7701 2.25688L46.0325 1.47406C46.5215 1.41225 46.9672 1.80746 46.9672 2.29936V8.56156C46.9672 9.02016 46.5941 9.3933 46.1354 9.3933C45.6768 9.3933 45.3037 9.02026 45.3037 8.56156V6.66313C45.3037 6.36322 45.1098 6.08276 44.8293 5.9768C44.5395 5.86733 44.1972 5.95922 44.0013 6.19906C41.2603 9.55756 38.1394 12.5966 34.7251 15.2318C34.4043 15.4794 34.3448 15.9403 34.5925 16.2612C34.8401 16.5821 35.3012 16.6413 35.6219 16.3938C38.596 14.0984 41.3528 11.5045 43.8384 8.66518C43.8927 9.8852 44.9022 10.8612 46.1355 10.8612C47.4034 10.8612 48.435 9.82963 48.435 8.56176V2.29955C48.4349 1.64037 48.1515 1.01196 47.6573 0.575725Z" fill="white"/>
</g>
<defs>
<clipPath id="clip0_862_869">
<rect width="50" height="50" fill="white"/>
</clipPath>
</defs>
</svg>
