<svg width="50" height="50" viewBox="0 0 50 50" fill="none" xmlns="http://www.w3.org/2000/svg">
<g clip-path="url(#clip0_862_1115)">
<path d="M36.2146 11.43C36.2146 11.0592 35.8705 10.7697 35.5992 10.7697C35.5359 10.7697 35.4726 10.7788 35.4276 10.815L33.13 12.3074C32.9221 12.4432 32.8496 12.6602 32.8496 12.8139C32.8496 12.9677 32.9221 13.1847 33.13 13.3205L35.4276 14.8129C35.4726 14.8491 35.5359 14.8582 35.5992 14.8582C35.8705 14.8582 36.2146 14.5687 36.2146 14.1979C36.2146 14.0442 36.1512 13.9084 36.0517 13.8451L34.4594 12.8139L36.0517 11.7828C36.1508 11.7195 36.2146 11.5837 36.2146 11.43Z" fill="white"/>
<path d="M40.7644 8.33667C40.6015 8.33667 40.4565 8.40877 40.3844 8.56288L37.2095 15.0841C37.1824 15.1383 37.1641 15.2016 37.1641 15.2561C37.1641 15.482 37.3632 15.7353 37.671 15.7353C37.8427 15.7353 38.0147 15.6449 38.0781 15.5094L41.2618 8.98784C41.2889 8.93367 41.298 8.87035 41.298 8.8158C41.2977 8.52664 41.0173 8.33667 40.7644 8.33667Z" fill="white"/>
<path d="M45.3322 12.3074L43.035 10.815C42.9896 10.7788 42.9263 10.7697 42.863 10.7697C42.5918 10.7697 42.248 11.0592 42.248 11.43C42.248 11.5837 42.3114 11.7195 42.4109 11.7828L44.0028 12.8139L42.4109 13.8451C42.3114 13.9084 42.248 14.0442 42.248 14.1979C42.248 14.5687 42.5918 14.8582 42.863 14.8582C42.9263 14.8582 42.9896 14.8491 43.035 14.8129L45.3322 13.3205C45.5405 13.1847 45.6126 12.9677 45.6126 12.8139C45.6126 12.6602 45.5405 12.4432 45.3322 12.3074Z" fill="white"/>
<path d="M46.4583 3.64151H30.6883C29.8735 1.51443 27.8101 0 25.3996 0H14.8222C11.7014 0 9.16197 2.53944 9.16197 5.66025V12.0876C8.53102 12.6312 8.23767 13.4815 8.39293 14.3375L8.80873 16.6256C8.95827 17.4114 9.3756 17.8154 9.69908 18.0157C10.0611 18.2396 10.4628 18.3136 10.8317 18.3155V18.7222C10.8317 20.7851 12.0352 23.0587 14.1337 24.9603C14.5289 25.3181 14.9397 25.6481 15.3586 25.9464V27.1732C15.3586 27.5471 15.0919 27.8679 14.7242 27.9362C14.707 27.9392 14.6902 27.943 14.6734 27.9472C14.6609 27.9507 13.4035 28.2784 11.7598 28.7445H6.38907C5.78521 28.7445 5.2027 28.9982 4.79109 29.4399C4.37949 29.8817 4.16815 30.481 4.21126 31.0833L4.22576 31.2901C1.82364 32.4947 0.312259 34.6546 0.168063 37.1094C0.167682 37.1197 0.1673 37.13 0.166919 37.1403L0.000216474 47.2221C-0.0089388 47.9614 0.272586 48.6584 0.791766 49.1844C1.31171 49.7105 2.00484 50 2.74451 50H37.4777C38.217 50 38.9105 49.7105 39.4301 49.1844C39.9496 48.6584 40.2312 47.9618 40.222 47.2191L40.0553 37.1403C40.0549 37.13 40.0545 37.1197 40.0538 37.1094C39.9058 34.5837 38.3105 32.3704 35.7859 31.1882C35.7397 31.1665 35.6913 31.1443 35.6413 31.1218L35.644 31.0833C35.6867 30.481 35.4754 29.882 35.0642 29.4399C34.6525 28.9982 34.07 28.7445 33.4662 28.7445H28.4624C26.8191 28.2784 25.5614 27.9507 25.5488 27.9476C25.532 27.943 25.5152 27.9392 25.498 27.9362C25.1303 27.8679 24.8636 27.5471 24.8636 27.1732V25.9468C25.2825 25.6481 25.6933 25.3181 26.0886 24.9603C27.4222 23.7518 28.3945 22.393 28.9259 21.0335H33.6848L32.8535 24.3885C32.7151 24.9481 32.9371 25.5135 33.4193 25.8289C33.6458 25.9773 33.8999 26.0509 34.1528 26.0509C34.4389 26.0509 34.7235 25.9571 34.9661 25.7706L41.133 21.0335H46.4583C48.3881 21.0335 49.9579 19.4637 49.9579 17.5339V7.14111C49.9579 5.21164 48.3881 3.64151 46.4583 3.64151ZM29.3921 13.353C29.6721 13.2576 29.9372 13.2183 30.11 13.2027C30.34 13.4068 30.4484 13.7428 30.3881 14.0755L29.9746 16.3521C29.9143 16.6698 29.7922 16.7454 29.7522 16.7702C29.6671 16.8228 29.5416 16.8499 29.3913 16.8514L29.3921 13.353ZM10.6268 5.66025C10.6268 3.34702 12.509 1.46484 14.8222 1.46484H25.4C27.7132 1.46484 29.5954 3.34702 29.5954 5.66025V11.797C29.233 11.861 28.7817 11.9839 28.3411 12.2189V7.75604C28.3411 6.1512 27.0354 4.84543 25.4305 4.84543H23.4511C22.7648 4.84543 22.0946 5.08461 21.5632 5.51872L21.3694 5.67741C21.0154 5.96695 20.5683 6.1264 20.1109 6.1264C19.6535 6.1264 19.2068 5.96695 18.8528 5.6778L18.6587 5.51872C18.1277 5.08461 17.457 4.84543 16.7708 4.84543H14.7917C13.1869 4.84543 11.8811 6.15082 11.8811 7.75604V12.2185C11.4405 11.9839 10.9892 11.8607 10.6268 11.797V5.66025ZM10.47 16.7702C10.43 16.7454 10.3079 16.6698 10.2488 16.3582L9.83412 14.0759C9.77385 13.7432 9.88219 13.4075 10.1115 13.203C10.2843 13.2187 10.5498 13.2572 10.8301 13.3526L10.8309 16.8514C10.681 16.8499 10.5555 16.8228 10.47 16.7702ZM3.98963 48.0045C3.98963 48.1884 4.0148 48.3662 4.06134 48.5352H2.74451C2.39966 48.5352 2.07656 48.4001 1.83394 48.1548C1.59171 47.9095 1.46086 47.5845 1.46468 47.2431L1.63138 37.1803C1.73972 35.4218 2.71437 33.897 4.34058 32.8999L5.23474 45.446C5.25115 45.6764 5.30379 45.8965 5.38619 46.1014C4.57747 46.3562 3.98963 47.113 3.98963 48.0045ZM34.6201 45.446L35.5288 32.6977C37.3667 33.6838 38.4749 35.2978 38.5908 37.1803L38.7575 47.2401C38.7614 47.5845 38.6301 47.9095 38.3883 48.1548C38.1457 48.4001 37.8226 48.5352 37.4777 48.5352H36.1609C36.2078 48.3662 36.2326 48.1884 36.2326 48.0045C36.2326 46.9925 35.4754 46.1544 34.4977 46.0266C34.5637 45.8431 34.606 45.6486 34.6201 45.446ZM34.7677 48.0045C34.7677 48.2971 34.5297 48.5352 34.2375 48.5352H5.98471C5.69251 48.5352 5.45447 48.2971 5.45447 48.0045C5.45447 47.7123 5.69251 47.4743 5.98471 47.4743H34.2375C34.5297 47.4743 34.7677 47.7123 34.7677 48.0045ZM33.9922 30.4382C34.1296 30.5859 34.1975 30.7777 34.183 30.9792L33.1591 45.3423C33.1324 45.7165 32.8177 46.0094 32.4423 46.0094H7.41256C7.03757 46.0094 6.72286 45.7165 6.69577 45.3419L5.67229 30.9792C5.65779 30.7777 5.7257 30.5859 5.86302 30.4382C6.00074 30.2906 6.18727 30.2094 6.38907 30.2094H33.4662C33.6676 30.2094 33.8545 30.2906 33.9922 30.4382ZM24.0423 28.7445H16.1799C16.5804 28.3371 16.8234 27.7794 16.8234 27.1732V26.8456C17.9781 27.4433 19.1256 27.7786 20.1109 27.7786C21.0963 27.7786 22.2437 27.4433 23.3988 26.8456V27.1732C23.3988 27.7794 23.6418 28.3371 24.0423 28.7445ZM25.1047 23.8747C23.4694 25.3563 21.5094 26.3138 20.1109 26.3138C18.7128 26.3138 16.7528 25.3563 15.1175 23.8747C13.3246 22.2507 12.2965 20.3724 12.2965 18.7218L12.295 14.1075C12.3045 14.1075 12.3141 14.1079 12.3236 14.1079C12.456 14.1079 12.5895 14.082 12.7173 14.0285C13.0991 13.8691 13.3459 13.4987 13.3459 13.0852V7.75604C13.3459 6.95877 13.9944 6.31027 14.7917 6.31027H16.7712C17.1202 6.31027 17.4612 6.43196 17.7313 6.65283L17.9259 6.8119C18.5408 7.3143 19.3167 7.59125 20.1109 7.59125C20.9051 7.59125 21.6814 7.3143 22.2964 6.81152L22.4905 6.65283C22.7606 6.43196 23.102 6.31027 23.4511 6.31027H25.4301C26.2274 6.31027 26.8763 6.95877 26.8763 7.75604V13.0852C26.8763 13.4991 27.1227 13.8691 27.5049 14.0285C27.6415 14.0858 27.7853 14.1113 27.9269 14.1075L27.9257 18.7222C27.9261 20.3724 26.8976 22.2507 25.1047 23.8747ZM48.493 17.5339C48.493 18.6558 47.5806 19.5686 46.4583 19.5686H40.8842C40.7229 19.5686 40.5661 19.622 40.4383 19.7205L34.363 24.387L35.3316 20.4773C35.3857 20.2587 35.3365 20.0272 35.1977 19.8498C35.0588 19.6724 34.846 19.5686 34.6209 19.5686H29.3257C29.3688 19.2837 29.3909 19.001 29.3909 18.7222V18.3155C29.7594 18.3136 30.1611 18.2396 30.5231 18.0157C30.847 17.8154 31.2643 17.4114 31.4146 16.6199L31.8293 14.3375C31.9849 13.4815 31.6908 12.6308 31.0602 12.0876V5.66025C31.0602 5.47371 31.0511 5.2887 31.0332 5.10635H46.4583C47.5806 5.10635 48.493 6.01921 48.493 7.14111V17.5339Z" fill="white"/>
<path d="M20.1109 41.4421C21.6291 41.4421 22.8643 40.2069 22.8643 38.6886C22.8643 37.1704 21.6291 35.9352 20.1109 35.9352C18.5926 35.9352 17.3574 37.1704 17.3574 38.6886C17.3574 40.2069 18.5926 41.4421 20.1109 41.4421ZM20.1109 37.4C20.8215 37.4 21.3995 37.9783 21.3995 38.6886C21.3995 39.3993 20.8215 39.9772 20.1109 39.9772C19.4006 39.9772 18.8223 39.3993 18.8223 38.6886C18.8223 37.9783 19.4006 37.4 20.1109 37.4Z" fill="white"/>
</g>
<defs>
<clipPath id="clip0_862_1115">
<rect width="50" height="50" fill="white"/>
</clipPath>
</defs>
</svg>
