<svg width="34" height="34" viewBox="0 0 34 34" fill="white" xmlns="http://www.w3.org/2000/svg">
    <path
        d="M33.6968 30.8872C33.8688 28.5176 33.9604 26.1003 33.9686 25.8776C34.0764 24.461 33.9054 23.2511 33.4604 22.2812C32.99 21.256 32.2169 20.4862 31.1624 19.9932C31.0927 19.9606 31.0187 19.9382 30.9426 19.9268C28.7042 19.5924 26.1287 18.4693 23.2877 16.5887C23.1984 16.5296 23.0982 16.4891 22.9929 16.4696C22.8877 16.4501 22.7796 16.452 22.6751 16.4752C22.5706 16.4984 22.4718 16.5424 22.3847 16.6046C22.2976 16.6668 22.2239 16.7459 22.168 16.8372L16.765 25.6669L11.8489 16.8647C11.7954 16.7689 11.7227 16.6852 11.6353 16.6188C11.548 16.5525 11.4479 16.5048 11.3413 16.479C11.2347 16.4531 11.1239 16.4494 11.0158 16.4684C10.9078 16.4873 10.8048 16.5283 10.7133 16.5888C7.87244 18.4694 5.29694 19.5925 3.05832 19.9269C2.98225 19.9383 2.90823 19.9607 2.83858 19.9933C1.78399 20.4863 1.01089 21.256 0.540463 22.2812C0.0955414 23.2511 -0.0755211 24.461 0.0322562 25.8776C0.0404906 26.1001 0.131866 28.5175 0.304057 30.8872C0.318639 31.0881 0.40871 31.2759 0.556162 31.413C0.703614 31.5502 0.897513 31.6264 1.09887 31.6264H32.902C33.1034 31.6264 33.2973 31.5502 33.4447 31.413C33.5922 31.2759 33.6823 31.0881 33.6968 30.8872ZM32.3784 25.771C32.3776 25.7819 32.3769 25.7929 32.3765 25.8042C32.3757 25.8266 32.3021 27.8486 32.1583 30.033H1.84262C1.69885 27.8486 1.62521 25.8266 1.62435 25.8042C1.62395 25.7932 1.62328 25.7822 1.62249 25.771C1.45282 23.5817 2.03972 22.1784 3.41605 21.4843C5.65846 21.1257 8.16271 20.0839 10.8714 18.3831L16.0378 27.6335C16.1057 27.755 16.2041 27.8566 16.3234 27.9282C16.4426 27.9998 16.5786 28.0389 16.7177 28.0417C16.8567 28.0444 16.9941 28.0108 17.1162 27.944C17.2382 27.8772 17.3406 27.7796 17.4132 27.6609L23.1013 18.3656C25.8209 20.0767 28.3347 21.1246 30.5848 21.4844C31.9612 22.178 32.5481 23.5817 32.3784 25.771ZM24.141 7.56163C24.0943 7.41771 24.0076 7.29007 23.891 7.19364C23.7743 7.09721 23.6327 7.03598 23.4826 7.0171L19.45 6.51015L17.7217 2.83164C17.6573 2.69471 17.5554 2.57891 17.4276 2.49781C17.2999 2.4167 17.1517 2.37363 17.0004 2.37363C16.8491 2.37363 16.701 2.4167 16.5733 2.49781C16.4455 2.57891 16.3435 2.69471 16.2792 2.83164L14.5509 6.51055L10.5183 7.01749C10.3682 7.03637 10.2266 7.09759 10.11 7.194C9.99337 7.29041 9.90662 7.41802 9.85987 7.56191C9.81312 7.70581 9.8083 7.86004 9.84598 8.00657C9.88365 8.1531 9.96226 8.28588 10.0726 8.38938L13.037 11.1698L12.2733 15.1617C12.2449 15.3103 12.2593 15.4639 12.315 15.6046C12.3706 15.7453 12.4652 15.8672 12.5876 15.9561C12.71 16.0451 12.8552 16.0973 13.0062 16.1068C13.1572 16.1162 13.3077 16.0825 13.4403 16.0096L17.0004 14.0491L20.5609 16.0092C20.6934 16.0822 20.844 16.1159 20.995 16.1065C21.146 16.097 21.2912 16.0447 21.4136 15.9558C21.536 15.8669 21.6305 15.7449 21.6862 15.6043C21.7418 15.4636 21.7563 15.31 21.7278 15.1614L20.9642 11.1695L23.9285 8.38905C24.0389 8.28552 24.1174 8.15274 24.155 8.00622C24.1927 7.8597 24.1878 7.70549 24.141 7.56163ZM19.5536 10.3071C19.4555 10.3991 19.3824 10.5143 19.3408 10.6421C19.2993 10.7699 19.2908 10.9062 19.316 11.0382L19.8436 13.795L17.3847 12.4413C17.267 12.3765 17.1348 12.3425 17.0004 12.3425C16.8661 12.3425 16.7339 12.3765 16.6162 12.4413L14.1573 13.795L14.6849 11.0382C14.7101 10.9062 14.7016 10.7699 14.6601 10.6421C14.6185 10.5143 14.5454 10.3991 14.4473 10.3071L12.4 8.38712L15.185 8.03703C15.3183 8.02029 15.4453 7.97011 15.554 7.89116C15.6627 7.81221 15.7497 7.70705 15.8069 7.58547L17.0004 5.0445L18.194 7.585C18.2512 7.70659 18.3382 7.81175 18.4469 7.8907C18.5556 7.96964 18.6826 8.01982 18.8159 8.03657L21.6009 8.38666L19.5536 10.3071Z"
        fill="" />
</svg>