<svg width="34" height="34" viewBox="0 0 34 34" fill="#ffffff" xmlns="http://www.w3.org/2000/svg">
    <path d="M4.25 9.03125H3.1875V10.0938H4.25V9.03125Z" fill="" />
    <path
        d="M18.0625 1.0625C15.9346 1.05838 13.8464 1.63886 12.0259 2.74057C12.0095 2.7151 11.9938 2.68931 11.977 2.66406L10.6724 0.707058L9.60556 1.98726C8.20343 3.66683 7.32772 5.72258 7.08799 7.89732L7.02738 8.44288L4.79737 7.60666C4.49918 7.4946 4.18321 7.43729 3.86466 7.4375H3.71875C3.01451 7.43829 2.33935 7.7184 1.84138 8.21638C1.3434 8.71435 1.06329 9.38951 1.0625 10.0938V11.6875H1.59375C3.21085 11.6866 4.79391 12.1519 6.15325 13.0278L3.56308 17.8382C3.43235 18.0809 3.36686 18.3535 3.373 18.6292C3.37914 18.9049 3.4567 19.1743 3.59811 19.411C3.73951 19.6477 3.93992 19.8437 4.17975 19.9798C4.41957 20.1159 4.69061 20.1875 4.96636 20.1875H6.90625V23.9062C6.90704 24.6105 7.18715 25.2857 7.68513 25.7836C8.1831 26.2816 8.85826 26.5617 9.5625 26.5625H12.75C12.8908 26.5627 13.0259 26.6187 13.1255 26.7183C13.2251 26.8179 13.2811 26.9529 13.2812 27.0938V32.9375H14.3438V27.0938C14.3433 26.6712 14.1752 26.2661 13.8764 25.9673C13.5776 25.6685 13.1725 25.5005 12.75 25.5H9.5625C9.13996 25.4995 8.73485 25.3315 8.43607 25.0327C8.13729 24.7339 7.96922 24.3288 7.96875 23.9062V19.125H4.96636C4.87444 19.125 4.7841 19.1012 4.70415 19.0558C4.62421 19.0104 4.5574 18.9451 4.51027 18.8662C4.46313 18.7873 4.43727 18.6975 4.43523 18.6056C4.43319 18.5137 4.45502 18.4228 4.4986 18.3419L7.04751 13.6082L13.2492 17.6394C14.2071 18.2629 15.3257 18.5945 16.4688 18.5938C17.173 18.593 17.8482 18.3128 18.3461 17.8149C18.8441 17.3169 19.1242 16.6417 19.125 15.9375V15.4062H17.5312C17.119 15.4053 16.7127 15.3088 16.344 15.1245C15.9753 14.9401 15.6543 14.6729 15.4062 14.3437L15.3217 14.231C15.2455 14.1285 15.2085 14.002 15.2176 13.8746C15.2266 13.7472 15.2811 13.6272 15.371 13.5365L16.9199 11.9876C17.1595 11.7481 17.3864 11.4997 17.6009 11.2424C18.0404 11.3731 18.4261 11.6421 18.7007 12.0093C18.9752 12.3766 19.124 12.8227 19.125 13.2812C19.1257 13.5737 19.0655 13.8631 18.9484 14.131L19.922 14.5565C20.0979 14.1544 20.1884 13.7201 20.1875 13.2812C20.1859 12.6604 20.0038 12.0534 19.6633 11.5343C19.3227 11.0151 18.8385 10.6063 18.2697 10.3575C18.5705 9.91549 18.839 9.45221 19.0728 8.97132C19.8129 9.32754 20.4487 9.86833 20.9191 10.5416C21.3895 11.2149 21.6786 11.9979 21.7585 12.8153C21.8385 13.6328 21.7066 14.457 21.3755 15.2086C21.0445 15.9603 20.5255 16.614 19.8684 17.1069L20.5066 17.9564C21.3126 17.3517 21.9486 16.5488 22.3529 15.6258C22.7571 14.7027 22.9158 13.6908 22.8136 12.6883C22.7114 11.6858 22.3517 10.7268 21.7695 9.90433C21.1873 9.08185 20.4024 8.42388 19.4908 7.99427C19.9533 6.74771 20.1892 5.42854 20.1875 4.09896V3.1875H19.0079C16.8206 3.18558 14.6812 3.82846 12.8572 5.03577C12.8008 4.57344 12.6852 4.12028 12.5131 3.68745C14.1822 2.66197 16.1036 2.12098 18.0625 2.125C23.9211 2.125 28.6875 6.89137 28.6875 12.75V13.9727C28.6913 15.3685 28.4182 16.7513 27.8841 18.0409C27.3499 19.3305 26.5652 20.5014 25.5755 21.4857L24.153 22.9082C23.9056 23.1543 23.7094 23.447 23.5759 23.7694C23.4423 24.0918 23.374 24.4375 23.375 24.7865V32.9375H24.4375V24.7865C24.4369 24.5771 24.4779 24.3697 24.558 24.1762C24.6381 23.9828 24.7558 23.8071 24.9043 23.6595L26.3268 22.237C27.4155 21.1542 28.2786 19.8663 28.8662 18.4477C29.4538 17.0292 29.7542 15.5081 29.75 13.9727V12.75C29.75 6.30548 24.507 1.0625 18.0625 1.0625ZM8.14401 8.01463C8.3609 6.04703 9.15321 4.18707 10.4218 2.66747L10.5776 2.48044L11.093 3.25342C11.5963 4.00589 11.855 4.89538 11.8339 5.80041C11.7105 5.90412 11.589 6.0106 11.4694 6.11985L9.1022 8.28979C8.81924 8.55017 8.45134 8.69893 8.06692 8.70838L8.14401 8.01463ZM19.0079 4.25H19.1239C19.0919 6.87597 18.0308 9.38454 16.1686 11.2363L14.6197 12.7852C14.3499 13.0574 14.1866 13.4172 14.1594 13.7994C14.1323 14.1817 14.2431 14.561 14.4717 14.8685L14.5563 14.9812C14.9036 15.4421 15.353 15.8162 15.8691 16.0743C16.3853 16.3324 16.9542 16.4674 17.5312 16.4688H17.9715C17.8612 16.7793 17.6576 17.0481 17.3886 17.2383C17.1196 17.4285 16.7983 17.5309 16.4688 17.5312C15.5313 17.5319 14.6139 17.2599 13.8283 16.7485L6.76663 12.1584C5.37887 11.255 3.7784 10.7313 2.125 10.6398V10.0938C2.12548 9.67121 2.29355 9.26611 2.59233 8.96733C2.89111 8.66855 3.29621 8.50048 3.71875 8.5H3.86466C4.05578 8.49988 4.24535 8.53426 4.42425 8.60149L7.0926 9.60209C7.55155 9.77565 8.04975 9.81808 8.53145 9.72465C9.01315 9.63122 9.45936 9.4056 9.82015 9.07305L12.1874 6.9031C14.0477 5.19461 16.4821 4.24764 19.0079 4.25Z"
        fill="" />
    <path
        d="M21.5335 6.09008L20.9661 6.98838C21.9309 7.59679 22.7429 8.41896 23.3393 9.3913C23.9357 10.3637 24.3004 11.4601 24.4054 12.596C24.5103 13.7318 24.3527 14.8765 23.9445 15.9417C23.5364 17.0069 22.8888 17.9639 22.0518 18.7388C21.2147 19.5137 20.2107 20.0857 19.1173 20.4106C18.0239 20.7355 16.8704 20.8046 15.746 20.6125C14.6216 20.4205 13.5565 19.9724 12.6329 19.3029C11.7094 18.6334 10.9521 17.7606 10.4198 16.7517L9.48047 17.2483C10.0889 18.4012 10.9543 19.3987 12.0098 20.1637C13.0652 20.9287 14.2825 21.4408 15.5675 21.6603C16.8525 21.8797 18.1707 21.8007 19.4203 21.4294C20.6698 21.0581 21.8173 20.4044 22.7739 19.5188C23.7304 18.6332 24.4706 17.5395 24.937 16.3223C25.4034 15.105 25.5836 13.7968 25.4637 12.4987C25.3438 11.2007 24.927 9.94758 24.2455 8.83633C23.564 7.72508 22.6361 6.78545 21.5335 6.09008Z"
        fill="" />
</svg>