<svg width="34" height="34" viewBox="0 0 34 34" fill="#ffffff" xmlns="http://www.w3.org/2000/svg">
    <path
        d="M9.9209 18.4567C9.62765 18.4567 9.38965 18.2192 9.38965 17.9254V14.8437C9.38965 14.5499 9.62765 14.3124 9.9209 14.3124C10.2141 14.3124 10.4521 14.5499 10.4521 14.8437V17.9254C10.4521 18.2192 10.2147 18.4567 9.9209 18.4567Z"
        fill="" />
    <path
        d="M24.0791 19.6876C23.7859 19.6876 23.5479 19.4501 23.5479 19.1563V16.0746C23.5479 15.7808 23.7859 15.5433 24.0791 15.5433C24.3724 15.5433 24.6104 15.7808 24.6104 16.0746V19.1563C24.6104 19.4496 24.3724 19.6876 24.0791 19.6876Z"
        fill="" />
    <path
        d="M10.3367 9.9466C10.2092 9.9466 10.0812 9.90091 9.97917 9.80795C9.76242 9.61032 9.74649 9.27457 9.94411 9.05729C10.3457 8.61635 10.9184 8.36295 11.515 8.36295C11.8083 8.36295 12.0463 8.60041 12.0463 8.8942C12.0463 9.18798 11.8083 9.42545 11.515 9.42545C11.217 9.42545 10.9306 9.55188 10.7293 9.77288C10.6252 9.88763 10.4812 9.9466 10.3367 9.9466Z"
        fill="" />
    <path
        d="M22.4854 25.6371C22.1921 25.6371 21.9541 25.3996 21.9541 25.1058C21.9541 24.812 22.1921 24.5746 22.4854 24.5746C22.7834 24.5746 23.0697 24.4481 23.2711 24.2271C23.4682 24.0114 23.8044 23.9944 24.0217 24.1926C24.2385 24.3902 24.2544 24.726 24.0568 24.9433C23.6541 25.3837 23.0814 25.6371 22.4854 25.6371Z"
        fill="" />
    <path
        d="M22.4854 15.0121H20.5469C20.2536 15.0121 20.0156 14.7746 20.0156 14.4808C20.0156 14.187 20.2536 13.9496 20.5469 13.9496H22.4854C22.7787 13.9496 23.0167 14.187 23.0167 14.4808C23.0167 14.7746 22.7787 15.0121 22.4854 15.0121Z"
        fill="" />
    <path
        d="M17.0002 15.0121H15.0479C14.7546 15.0121 14.5166 14.7746 14.5166 14.4808C14.5166 14.187 14.7546 13.9496 15.0479 13.9496H17.0002C17.2934 13.9496 17.5314 14.187 17.5314 14.4808C17.5314 14.7746 17.2934 15.0121 17.0002 15.0121Z"
        fill="" />
    <path
        d="M17 20.0504C16.7068 20.0504 16.4688 19.813 16.4688 19.5192V14.4808C16.4688 14.187 16.7068 13.9496 17 13.9496C17.2932 13.9496 17.5312 14.187 17.5312 14.4808V19.5192C17.5312 19.813 17.2932 20.0504 17 20.0504Z"
        fill="" />
    <path
        d="M13.4542 20.0504H11.5156C11.2224 20.0504 10.9844 19.813 10.9844 19.5192C10.9844 19.2254 11.2224 18.9879 11.5156 18.9879H13.4542C13.7474 18.9879 13.9854 19.2254 13.9854 19.5192C13.9854 19.813 13.7474 20.0504 13.4542 20.0504Z"
        fill="" />
    <path
        d="M18.9523 20.0504H17C16.7068 20.0504 16.4688 19.813 16.4688 19.5192C16.4688 19.2254 16.7068 18.9879 17 18.9879H18.9523C19.2456 18.9879 19.4836 19.2254 19.4836 19.5192C19.4836 19.813 19.2461 20.0504 18.9523 20.0504Z"
        fill="" />
    <path
        d="M18.9521 20.0504C18.6589 20.0504 18.4209 19.813 18.4209 19.5192C18.4209 19.2254 18.6589 18.9879 18.9521 18.9879C19.5381 18.9879 20.0146 18.5114 20.0146 17.9254C20.0146 17.6317 20.2526 17.3942 20.5459 17.3942C20.8391 17.3942 21.0771 17.6317 21.0771 17.9254C21.0771 19.0974 20.1241 20.0504 18.9521 20.0504Z"
        fill="" />
    <path
        d="M20.5459 18.4567C20.2526 18.4567 20.0146 18.2192 20.0146 17.9254V10.4879C20.0146 10.1942 20.2526 9.9567 20.5459 9.9567C20.8391 9.9567 21.0771 10.1942 21.0771 10.4879V17.9254C21.0771 18.2192 20.8397 18.4567 20.5459 18.4567Z"
        fill="" />
    <path
        d="M13.4541 16.6058C13.1609 16.6058 12.9229 16.3683 12.9229 16.0746C12.9229 14.9026 13.8759 13.9496 15.0479 13.9496C15.3411 13.9496 15.5791 14.187 15.5791 14.4808C15.5791 14.7746 15.3411 15.0121 15.0479 15.0121C14.4619 15.0121 13.9854 15.4886 13.9854 16.0746C13.9854 16.3683 13.7474 16.6058 13.4541 16.6058Z"
        fill="" />
    <path
        d="M13.4541 24.0433C13.1609 24.0433 12.9229 23.8058 12.9229 23.5121V16.0746C12.9229 15.7808 13.1609 15.5433 13.4541 15.5433C13.7474 15.5433 13.9854 15.7808 13.9854 16.0746V23.5121C13.9854 23.8058 13.7474 24.0433 13.4541 24.0433Z"
        fill="" />
    <path
        d="M11.5146 20.0504C10.3427 20.0504 9.38965 19.0974 9.38965 17.9254C9.38965 17.6317 9.62765 17.3942 9.9209 17.3942C10.2141 17.3942 10.4521 17.6317 10.4521 17.9254C10.4521 18.5114 10.9287 18.9879 11.5146 18.9879C11.8079 18.9879 12.0459 19.2254 12.0459 19.5192C12.0459 19.813 11.8084 20.0504 11.5146 20.0504Z"
        fill="" />
    <path
        d="M20.5459 11.0192C20.2526 11.0192 20.0146 10.7817 20.0146 10.4879C20.0146 9.90198 19.5381 9.42545 18.9521 9.42545C18.6589 9.42545 18.4209 9.18798 18.4209 8.8942C18.4209 8.60041 18.6589 8.36295 18.9521 8.36295C20.1241 8.36295 21.0771 9.31601 21.0771 10.4879C21.0771 10.7817 20.8397 11.0192 20.5459 11.0192Z"
        fill="" />
    <path
        d="M18.9521 9.42545H11.5146C11.2214 9.42545 10.9834 9.18798 10.9834 8.8942C10.9834 8.60041 11.2214 8.36295 11.5146 8.36295H18.9521C19.2454 8.36295 19.4834 8.60041 19.4834 8.8942C19.4834 9.18798 19.2459 9.42545 18.9521 9.42545Z"
        fill="" />
    <path
        d="M24.0791 16.6058C23.7859 16.6058 23.5479 16.3683 23.5479 16.0746C23.5479 15.4886 23.0713 15.0121 22.4854 15.0121C22.1921 15.0121 21.9541 14.7746 21.9541 14.4808C21.9541 14.187 22.1921 13.9496 22.4854 13.9496C23.6573 13.9496 24.6104 14.9026 24.6104 16.0746C24.6104 16.3683 24.3724 16.6058 24.0791 16.6058Z"
        fill="" />
    <path
        d="M15.0479 25.6371C13.8759 25.6371 12.9229 24.684 12.9229 23.5121C12.9229 23.2183 13.1609 22.9808 13.4541 22.9808C13.7474 22.9808 13.9854 23.2183 13.9854 23.5121C13.9854 24.098 14.4619 24.5746 15.0479 24.5746C15.3411 24.5746 15.5791 24.812 15.5791 25.1058C15.5791 25.3996 15.3411 25.6371 15.0479 25.6371Z"
        fill="" />
    <path
        d="M22.4854 25.6371H15.0479C14.7546 25.6371 14.5166 25.3996 14.5166 25.1058C14.5166 24.812 14.7546 24.5746 15.0479 24.5746H22.4854C22.7786 24.5746 23.0166 24.812 23.0166 25.1058C23.0166 25.3996 22.7786 25.6371 22.4854 25.6371Z"
        fill="" />
    <path
        d="M20.2544 28.8033C20.1477 28.8033 20.0404 28.7709 19.9469 28.7045L15.5024 25.5382C15.2634 25.3682 15.2076 25.0362 15.3781 24.7972C15.5481 24.5576 15.8801 24.5023 16.1192 24.6728L20.5636 27.8391C20.8027 28.0091 20.8585 28.3411 20.688 28.5802C20.5844 28.7257 20.4207 28.8033 20.2544 28.8033Z"
        fill="" />
    <path
        d="M23.6367 25.1058C23.5725 25.1058 23.5076 25.0947 23.445 25.0702C22.9137 24.8641 22.324 24.7685 21.6987 24.667C20.6947 24.5034 19.6561 24.335 18.7694 23.6826C18.533 23.5089 18.482 23.1763 18.6563 22.9404C18.83 22.704 19.1625 22.653 19.399 22.8267C20.0795 23.3267 20.9491 23.4685 21.8693 23.6178C22.5206 23.7235 23.1942 23.8329 23.8285 24.0789C24.1021 24.1846 24.2381 24.4927 24.1319 24.7663C24.0506 24.9772 23.8498 25.1058 23.6367 25.1058Z"
        fill="" />
    <path
        d="M23.3037 26.8828C23.0105 26.8828 22.7725 26.6454 22.7725 26.3516C22.7725 26.0578 23.0105 25.8203 23.3037 25.8203C23.5842 25.8203 23.6522 25.5744 23.6666 25.4995C23.6809 25.4246 23.7064 25.1717 23.445 25.0697C23.1714 24.964 23.036 24.6558 23.1422 24.3822C23.2485 24.1092 23.555 23.9726 23.8296 24.08C24.4794 24.3323 24.8417 24.9969 24.711 25.695C24.5792 26.3941 24.0007 26.8828 23.3037 26.8828Z"
        fill="" />
    <path
        d="M19.0833 23.7856C18.9733 23.7856 18.8623 23.7516 18.7672 23.681C18.2327 23.2841 18.0319 22.6142 18.2545 21.9746C18.4776 21.3339 19.0503 20.9142 19.7165 20.9546C20.0098 20.9636 20.2398 21.2091 20.2308 21.5018C20.2217 21.7956 19.9736 22.0447 19.683 22.0161C19.6777 22.0161 19.6724 22.0161 19.6671 22.0161C19.3877 22.0161 19.2835 22.2509 19.258 22.3242C19.232 22.3985 19.1661 22.6536 19.4009 22.8278C19.6363 23.0026 19.6857 23.3357 19.5109 23.571C19.4063 23.7118 19.2458 23.7856 19.0833 23.7856Z"
        fill="" />
    <path
        d="M21.452 22.0729C21.4461 22.0729 21.4408 22.0729 21.435 22.0724L19.6835 22.0166C19.3902 22.007 19.1602 21.7621 19.1692 21.4689C19.1788 21.1756 19.4311 20.9334 19.7169 20.9552L21.4685 21.0109C21.7617 21.0205 21.9917 21.2654 21.9827 21.5587C21.9737 21.8461 21.7373 22.0729 21.452 22.0729Z"
        fill="" />
    <path
        d="M26.6755 21.9794C26.6559 21.9794 26.6362 21.9783 26.616 21.9762L25.154 21.8136C24.8624 21.7812 24.6525 21.5188 24.6849 21.2271C24.7173 20.935 24.9808 20.7294 25.2714 20.7575L26.7334 20.9201C27.0251 20.953 27.2349 21.2155 27.2025 21.5066C27.1728 21.7786 26.9428 21.9794 26.6755 21.9794Z"
        fill="" />
    <path
        d="M21.6188 22.0755C21.5577 22.0755 21.4966 22.0745 21.4344 22.0724C21.1412 22.0633 20.9111 21.8179 20.9202 21.5252C20.9292 21.2314 21.1778 20.986 21.4679 21.0109C21.9944 21.0269 22.5224 20.9535 23.0824 20.8749C23.7857 20.7766 24.5141 20.6746 25.2701 20.7575C25.5617 20.7894 25.7726 21.0518 25.7407 21.3435C25.7089 21.6351 25.4443 21.8439 25.1548 21.8142C24.53 21.7456 23.8984 21.8338 23.229 21.9279C22.7089 22.0001 22.1713 22.0755 21.6188 22.0755Z"
        fill="" />
    <path
        d="M23.2054 29.7511C22.0431 29.7511 20.911 29.3914 19.9468 28.7045C19.7077 28.5345 19.6519 28.203 19.8224 27.9634C19.9919 27.7238 20.3245 27.6686 20.5635 27.8391C21.5432 28.5366 22.7363 28.8198 23.9242 28.6317C24.2169 28.5876 24.4863 28.7842 24.5314 29.0743C24.5771 29.3643 24.379 29.6363 24.0889 29.682C23.7941 29.7282 23.4987 29.7511 23.2054 29.7511Z"
        fill="" />
    <path
        d="M24.0059 29.6884C23.7488 29.6884 23.523 29.5014 23.4821 29.2395C23.4364 28.9494 23.6346 28.6774 23.9247 28.6317L29.6685 27.7307C29.9565 27.6877 30.2301 27.8832 30.2758 28.1733C30.3214 28.4633 30.1233 28.7353 29.8332 28.781L24.0894 29.682C24.0612 29.6863 24.0336 29.6884 24.0059 29.6884Z"
        fill="" />
    <path
        d="M29.7499 23.4627C29.6936 23.4627 29.6357 23.4536 29.5794 23.4345C29.0614 23.2587 28.6167 22.9723 28.1864 22.6945C27.6632 22.3571 27.1686 22.0384 26.615 21.9757C26.3233 21.9422 26.114 21.6792 26.147 21.3881C26.1799 21.097 26.445 20.8898 26.7345 20.9196C27.5351 21.0104 28.1593 21.4126 28.7623 21.8014C29.1554 22.0548 29.5262 22.2944 29.9204 22.4278C30.1983 22.5223 30.347 22.8236 30.253 23.1019C30.1781 23.3229 29.9714 23.4627 29.7499 23.4627Z"
        fill="" />
    <path
        d="M29.75 28.7874C29.4568 28.7874 29.2188 28.5499 29.2188 28.2561V22.9314C29.2188 22.6376 29.4568 22.4001 29.75 22.4001C30.0432 22.4001 30.2812 22.6376 30.2812 22.9314V28.2556C30.2812 28.5494 30.0432 28.7874 29.75 28.7874Z"
        fill="" />
    <path
        d="M18.188 9.42544C18.0813 9.42544 17.9739 9.39303 17.8804 9.32663L13.436 6.16038C13.1969 5.99038 13.1412 5.65835 13.3117 5.41928C13.4817 5.17969 13.8132 5.12444 14.0528 5.29497L18.4972 8.46122C18.7363 8.63122 18.7921 8.96325 18.6215 9.20232C18.5174 9.34841 18.3543 9.42544 18.188 9.42544Z"
        fill="" />
    <path
        d="M14.916 11.2769C14.8066 11.2769 14.6966 11.2434 14.6021 11.1738C13.9215 10.6739 13.0519 10.532 12.1317 10.3828C11.4804 10.277 10.8068 10.1676 10.1725 9.92163C9.8989 9.81591 9.7629 9.50779 9.86915 9.2342C9.9754 8.96007 10.2846 8.82566 10.5566 8.93085C11.0878 9.13698 11.6775 9.2326 12.3028 9.33407C13.3069 9.4977 14.3455 9.6661 15.2321 10.3185C15.4685 10.4922 15.5195 10.8248 15.3453 11.0606C15.2406 11.2014 15.0791 11.2769 14.916 11.2769Z"
        fill="" />
    <path
        d="M10.3628 9.95668C10.2991 9.95668 10.2337 9.94552 10.1705 9.92055C9.5208 9.66821 9.15849 9.00361 9.28918 8.30555C9.4204 7.60643 9.99893 7.11768 10.6959 7.11768C10.9892 7.11768 11.2272 7.35514 11.2272 7.64893C11.2272 7.94271 10.9892 8.18018 10.6959 8.18018C10.4154 8.18018 10.3474 8.42615 10.3331 8.50105C10.3187 8.57596 10.2932 8.82883 10.5546 8.93083C10.8282 9.03655 10.9637 9.34468 10.8574 9.61827C10.7767 9.82811 10.5759 9.95668 10.3628 9.95668Z"
        fill="" />
    <path
        d="M14.333 13.0464C14.3165 13.0464 14.3001 13.0464 14.2831 13.0454C13.9898 13.0363 13.7598 12.7909 13.7688 12.4982C13.7784 12.2044 14.0275 11.9558 14.3165 11.9839C14.5944 11.993 14.7155 11.7507 14.7415 11.6758C14.7676 11.6014 14.8334 11.3464 14.5986 11.1722C14.3633 10.9974 14.3139 10.6643 14.4887 10.429C14.6634 10.1947 14.9965 10.1453 15.2319 10.3195C15.7663 10.7164 15.9671 11.3863 15.7445 12.0259C15.5278 12.6501 14.9769 13.0464 14.333 13.0464Z"
        fill="" />
    <path
        d="M14.3002 13.0459C14.2943 13.0459 14.289 13.0459 14.2832 13.0454L12.5311 12.9896C12.2379 12.98 12.0078 12.7351 12.0169 12.4419C12.0264 12.1486 12.2798 11.9032 12.5646 11.9281L14.3166 11.9839C14.6099 11.9935 14.8399 12.2384 14.8309 12.5316C14.8219 12.8191 14.586 13.0459 14.3002 13.0459Z"
        fill="" />
    <path
        d="M8.78784 13.2457C8.76818 13.2457 8.74853 13.2446 8.72834 13.2425L7.26634 13.0799C6.97468 13.047 6.76484 12.7845 6.79725 12.4934C6.82965 12.2012 7.09262 11.9951 7.38375 12.0238L8.84575 12.1863C9.1374 12.2193 9.34725 12.4817 9.31484 12.7728C9.28509 13.0448 9.05453 13.2457 8.78784 13.2457Z"
        fill="" />
    <path
        d="M9.30933 13.2722C9.11808 13.2722 8.9247 13.2632 8.72973 13.2419C8.43808 13.2101 8.22717 12.9476 8.25905 12.656C8.29092 12.3638 8.55283 12.155 8.84501 12.1853C9.46976 12.2543 10.1009 12.1656 10.7703 12.0716C11.3493 11.9914 11.9507 11.9069 12.5654 11.9271C12.8586 11.9361 13.0886 12.1816 13.0796 12.4743C13.0706 12.7681 12.8235 13.0146 12.5319 12.9885C12.0097 12.9742 11.4774 13.0459 10.9174 13.1245C10.3952 13.1978 9.8597 13.2722 9.30933 13.2722Z"
        fill="" />
    <path
        d="M13.7449 6.2592C13.6382 6.2592 13.5308 6.2268 13.4373 6.16039C12.4577 5.46286 11.264 5.17917 10.0767 5.36776C9.78288 5.41026 9.5146 5.21476 9.46944 4.92523C9.42375 4.63517 9.62191 4.36317 9.91197 4.31748C11.3772 4.08798 12.8466 4.43489 14.0536 5.29498C14.2927 5.46498 14.3484 5.79648 14.1779 6.03608C14.0743 6.18217 13.9107 6.2592 13.7449 6.2592Z"
        fill="" />
    <path
        d="M4.24925 6.27566C3.99213 6.27566 3.76635 6.08866 3.72544 5.82676C3.67922 5.5367 3.87738 5.2647 4.16744 5.21901L9.91132 4.31801C10.2003 4.27604 10.4728 4.47048 10.5185 4.76054C10.5642 5.0506 10.3661 5.3226 10.076 5.36829L4.33213 6.26929C4.3045 6.27354 4.27635 6.27566 4.24925 6.27566Z"
        fill="" />
    <path
        d="M7.32598 13.0831C7.3058 13.0831 7.28561 13.082 7.26542 13.0799C6.46483 12.989 5.84061 12.5869 5.23764 12.198C4.84451 11.9446 4.4737 11.705 4.07951 11.5717C3.80167 11.4771 3.65292 11.1759 3.74695 10.8975C3.84151 10.6207 4.1438 10.4704 4.42111 10.565C4.93908 10.7408 5.38373 11.0271 5.81405 11.305C6.33733 11.6423 6.83192 11.9611 7.38548 12.0238C7.67714 12.0572 7.88645 12.3202 7.85351 12.6113C7.82217 12.8828 7.59267 13.0831 7.32598 13.0831Z"
        fill="" />
    <path
        d="M4.25 11.5999C3.95675 11.5999 3.71875 11.3624 3.71875 11.0686V5.74442C3.71875 5.45063 3.95675 5.21317 4.25 5.21317C4.54325 5.21317 4.78125 5.45063 4.78125 5.74442V11.0686C4.78125 11.3624 4.54325 11.5999 4.25 11.5999Z"
        fill="" />
</svg>