<svg width="34" height="34" viewBox="0 0 34 34" fill="white" xmlns="http://www.w3.org/2000/svg">
    <path
        d="M23.0938 5.63124C23.096 5.27545 22.9975 4.9263 22.8097 4.62411C22.6219 4.32192 22.3524 4.07903 22.0324 3.92348C21.7124 3.76793 21.355 3.70607 21.0013 3.74504C20.6476 3.78402 20.3122 3.92224 20.0338 4.14374C19.8566 3.88532 19.6186 3.67452 19.3406 3.52998C19.0626 3.38543 18.7533 3.31159 18.44 3.31499C18.025 3.3187 17.623 3.46078 17.2979 3.71874C17.123 3.45764 16.8856 3.2445 16.6072 3.0988C16.3288 2.9531 16.0183 2.87949 15.7041 2.88468C15.2814 2.88679 14.8717 3.03085 14.5407 3.29374C14.3115 2.96033 13.9819 2.70871 13.5999 2.57544C13.2179 2.44217 12.8033 2.4342 12.4165 2.55268C12.0296 2.67117 11.6906 2.90993 11.4488 3.23428C11.2069 3.55863 11.0748 3.95166 11.0716 4.35624V7.01249C10.7817 7.03889 10.5039 7.14117 10.2661 7.30903C10.0283 7.4769 9.83887 7.70443 9.71692 7.96874C8.30661 8.30203 7.01096 9.00607 5.964 10.008C4.91704 11.01 4.15679 12.2735 3.7619 13.6678C3.36701 15.0621 3.35182 16.5366 3.71789 17.9388C4.08397 19.3409 4.81802 20.6198 5.84411 21.6431L14.8754 30.6478C15.4398 31.2097 16.2039 31.5251 17.0004 31.5251C17.7968 31.5251 18.5609 31.2097 19.1254 30.6478L28.1566 21.6431C29.2534 20.5487 30.0147 19.1637 30.3511 17.6512C30.6874 16.1387 30.5847 14.5616 30.055 13.1055C29.5254 11.6494 28.5909 10.3749 27.3614 9.43192C26.1319 8.48897 24.6587 7.91682 23.115 7.7828L23.0938 5.63124ZM21.1972 4.78124C21.4184 4.78124 21.6306 4.86911 21.787 5.02553C21.9434 5.18195 22.0313 5.39409 22.0313 5.6153V7.7403C22.0313 7.96151 21.9434 8.17366 21.787 8.33007C21.6306 8.48649 21.4184 8.57436 21.1972 8.57436C20.976 8.57436 20.7639 8.48649 20.6075 8.33007C20.451 8.17366 20.3632 7.96151 20.3632 7.7403V5.6153C20.3632 5.39409 20.451 5.18195 20.6075 5.02553C20.7639 4.86911 20.976 4.78124 21.1972 4.78124ZM18.4613 4.36155C18.5713 4.36085 18.6803 4.38191 18.7821 4.42351C18.8839 4.46511 18.9765 4.52644 19.0545 4.60396C19.1325 4.68148 19.1944 4.77366 19.2367 4.8752C19.2789 4.97674 19.3007 5.08563 19.3007 5.19561V7.71905C19.2839 7.92945 19.1885 8.1258 19.0334 8.26899C18.8783 8.41219 18.675 8.4917 18.464 8.4917C18.2529 8.4917 18.0496 8.41219 17.8945 8.26899C17.7394 8.1258 17.644 7.92945 17.6272 7.71905V5.21155C17.6272 5.10202 17.6488 4.99356 17.6907 4.89237C17.7326 4.79118 17.7941 4.69923 17.8715 4.62178C17.949 4.54433 18.0409 4.48289 18.1421 4.44098C18.2433 4.39906 18.3518 4.37749 18.4613 4.37749V4.36155ZM15.7307 3.93655C15.8411 3.93654 15.9504 3.95846 16.0523 4.00104C16.1542 4.04362 16.2466 4.10601 16.3242 4.18459C16.4018 4.26317 16.463 4.35637 16.5043 4.45879C16.5456 4.56122 16.5661 4.67082 16.5647 4.78124V7.27811C16.2435 7.08635 15.8763 6.98536 15.5022 6.98593H14.8754V4.78124C14.876 4.67034 14.8988 4.5607 14.9424 4.45871C14.9859 4.35673 15.0494 4.26445 15.129 4.18728C15.2086 4.11011 15.3029 4.0496 15.4062 4.00928C15.5095 3.96897 15.6198 3.94966 15.7307 3.95249V3.93655ZM12.9947 3.51686C13.1043 3.51894 13.2123 3.54257 13.3127 3.58641C13.4131 3.63025 13.5039 3.69345 13.5799 3.77238C13.6559 3.85131 13.7155 3.94444 13.7555 4.04645C13.7955 4.14845 13.815 4.25733 13.8129 4.36686V6.99124H12.1607V4.36686C12.1607 4.14566 12.2485 3.93351 12.405 3.77709C12.5614 3.62068 12.7735 3.5328 12.9947 3.5328V3.51686ZM11.6294 8.0378H15.5182C15.7644 8.08094 15.9876 8.20953 16.1484 8.40095C16.3092 8.59237 16.3973 8.83436 16.3973 9.08436C16.3973 9.33436 16.3092 9.57636 16.1484 9.76778C15.9876 9.9592 15.7644 10.0878 15.5182 10.1309H13.9244C13.7835 10.1309 13.6484 10.1869 13.5488 10.2865C13.4491 10.3862 13.3932 10.5213 13.3932 10.6622C13.3932 10.8031 13.4491 10.9382 13.5488 11.0378C13.6484 11.1375 13.7835 11.1934 13.9244 11.1934H15.3588C15.6397 11.4381 15.8474 11.7556 15.9589 12.111C16.0705 12.4663 16.0816 12.8456 15.991 13.2069C15.9609 13.3442 15.9865 13.4879 16.0622 13.6064C16.1379 13.7249 16.2575 13.8086 16.3947 13.8391C16.4631 13.8547 16.5339 13.8567 16.6031 13.8448C16.6722 13.833 16.7383 13.8076 16.7976 13.77C16.8569 13.7325 16.9081 13.6836 16.9484 13.6261C16.9887 13.5687 17.0172 13.5038 17.0322 13.4353C17.1383 13.0075 17.149 12.5616 17.0636 12.1292C16.9783 11.6968 16.7989 11.2885 16.5382 10.9331C16.8205 10.775 17.0629 10.5545 17.2471 10.2884C17.4312 10.0223 17.5521 9.71772 17.6007 9.3978C17.9618 9.58778 18.3751 9.65478 18.7778 9.58863C19.1804 9.52247 19.5505 9.32678 19.8319 9.03124C20.0087 9.21524 20.2206 9.36181 20.4552 9.4622C20.6897 9.56259 20.9421 9.61477 21.1972 9.61561C21.4874 9.61568 21.7733 9.54647 22.0313 9.41374V12.8669C22.0342 13.3072 22.0094 13.7472 21.9569 14.1844C21.8825 14.8484 21.7125 15.6666 21.5372 16.5378C21.2892 17.6607 21.1118 18.798 21.006 19.9431H13.5685C13.5685 18.4237 12.5591 16.7556 11.486 15.1619C10.7522 14.0182 10.3818 12.6791 10.4235 11.3209C10.3969 8.05374 10.705 8.05374 11.6294 8.05374V8.0378ZM6.61442 10.8641C7.39831 10.0781 8.35797 9.4899 9.4141 9.14811C9.34834 9.87219 9.32174 10.5993 9.33442 11.3262C9.29042 12.8981 9.72788 14.4459 10.5882 15.7622C11.2044 16.6706 12.4847 18.5566 12.4847 19.975C12.2064 20.0386 11.9578 20.1944 11.7794 20.4172C11.6009 20.6401 11.5031 20.9167 11.5019 21.2022V25.7656L6.61442 20.8781C5.29277 19.5501 4.55081 17.7527 4.55081 15.8791C4.55081 14.0054 5.29277 12.208 6.61442 10.88V10.8641ZM18.3816 29.8987C18.0144 30.2634 17.5179 30.468 17.0004 30.468C16.4828 30.468 15.9863 30.2634 15.6191 29.8987L12.5644 26.8441V21.2181C12.5644 21.166 12.5851 21.116 12.622 21.0791C12.6589 21.0423 12.7088 21.0216 12.761 21.0216H21.7816C21.8333 21.0229 21.8825 21.044 21.9191 21.0806C21.9557 21.1172 21.9768 21.1664 21.9782 21.2181V26.3287L18.3816 29.8987ZM27.3863 10.88C28.7128 12.2087 29.4578 14.0095 29.4578 15.887C29.4578 17.7645 28.7128 19.5653 27.3863 20.8941L23.0141 25.2662V21.2181C23.0123 20.9364 22.916 20.6634 22.7407 20.4429C22.5655 20.2223 22.3213 20.0669 22.0472 20.0016C22.1604 18.9136 22.3378 17.8333 22.5785 16.7662C22.7591 15.8737 22.9344 15.0344 23.0141 14.3278C23.0682 13.848 23.0948 13.3656 23.0938 12.8828V8.85061C24.717 9.00779 26.2347 9.72535 27.3863 10.88Z"
        fill="" />
</svg>