<svg width="34" height="34" viewBox="0 0 34 34" fill="#ffffff" xmlns="http://www.w3.org/2000/svg">
    <g clip-path="url(#clip0_862_827)">
        <path
            d="M14.4102 24.2383C14.7767 24.2383 15.0742 23.9408 15.0742 23.5742C15.0742 23.2077 14.7767 22.9102 14.4102 22.9102C14.0436 22.9102 13.7461 23.2077 13.7461 23.5742C13.7461 23.9408 14.0436 24.2383 14.4102 24.2383Z"
            fill="" />
        <path
            d="M0.260956 25.7703L8.22972 33.7391C8.48912 33.9985 8.90934 33.9985 9.16874 33.7391L13.5516 29.3563C13.811 29.0969 13.811 28.6766 13.5516 28.4172L13.357 28.2227H22.9294C23.7701 28.2227 24.5724 27.9075 25.1911 27.3332L33.2473 19.7829C34.0185 19.0667 34.274 17.9289 33.8828 16.952C33.6 16.2449 33.0226 15.7038 32.2989 15.4675C31.5749 15.2307 30.7897 15.3266 30.1438 15.7303C30.1397 15.7329 28.3552 16.9038 28.3552 16.9038C28.3431 13.3041 26.1675 9.4655 23.1727 7.73738C23.3436 7.54101 23.478 7.30859 23.5636 7.04841C23.9063 6.00588 23.3366 4.87749 22.2926 4.53275C22.2599 4.52186 22.2272 4.51226 22.1945 4.50214L23.9039 1.43137C24.0023 1.25472 24.015 1.04279 23.9379 0.856019C23.8611 0.668992 23.7034 0.5271 23.5091 0.470811C22.2835 0.114395 21.0096 -0.0664062 19.7227 -0.0664062C18.4361 -0.0664062 17.1619 0.114395 15.9362 0.470551C15.7419 0.5271 15.5842 0.668733 15.5072 0.85576C15.4304 1.04279 15.4428 1.25472 15.5414 1.43137L17.2509 4.50214C17.2177 4.51252 17.1845 4.52238 17.1513 4.53327C16.1087 4.87749 15.5393 6.00562 15.882 7.04893C15.9676 7.30859 16.103 7.54023 16.2745 7.73686C13.2351 9.49066 11.0899 13.3687 11.0899 16.9336C11.0899 17.0309 11.0922 17.1269 11.0953 17.2221C9.90596 17.5466 8.80014 18.1377 7.87019 18.952L5.85206 20.7177L5.5828 20.4485C5.3234 20.1891 4.90317 20.1891 4.64377 20.4485L0.260956 24.8313C0.00155631 25.0907 0.00155631 25.5109 0.260956 25.7703ZM17.1217 1.53954C17.9725 1.35484 18.8441 1.26172 19.7227 1.26172C20.6013 1.26172 21.4729 1.35484 22.3239 1.53954L20.8441 4.19761C20.098 4.09359 19.3468 4.09359 18.6016 4.19761L17.1217 1.53954ZM17.5658 5.79499C18.9284 5.34908 20.414 5.31536 21.8778 5.79447C22.2261 5.90939 22.4163 6.28603 22.3019 6.63363C22.2158 6.89536 21.9823 7.07305 21.7118 7.08888C20.4023 6.67254 19.0423 6.67176 17.7333 7.08758C17.7333 7.08758 17.7333 7.08758 17.7331 7.08758C17.4602 7.07046 17.2286 6.89199 17.1435 6.63389C17.0291 6.28577 17.2192 5.90913 17.5658 5.79499ZM17.9331 8.42141C19.0846 8.00663 20.2775 7.99677 21.4319 8.3934C24.5172 9.45434 27.0274 13.2854 27.0274 16.9336C27.0274 17.2428 27.0079 17.5375 26.9695 17.813L23.7776 19.9071C23.2835 19.2949 22.5346 18.9258 21.7149 18.9258H20.3867V18.1476C21.1598 17.8734 21.7149 17.1352 21.7149 16.2696C21.7149 15.171 20.8212 14.2774 19.7227 14.2774C19.3567 14.2774 19.0586 13.9796 19.0586 13.6133C19.0586 13.247 19.3567 12.9492 19.7227 12.9492C19.958 12.9492 20.2062 13.0693 20.441 13.2963C20.7045 13.5513 21.125 13.5443 21.38 13.281C21.635 13.0175 21.628 12.597 21.3644 12.342C21.0275 12.0157 20.6902 11.8312 20.3867 11.7306V10.957C20.3867 10.5903 20.0895 10.293 19.7227 10.293C19.3559 10.293 19.0586 10.5903 19.0586 10.957V11.7352C18.2859 12.0094 17.7305 12.7477 17.7305 13.6133C17.7305 14.7119 18.6241 15.6055 19.7227 15.6055C20.089 15.6055 20.3867 15.9033 20.3867 16.2696C20.3867 16.6358 20.089 16.9336 19.7227 16.9336C19.4389 16.9336 19.1328 16.7551 18.8604 16.4312C18.6244 16.1505 18.2055 16.1142 17.9248 16.3502C17.6441 16.5863 17.6078 17.0052 17.8438 17.2859C18.1987 17.7082 18.6163 18.0023 19.0586 18.1507V18.9258H18.8376C18.5113 18.9258 18.3647 18.7131 18.1349 18.5645C16.7318 17.5129 14.9938 16.9336 13.2408 16.9336C12.9666 16.9336 12.6919 16.9479 12.4185 16.9756C12.4185 16.9616 12.418 16.9479 12.418 16.9336C12.418 13.3365 14.8921 9.51815 17.9331 8.42141ZM8.74488 19.9512C9.9926 18.8586 11.5959 18.2617 13.2408 18.2617C14.7085 18.2617 16.1635 18.7466 17.3375 19.6267C17.5069 19.7258 17.9785 20.2539 18.8373 20.2539H21.7149C22.4708 20.2539 23.043 20.8685 23.043 21.5821C23.043 22.3143 22.4472 22.9102 21.7149 22.9102H17.0664C16.6996 22.9102 16.4024 23.2075 16.4024 23.5742C16.4024 23.941 16.6996 24.2383 17.0664 24.2383H21.7149C23.1794 24.2383 24.3711 23.0466 24.3711 21.5821C24.3711 21.4298 24.3576 21.2796 24.3322 21.1317L30.8533 16.8532C31.1635 16.6615 31.5399 16.6166 31.8865 16.7297C32.2351 16.8439 32.5134 17.1046 32.6496 17.4454C32.8413 17.9237 32.7209 18.4594 32.3412 18.8119L24.2853 26.362C23.9154 26.7055 23.4339 26.8946 22.9294 26.8946H12.0289L6.79342 21.6588L8.74488 19.9512ZM5.11329 21.857L12.143 28.8868L8.69923 32.3305L1.6695 25.3008L5.11329 21.857Z"
            fill="" />
    </g>
    <defs>
        <clipPath id="clip0_862_827">
            <rect width="34" height="34" fill="" />
        </clipPath>
    </defs>
</svg>