<svg width="34" height="34" viewBox="0 0 34 34" fill="#ffffff" xmlns="http://www.w3.org/2000/svg">
    <path
        d="M29.6905 19.9813H26.2956C26.3791 19.6651 26.413 19.3352 26.3938 19.0037C26.3033 17.4498 25.0646 16.1972 23.5122 16.0904C21.7417 15.9687 20.1884 17.4094 20.1884 19.1882C20.1884 19.4593 20.2229 19.7252 20.2901 19.9812L4.30959 19.9813C3.94288 19.9813 3.64551 20.2787 3.64551 20.6454V31.5321C3.64551 32.8928 4.75254 33.9999 6.11325 33.9999L20.3063 33.9998C20.673 33.9998 20.9704 33.7024 20.9704 33.3357C20.9704 32.969 20.673 32.6716 20.3063 32.6716H17.6642V28.6143C17.6642 28.049 16.9719 27.7435 16.5541 28.1219C16.2292 28.4163 15.8003 28.5817 15.3618 28.5817C14.3826 28.5817 13.5619 27.7378 13.5853 26.7604C13.6086 25.7996 14.4444 25.0054 15.4045 25.0284C15.8602 25.0389 16.2377 25.2326 16.5855 25.5113C17.0119 25.8535 17.6643 25.5411 17.6643 24.9948V21.3094H21.335C21.8698 21.3094 22.1879 20.6786 21.8675 20.2485C21.6379 19.9403 21.5166 19.5737 21.5166 19.1881C21.5166 18.1687 22.4055 17.3447 23.4211 17.4154C24.3082 17.4764 25.0162 18.1924 25.0679 19.0808C25.0926 19.506 24.9724 19.9099 24.72 20.2485C24.3999 20.6784 24.7175 21.3094 25.2526 21.3094H29.0266V31.5321C29.0266 32.1604 28.5153 32.6716 27.887 32.6716H26.1744C25.8077 32.6716 25.5103 32.969 25.5103 33.3357C25.5103 33.7024 25.8077 33.9998 26.1744 33.9998H27.887C29.2477 33.9998 30.3547 32.8928 30.3547 31.5321V20.6454C30.3546 20.2787 30.0573 19.9813 29.6905 19.9813ZM16.3359 32.6718H6.11331C5.48496 32.6718 4.97374 32.1606 4.97374 31.5322V21.3095H16.3359V23.8547C15.9776 23.7365 15.595 23.6855 15.2183 23.7026C13.5497 23.7769 12.2146 25.2179 12.2577 26.8835C12.2979 28.5931 13.7734 29.9711 15.4801 29.9076C15.7704 29.8964 16.06 29.8456 16.3359 29.7546V32.6718Z" />
    <path
        d="M9.95215 11.7542C9.65956 11.9015 9.38974 12.0957 9.15346 12.3319C7.9423 13.5431 7.94449 15.5161 9.15837 16.7301C10.3723 17.944 12.3453 17.9462 13.5566 16.735C13.7928 16.4987 13.987 16.229 14.1344 15.9364L16.5301 18.3321C16.7858 18.5877 17.2135 18.5877 17.4693 18.3321L20.5345 15.267C20.9134 14.8879 20.6903 14.2176 20.1608 14.1402C19.7805 14.0848 19.4354 13.9113 19.1627 13.6385C18.4411 12.917 18.4886 11.7057 19.2567 11.0376C19.9274 10.454 20.9343 10.4605 21.5985 11.0524C21.9163 11.3357 22.1168 11.7061 22.1781 12.1237C22.2558 12.6525 22.9257 12.8758 23.3048 12.4967L26.4428 9.35874C26.6983 9.10327 26.6982 8.67514 26.4428 8.41953L18.7448 0.721661C18.7448 0.721661 18.7448 0.721661 18.7448 0.721661C17.7826 -0.240465 16.217 -0.240531 15.2548 0.721661L7.5568 8.41966C7.29747 8.67899 7.29747 9.09949 7.5568 9.35888L9.95215 11.7542ZM16.194 1.66081C16.6382 1.21647 17.3614 1.21647 17.8057 1.66081L25.0341 8.88924L23.1029 10.8204C22.9385 10.5383 22.7296 10.2813 22.4822 10.0608C21.3203 9.02544 19.559 9.01455 18.3851 10.0356C17.046 11.2006 16.965 13.319 18.2237 14.5777C18.4154 14.7695 18.6278 14.9333 18.8565 15.0667L16.9998 16.9234L14.268 14.1916C13.8682 13.792 13.1629 14.0663 13.135 14.6285C13.1134 15.0692 12.9295 15.4837 12.6175 15.7958C11.9241 16.4891 10.7935 16.487 10.0976 15.7909C9.40149 15.0948 9.39923 13.9644 10.0927 13.2711C10.4048 12.9589 10.8193 12.7753 11.26 12.7539C11.8229 12.7266 12.0971 12.0207 11.6974 11.6209L8.96559 8.8891L16.194 1.66081Z" />
    <path
        d="M23.8836 33.0816C23.6551 32.5326 22.8451 32.5525 22.6454 33.1122C22.4424 33.6805 23.0739 34.2087 23.5977 33.913C23.8867 33.7498 24.0091 33.3878 23.8836 33.0816Z" />
</svg>