<svg width="34" height="34" viewBox="0 0 34 34" fill="#ffffff" xmlns="http://www.w3.org/2000/svg">
    <path
        d="M24.9688 9.03125C24.9688 7.45518 24.5014 5.91451 23.6258 4.60405C22.7502 3.2936 21.5056 2.27222 20.0495 1.66909C18.5934 1.06595 16.9912 0.908145 15.4454 1.21562C13.8996 1.5231 12.4797 2.28205 11.3652 3.3965C10.2508 4.51095 9.49185 5.93084 9.18437 7.47663C8.87689 9.02241 9.0347 10.6247 9.63784 12.0808C10.241 13.5369 11.2623 14.7814 12.5728 15.657C13.8833 16.5326 15.4239 17 17 17C19.1127 16.9976 21.1382 16.1573 22.6321 14.6634C24.126 13.1695 24.9664 11.144 24.9688 9.03125ZM17 15.9375C15.6341 15.9375 14.2988 15.5325 13.1631 14.7736C12.0274 14.0147 11.1422 12.9361 10.6195 11.6742C10.0967 10.4122 9.95998 9.02359 10.2265 7.68391C10.4929 6.34423 11.1507 5.11365 12.1165 4.1478C13.0824 3.18194 14.313 2.52418 15.6527 2.25771C16.9923 1.99123 18.381 2.12799 19.6429 2.65071C20.9049 3.17343 21.9835 4.05862 22.7423 5.19435C23.5012 6.33007 23.9063 7.66533 23.9063 9.03125C23.9041 10.8623 23.1758 12.6177 21.8811 13.9124C20.5864 15.2071 18.831 15.9354 17 15.9375Z" />
    <path
        d="M17 3.1875C15.8442 3.1875 14.7144 3.53023 13.7534 4.17235C12.7924 4.81447 12.0434 5.72714 11.6011 6.79494C11.1588 7.86275 11.0431 9.03773 11.2685 10.1713C11.494 11.3049 12.0506 12.3461 12.8678 13.1634C13.6851 13.9807 14.7264 14.5372 15.8599 14.7627C16.9935 14.9882 18.1685 14.8725 19.2363 14.4302C20.3041 13.9879 21.2168 13.2389 21.8589 12.2779C22.501 11.3169 22.8438 10.187 22.8438 9.03125C22.8419 7.48195 22.2257 5.99663 21.1301 4.90111C20.0346 3.80559 18.5493 3.18933 17 3.1875ZM17 13.8125C16.0544 13.8125 15.13 13.5321 14.3437 13.0067C13.5574 12.4813 12.9446 11.7346 12.5827 10.861C12.2208 9.9873 12.1261 9.02595 12.3106 8.09847C12.4951 7.171 12.9505 6.31907 13.6191 5.6504C14.2878 4.98173 15.1398 4.52636 16.0672 4.34187C16.9947 4.15738 17.956 4.25207 18.8297 4.61395C19.7034 4.97583 20.4501 5.58866 20.9755 6.37493C21.5008 7.1612 21.7813 8.08561 21.7813 9.03125C21.7797 10.2988 21.2755 11.5141 20.3791 12.4104C19.4828 13.3067 18.2676 13.811 17 13.8125Z" />
    <path
        d="M17 7.4375C17.6487 7.4375 18.0625 7.752 18.0625 7.96875C18.0625 8.10965 18.1185 8.24477 18.2181 8.3444C18.3177 8.44403 18.4529 8.5 18.5938 8.5C18.7346 8.5 18.8698 8.44403 18.9694 8.3444C19.069 8.24477 19.125 8.10965 19.125 7.96875C19.125 7.21384 18.4562 6.60291 17.5312 6.42813V5.84375C17.5312 5.70285 17.4753 5.56773 17.3757 5.4681C17.276 5.36847 17.1409 5.3125 17 5.3125C16.8591 5.3125 16.724 5.36847 16.6243 5.4681C16.5247 5.56773 16.4688 5.70285 16.4688 5.84375V6.42813C15.5438 6.60184 14.875 7.21278 14.875 7.96875C14.875 8.86231 15.8084 9.5625 17 9.5625C17.6487 9.5625 18.0625 9.877 18.0625 10.0938C18.0625 10.3105 17.6487 10.625 17 10.625C16.3513 10.625 15.9375 10.3105 15.9375 10.0938C15.9375 9.95285 15.8815 9.81773 15.7819 9.7181C15.6823 9.61847 15.5471 9.5625 15.4062 9.5625C15.2654 9.5625 15.1302 9.61847 15.0306 9.7181C14.931 9.81773 14.875 9.95285 14.875 10.0938C14.875 10.8487 15.5438 11.4596 16.4688 11.6344V12.2188C16.4688 12.3596 16.5247 12.4948 16.6243 12.5944C16.724 12.694 16.8591 12.75 17 12.75C17.1409 12.75 17.276 12.694 17.3757 12.5944C17.4753 12.4948 17.5312 12.3596 17.5312 12.2188V11.6344C18.4562 11.4607 19.125 10.8497 19.125 10.0938C19.125 9.20019 18.1916 8.5 17 8.5C16.3513 8.5 15.9375 8.1855 15.9375 7.96875C15.9375 7.752 16.3513 7.4375 17 7.4375Z" />
    <path
        d="M31.7316 9.75375C31.7423 9.66029 31.7476 9.56627 31.7475 9.47219C31.7449 8.98523 31.576 8.51378 31.2687 8.13598C30.9615 7.75819 30.5343 7.49675 30.0581 7.395C29.5196 7.29351 28.9625 7.39985 28.4992 7.69262C28.0359 7.98538 27.7008 8.44282 27.5613 8.97282L25.2237 15.6984C25.1891 15.7122 25.1554 15.7282 25.1228 15.7463L20.4266 18.4981C19.7079 18.9203 19.1119 19.5226 18.6973 20.2456C18.2827 20.9685 18.0639 21.7872 18.0625 22.6206V28.6875C17.9216 28.6875 17.7865 28.7435 17.6868 28.8431C17.5872 28.9427 17.5312 29.0779 17.5312 29.2188V32.4063C17.5312 32.5471 17.5872 32.6823 17.6868 32.7819C17.7865 32.8815 17.9216 32.9375 18.0625 32.9375H25.5C25.6409 32.9375 25.776 32.8815 25.8757 32.7819C25.9753 32.6823 26.0312 32.5471 26.0312 32.4063V29.2188C26.0312 29.0779 25.9753 28.9427 25.8757 28.8431C25.776 28.7435 25.6409 28.6875 25.5 28.6875V26.4563C25.501 26.2319 25.5487 26.0102 25.6402 25.8053C25.7317 25.6004 25.8649 25.4168 26.0312 25.2663L29.6225 22.0734C30.0153 21.7297 30.2965 21.2765 30.43 20.7719L32.7356 12.1497C32.7848 11.9696 32.8099 11.7838 32.81 11.5972C32.8079 11.2223 32.7072 10.8545 32.5178 10.5309C32.3285 10.2073 32.0573 9.93929 31.7316 9.75375ZM28.5759 9.28625C28.6412 9.01152 28.8075 8.77145 29.0418 8.61391C29.2762 8.45638 29.5613 8.39294 29.8403 8.43625C30.0784 8.48613 30.2922 8.6162 30.446 8.80476C30.5997 8.99331 30.6841 9.22891 30.685 9.47219V9.4775C30.2102 9.48811 29.7517 9.65299 29.3789 9.94723C29.006 10.2415 28.7391 10.6491 28.6184 11.1084L27.1363 15.6825C26.9128 15.5736 26.6717 15.5053 26.4244 15.4806L28.5759 9.28625ZM24.9688 31.875H18.5938V29.75H24.9688V31.875ZM31.7103 11.8734L29.3994 20.5009C29.3194 20.8007 29.1532 21.0704 28.9212 21.2766L25.3247 24.4694C25.0464 24.7203 24.8237 25.0268 24.6709 25.369C24.5181 25.7111 24.4386 26.0815 24.4375 26.4563V28.6875H19.125V22.6206C19.1276 21.9725 19.2984 21.3361 19.6206 20.7737C19.9428 20.2112 20.4053 19.742 20.9631 19.4119L25.6541 16.6653C25.775 16.5948 25.9087 16.549 26.0474 16.5303C26.1862 16.5117 26.3272 16.5206 26.4625 16.5567C26.5977 16.5927 26.7246 16.6551 26.8356 16.7403C26.9467 16.8255 27.0398 16.9318 27.1097 17.0531C27.2477 17.2986 27.2857 17.5878 27.2159 17.8606C27.179 17.9953 27.1159 18.1215 27.0302 18.2318C26.9446 18.3421 26.838 18.4344 26.7166 18.5034L23.6725 20.2619C23.5569 20.3354 23.4741 20.4507 23.4415 20.5838C23.4089 20.7169 23.429 20.8574 23.4976 20.9761C23.5661 21.0947 23.6779 21.1822 23.8095 21.2204C23.9411 21.2586 24.0823 21.2445 24.2038 21.1809L27.2478 19.4225C27.4911 19.2845 27.7044 19.0991 27.875 18.8774C28.0456 18.6557 28.1701 18.4021 28.2413 18.1316C28.3859 17.588 28.3095 17.0093 28.0287 16.5219L27.9969 16.4741L29.6384 11.4113C29.7037 11.1365 29.87 10.8965 30.1043 10.7389C30.3387 10.5814 30.6238 10.5179 30.9028 10.5613C31.1409 10.6111 31.3547 10.7412 31.5085 10.9298C31.6622 11.1183 31.7466 11.3539 31.7475 11.5972C31.7493 11.6906 31.7367 11.7838 31.7103 11.8734Z" />
    <path
        d="M15.9379 28.6875V22.6206C15.9366 21.7872 15.7178 20.9686 15.3032 20.2456C14.8886 19.5226 14.2925 18.9203 13.5739 18.4981L8.87762 15.7409C8.84574 15.725 8.80856 15.7144 8.77668 15.6985L6.45512 9.01001C6.3196 8.47099 5.98372 8.0039 5.51587 7.70385C5.04803 7.4038 4.48341 7.29335 3.93699 7.39501C3.4618 7.49791 3.03593 7.75983 2.72973 8.1375C2.42354 8.51517 2.25534 8.986 2.25293 9.4722C2.25279 9.56628 2.25811 9.6603 2.26887 9.75376C1.94309 9.9393 1.6719 10.2073 1.48259 10.5309C1.29328 10.8546 1.19251 11.2223 1.19043 11.5972C1.19146 11.7835 1.21465 11.9689 1.25949 12.1497L3.57043 20.7666C3.70249 21.2733 3.98383 21.7286 4.37793 22.0735L7.96387 25.2663C8.13192 25.4158 8.26656 25.599 8.35901 25.8041C8.45147 26.0091 8.49965 26.2313 8.50043 26.4563V28.6875C8.35953 28.6875 8.22441 28.7435 8.12478 28.8431C8.02515 28.9427 7.96918 29.0779 7.96918 29.2188V32.4063C7.96918 32.5472 8.02515 32.6823 8.12478 32.7819C8.22441 32.8815 8.35953 32.9375 8.50043 32.9375H15.9379C16.0788 32.9375 16.214 32.8815 16.3136 32.7819C16.4132 32.6823 16.4692 32.5472 16.4692 32.4063V29.2188C16.4692 29.0779 16.4132 28.9427 16.3136 28.8431C16.214 28.7435 16.0788 28.6875 15.9379 28.6875ZM3.31543 9.4722C3.31608 9.22965 3.39971 8.99463 3.5524 8.80618C3.70509 8.61773 3.91767 8.4872 4.1548 8.43626C4.44157 8.39413 4.73365 8.46224 4.9722 8.62686C5.21076 8.79149 5.37807 9.04039 5.44043 9.32345L7.57606 15.4806C7.47049 15.4884 7.36569 15.5044 7.26262 15.5285C7.12498 15.5663 6.9915 15.6179 6.86418 15.6825L5.39262 11.135C5.27286 10.6714 5.00536 10.2593 4.63058 9.96122C4.2558 9.66313 3.79414 9.49519 3.31543 9.48283V9.4722ZM8.67043 24.4694L5.07918 21.2766C4.84599 21.0694 4.67958 20.7976 4.60105 20.4956L2.29012 11.8735C2.26368 11.7838 2.25114 11.6906 2.25293 11.5972C2.25358 11.3547 2.33721 11.1196 2.4899 10.9312C2.64259 10.7427 2.85517 10.6122 3.0923 10.5613C3.37684 10.5196 3.66664 10.5866 3.90393 10.7491C4.14122 10.9116 4.30857 11.1575 4.37262 11.4378L6.00355 16.4741C5.99481 16.4912 5.98411 16.5072 5.97168 16.5219C5.69084 17.0102 5.61534 17.5899 5.76177 18.1338C5.90821 18.6777 6.2646 19.1413 6.75262 19.4225L9.79668 21.181C9.91809 21.2445 10.0594 21.2586 10.1909 21.2204C10.3225 21.1823 10.4343 21.0947 10.5029 20.9761C10.5714 20.8575 10.5915 20.7169 10.5589 20.5838C10.5263 20.4507 10.4436 20.3354 10.3279 20.2619L7.28387 18.5035C7.16282 18.434 7.05663 18.3415 6.97137 18.231C6.8861 18.1206 6.82343 17.9944 6.78692 17.8597C6.75042 17.725 6.7408 17.5845 6.75861 17.4461C6.77642 17.3077 6.82132 17.1742 6.89074 17.0531C7.03271 16.8106 7.26424 16.6335 7.5355 16.56C7.80675 16.4864 8.09603 16.5224 8.34105 16.66L13.0373 19.4119C13.5951 19.742 14.0577 20.2112 14.3799 20.7737C14.702 21.3361 14.8728 21.9725 14.8754 22.6206V28.6875H9.56293V26.4563C9.56203 26.081 9.48208 25.7101 9.32831 25.3678C9.17453 25.0254 8.95037 24.7193 8.67043 24.4694ZM15.4067 31.875H9.03168V29.75H15.4067V31.875Z" />
</svg>