<svg width="34" height="34" viewBox="0 0 34 34" fill="none" xmlns="http://www.w3.org/2000/svg">
    <g clip-path="url(#clip0_862_808)" fill="#ffffff">
        <path
            d="M16.9443 12.6677C14.4316 12.6677 12.3867 14.7119 12.3867 17.2246C12.3867 19.7373 14.4316 21.7815 16.9443 21.7815C19.457 21.7815 21.5012 19.7373 21.5012 17.2246C21.5012 14.7119 19.457 12.6677 16.9443 12.6677ZM16.9443 19.7562C15.5482 19.7562 14.412 18.6207 14.412 17.2246C14.412 15.8285 15.5482 14.693 16.9443 14.693C18.3397 14.693 19.4759 15.8285 19.4759 17.2246C19.4759 18.6206 18.3397 19.7562 16.9443 19.7562Z"
            fill="" />
        <path
            d="M26.3545 12.002C24.6512 12.002 23.2653 13.388 23.2653 15.092V17.1308C23.2653 20.5859 20.4549 23.3963 17.0004 23.3963C13.5452 23.3963 10.7341 20.5859 10.7341 17.1308V15.092C10.7341 13.388 9.34817 12.002 7.64423 12.002C5.94096 12.002 4.55566 13.388 4.55566 15.092V17.093C4.55566 20.9289 6.33927 24.5602 9.35357 26.9116V32.9874C9.35357 33.5464 9.80656 34.0001 10.3662 34.0001H23.5164C24.0754 34.0001 24.5291 33.5464 24.5291 32.9874V26.9703C27.6163 24.5926 29.4438 20.8938 29.4438 16.9694V15.092C29.4438 13.388 28.0585 12.002 26.3545 12.002ZM22.5038 26.4586V31.9748H11.3789V26.4039C11.3789 26.0771 11.2202 25.77 10.9542 25.5796C8.21536 23.6252 6.58095 20.4529 6.58095 17.093V15.092C6.58095 14.5046 7.05757 14.0273 7.64423 14.0273C8.23156 14.0273 8.70885 14.5046 8.70885 15.092V17.1308C8.70885 21.7025 12.428 25.4216 17.0004 25.4216C21.5715 25.4216 25.2906 21.7025 25.2906 17.1308V15.092C25.2906 14.5046 25.7679 14.0273 26.3552 14.0273C26.9418 14.0273 27.4185 14.5046 27.4185 15.092V16.9694C27.4185 20.4144 25.7415 23.6522 22.9331 25.6309C22.6638 25.8206 22.5038 26.1291 22.5038 26.4586Z"
            fill="" />
        <path
            d="M13.0096 7.60375L12.8537 10.6066C12.816 11.3458 13.5577 11.8714 14.239 11.5996L16.9994 10.5026L19.7599 11.5996C20.4424 11.8704 21.1829 11.3464 21.1452 10.6066L20.9893 7.60375L22.8525 5.34015C23.3164 4.7786 23.0503 3.92002 22.3449 3.72194L19.4656 2.9125L17.8447 0.454477C17.4458 -0.151759 16.5528 -0.151287 16.1542 0.454477L14.5333 2.9125L11.654 3.72194C10.9474 3.92035 10.6833 4.77962 11.1464 5.34015L13.0096 7.60375ZM16.0165 4.3431L16.9994 2.85181L17.9824 4.3431C18.1167 4.5463 18.3193 4.69482 18.5542 4.76031L20.3027 5.25178L19.176 6.6202C19.0153 6.8153 18.9336 7.06306 18.9464 7.31622L19.0409 9.13493L17.3734 8.47199C17.1344 8.37659 16.8646 8.37653 16.6254 8.47199L14.958 9.13493L15.0525 7.31622C15.0653 7.06306 14.9836 6.8153 14.8229 6.6202L13.6962 5.25178L15.4447 4.76031C15.6796 4.69482 15.8822 4.54623 16.0165 4.3431Z"
            fill="" />
        <path
            d="M9.21413 9.8184C9.6096 10.2139 10.2507 10.2139 10.6462 9.8184C11.0417 9.42299 11.0417 8.78179 10.6462 8.38631L6.83806 4.57817C6.44266 4.18276 5.80145 4.18276 5.40598 4.57817C5.01051 4.97357 5.01051 5.61477 5.40598 6.01025L9.21413 9.8184Z"
            fill="" />
        <path
            d="M25.0236 9.8184L28.8318 6.01025C29.2272 5.61484 29.2272 4.97364 28.8318 4.57817C28.4364 4.18276 27.7951 4.18276 27.3997 4.57817L23.5915 8.38631C23.1961 8.78172 23.1961 9.42293 23.5915 9.8184C23.987 10.2139 24.6281 10.2138 25.0236 9.8184Z"
            fill="" />
    </g>
    <defs>
        <clipPath id="clip0_862_808">
            <rect width="34" height="34" fill="" />
        </clipPath>
    </defs>
</svg>