<svg width="134" height="61" viewBox="0 0 134 61" fill="none" xmlns="http://www.w3.org/2000/svg">
<g clip-path="url(#clip0_1080_1088)">
<path d="M35.1849 56.8027C35.1849 57.2439 34.9643 57.5748 34.6334 57.7953C34.9643 57.9056 35.1849 58.1262 35.2952 58.4571C35.4055 58.5674 35.4055 58.6777 35.4055 58.8983C35.4055 59.3395 35.0746 59.7807 34.6334 59.891C34.4129 60.0013 34.1923 60.0013 33.9717 60.0013H31.9863V55.6997H33.8614C34.1923 55.6997 34.6334 55.81 34.854 56.0306C35.0746 56.2512 35.1849 56.5821 35.1849 56.8027ZM32.4275 57.5747H33.8614C34.1923 57.5747 34.5231 57.4645 34.6334 57.1336C34.6334 57.0233 34.7437 56.913 34.7437 56.8027C34.7437 56.6924 34.7437 56.5821 34.7437 56.4718C34.7437 56.3615 34.6334 56.3615 34.6334 56.2512C34.4129 56.1409 34.1923 56.0306 33.9717 56.0306H32.4275V57.5747ZM33.9717 59.4498C34.1923 59.4498 34.4129 59.4498 34.6334 59.2292C34.7437 59.1189 34.854 58.8983 34.854 58.6777C34.854 58.4571 34.7437 58.2365 34.6334 58.1262C34.4129 57.9056 34.1923 57.9056 33.8614 57.9056H32.3172V59.3395H33.9717V59.4498Z" fill="url(#paint0_linear_1080_1088)"/>
<path d="M39.8162 55.6997V59.4498H42.1324V59.891H39.375V55.6997H39.8162Z" fill="url(#paint1_linear_1080_1088)"/>
<path d="M47.6486 55.5894C48.2001 55.5894 48.7516 55.8099 49.1927 56.2511C49.9648 57.1335 49.9648 58.4571 49.1927 59.3394C48.3104 60.2218 46.9868 60.2218 46.1044 59.3394C45.3324 58.4571 45.3324 57.1335 46.1044 56.2511C46.5456 55.8099 47.0971 55.5894 47.6486 55.5894ZM47.6486 59.4497C48.0898 59.4497 48.531 59.3394 48.8619 58.8983C49.4133 58.2365 49.4133 57.1335 48.8619 56.4717C48.2001 55.8099 47.0971 55.8099 46.4353 56.4717C45.8839 57.1335 45.8839 58.2365 46.4353 58.8983C46.7662 59.3394 47.2074 59.56 47.6486 59.4497Z" fill="url(#paint2_linear_1080_1088)"/>
<path d="M54.8179 55.8099C55.0385 55.6996 55.3694 55.5894 55.59 55.5894C55.8106 55.5894 56.0312 55.5894 56.3621 55.6997C56.5827 55.8099 56.693 55.8099 56.9136 55.9202C57.2445 56.1408 57.465 56.4717 57.6856 56.8026H57.1342C57.0239 56.582 56.8033 56.3614 56.5827 56.2511C56.3621 56.1408 56.0312 56.0305 55.8106 56.0305C55.59 56.0305 55.2591 56.0305 55.0385 56.1408C54.8179 56.2511 54.7076 56.3614 54.487 56.4717C53.9356 57.1335 53.9356 58.2365 54.487 58.8983C54.8179 59.2291 55.2591 59.4497 55.7003 59.4497C56.0312 59.4497 56.4724 59.3394 56.693 59.1188C57.0239 58.8982 57.1342 58.4571 57.1342 58.1262H55.59V57.685H57.5753V59.8909H57.1342V59.1188C56.9136 59.4497 56.5827 59.7806 56.1415 59.8909C55.9209 59.8909 55.7003 60.0012 55.4797 60.0012C54.9282 60.0012 54.3767 59.7806 54.0459 59.4497C53.2738 58.5674 53.2738 57.2438 54.0459 56.3614C54.2664 56.0305 54.487 55.9202 54.8179 55.8099Z" fill="url(#paint3_linear_1080_1088)"/>
<path d="M65.7372 55.6997V59.891H65.296V56.3615L63.7519 58.4571L62.0974 56.4718V60.0013H61.6562V55.6997H62.2077L63.7519 57.685L65.1857 55.6997H65.7372V55.6997Z" fill="url(#paint4_linear_1080_1088)"/>
<path d="M73.6776 59.891H73.1261L72.5746 58.6777H70.5893L70.0378 59.891H69.4863L71.2511 55.6997H71.9128L73.6776 59.891ZM72.4643 58.2365L71.582 56.1409L70.6996 58.2365H72.4643Z" fill="url(#paint5_linear_1080_1088)"/>
<path d="M81.0675 55.6997V59.891H80.516L77.8689 56.2512V59.891H77.4277V55.6997H77.9792L80.6263 59.2292V55.6997H81.0675Z" fill="url(#paint6_linear_1080_1088)"/>
<path d="M89.0086 59.891H88.4571L87.9056 58.6777H85.81L85.2585 59.891H84.707L86.4718 55.6997H87.1336L89.0086 59.891ZM87.7953 58.2365L86.913 56.1409L86.0306 58.2365H87.7953Z" fill="url(#paint7_linear_1080_1088)"/>
<path d="M93.6409 55.8099C93.8615 55.6996 94.1924 55.5894 94.413 55.5894C94.6336 55.5894 94.8541 55.5894 95.0747 55.6997C95.2953 55.6997 95.4056 55.8099 95.6262 55.9202C95.9571 56.1408 96.1777 56.4717 96.3983 56.8026H95.9571C95.8468 56.582 95.6262 56.3614 95.4056 56.2511C95.185 56.1408 94.8542 56.0305 94.6336 56.0305C94.413 56.0305 94.0821 56.0305 93.8615 56.1408C93.6409 56.2511 93.5306 56.3614 93.31 56.4717C92.9791 56.8026 92.8688 57.2438 92.8688 57.685C92.8688 58.1262 92.9791 58.5674 93.31 58.8983C93.6409 59.2291 93.9718 59.4497 94.413 59.4497C94.7439 59.4497 95.185 59.3394 95.4056 59.1188C95.7365 58.8982 95.8468 58.4571 95.8468 58.1262H94.3027V57.685H96.288V59.8909H95.8468V59.1188C95.6262 59.4497 95.2953 59.7806 94.8541 59.8909C94.6336 59.8909 94.413 60.0012 94.1924 60.0012C93.9718 60.0012 93.6409 59.8909 93.4203 59.7806C93.1997 59.6703 92.9791 59.56 92.7585 59.3394C92.4276 58.8982 92.207 58.3468 92.207 57.7953C92.207 57.2438 92.4276 56.6923 92.7585 56.2511C93.1997 56.0305 93.4203 55.9202 93.6409 55.8099Z" fill="url(#paint8_linear_1080_1088)"/>
<path d="M101.032 56.1409V57.5747H103.348V58.0159H101.032V59.4498H103.679V59.891H100.48V55.6997H103.679V56.1409H101.032Z" fill="url(#paint9_linear_1080_1088)"/>
<path d="M111.729 55.6997V59.891H111.288V56.3615L109.634 58.4571L108.09 56.4718V60.0013H107.648V55.6997H108.2L109.744 57.685L111.178 55.6997H111.729V55.6997Z" fill="url(#paint10_linear_1080_1088)"/>
<path d="M116.472 56.1409V57.5747H118.789V58.0159H116.472V59.4498H119.12V59.891H116.031V55.6997H119.12V56.1409H116.472Z" fill="url(#paint11_linear_1080_1088)"/>
<path d="M126.732 55.6997V59.891H126.18L123.533 56.3615V60.0013H123.092V55.6997H123.643L126.29 59.2292V55.6997H126.732V55.6997Z" fill="url(#paint12_linear_1080_1088)"/>
<path d="M133.901 56.1409H132.467V59.891H132.026V56.1409H130.592V55.6997H134.011L133.901 56.1409Z" fill="url(#paint13_linear_1080_1088)"/>
<path d="M68.052 29.1183C66.6182 27.133 64.1917 25.6991 60.8828 24.927V24.5961C63.199 24.2652 65.4049 22.9417 66.7285 20.9563C68.2726 18.6401 69.0447 15.993 68.9344 13.2356C68.9344 12.2429 68.8241 11.3605 68.7138 10.3679C68.2726 7.38987 66.5079 4.74275 63.9711 3.1986C60.5519 1.10297 55.1473 0 47.7575 0H31.4336V52.3909H51.0664C57.0224 52.3909 61.6548 51.0673 65.1843 48.4202C68.6035 45.7731 70.5889 41.5818 70.3683 37.2802C70.4786 34.3022 69.7065 31.5448 68.052 29.1183ZM42.5735 9.15461H48.4193C51.6179 9.15461 53.9341 9.5958 55.3679 10.4782C56.9121 11.3605 57.6842 13.015 57.5739 14.7797C57.7945 16.5445 57.0224 18.3092 55.5885 19.4122C54.265 20.2946 52.059 20.846 49.081 20.846H42.6838V9.15461H42.5735ZM56.5812 41.4715C55.1473 42.6848 52.8311 43.2362 49.8531 43.2362H42.5735V29.5595H49.5222C50.2943 29.5595 50.9561 29.5595 51.7282 29.6698C56.4709 30.111 58.8974 32.3169 58.8974 36.067C58.8974 38.1626 58.1254 40.1479 56.5812 41.4715Z" fill="url(#paint14_linear_1080_1088)"/>
<path d="M118.788 0L105.663 40.0376H105.443L93.0894 0H77.8684L68.7138 10.3679L51.6179 29.6698C56.3606 30.111 58.7871 32.3169 58.7871 36.067C58.8974 38.0523 58.1254 40.1479 56.5812 41.4715C55.1473 42.6848 52.8311 43.2362 49.8531 43.2362H42.5735V39.9273L31.4336 52.3909H87.9054V28.0153C87.9054 25.2579 87.6848 19.6328 87.2436 11.2502H87.5745L100.148 52.3909H110.296L123.862 11.3605H124.193C123.862 17.9783 123.752 22.0593 123.752 23.6035C123.752 25.1476 123.752 26.4712 123.752 27.6844V52.5011H134.12V0H118.788Z" fill="url(#paint15_linear_1080_1088)"/>
<path d="M13.8968 59.8909C22.9412 47.0965 17.7572 41.1405 17.7572 41.1405L14.5586 41.0302L11.36 40.9199C11.36 40.9199 5.73491 46.4348 13.8968 59.8909Z" fill="url(#paint16_linear_1080_1088)"/>
<path d="M10.0371 41.1406L10.1474 38.6038L18.0888 38.7141L17.9785 41.2509L10.0371 41.1406Z" fill="url(#paint17_linear_1080_1088)"/>
<path d="M14.118 27.6844C6.50749 27.4638 0.220593 33.4198 0 41.0303C0 42.6847 0.220593 44.4495 0.882372 45.9936C3.0883 40.8097 8.27224 37.5008 13.8974 37.6111C19.5225 37.7214 24.5961 41.2509 26.5815 46.5451C27.2432 45.001 27.5741 43.3465 27.6844 41.5818C27.6844 33.9713 21.6181 27.7947 14.118 27.6844Z" fill="url(#paint18_linear_1080_1088)"/>
<path d="M17.4277 38.0524C21.619 39.2657 25.0382 42.354 26.5823 46.435C27.2441 44.8908 27.575 43.2364 27.6853 41.4716C27.7956 35.295 23.7146 29.7802 17.6483 28.1257L17.4277 38.0524Z" fill="url(#paint19_linear_1080_1088)"/>
<path d="M5.62523 23.1623C5.40464 29.008 6.5076 34.7434 8.93413 40.0376C10.4783 39.5965 12.1327 39.3759 13.7872 39.3759C15.4416 39.3759 17.0961 39.7068 18.6402 40.2582C21.2873 35.0743 22.6109 29.3389 22.6109 23.4932C22.9418 13.3459 19.6329 4.41186 14.6695 0C9.48561 4.19127 5.84582 12.9047 5.62523 23.1623Z" fill="url(#paint20_linear_1080_1088)"/>
<path d="M8.16189 9.70616L7.7207 10.9194C12.2429 10.5885 16.765 10.6988 21.2872 11.3606L20.7357 9.92675C20.7357 9.92675 12.3532 8.82379 8.16189 9.70616Z" fill="url(#paint21_linear_1080_1088)"/>
<path d="M8.16211 9.7061C10.2577 9.5958 12.3534 9.5958 14.449 9.5958C16.5446 9.5958 18.7506 9.7061 20.7359 9.92669C19.6329 6.17661 17.427 2.75741 14.6696 0C11.6916 2.64712 9.37537 5.95601 8.16211 9.7061Z" fill="url(#paint22_linear_1080_1088)"/>
<path d="M14.338 14.8901C13.3453 14.8901 12.3526 15.221 11.6909 15.8828C11.0291 16.5446 10.5879 17.5373 10.5879 18.5299C10.5879 20.6256 12.2423 22.28 14.2277 22.28C16.3233 22.28 17.9778 20.7359 17.9778 18.6402C17.9778 16.5446 16.4336 14.8901 14.338 14.8901Z" fill="url(#paint23_linear_1080_1088)"/>
</g>
<defs>
<linearGradient id="paint0_linear_1080_1088" x1="63.6927" y1="44.8412" x2="47.6335" y2="51.6686" gradientUnits="userSpaceOnUse">
<stop stop-color="#571787"/>
<stop offset="1" stop-color="#F2238E"/>
</linearGradient>
<linearGradient id="paint1_linear_1080_1088" x1="64.8501" y1="47.5518" x2="48.7909" y2="54.3902" gradientUnits="userSpaceOnUse">
<stop stop-color="#571787"/>
<stop offset="1" stop-color="#F2238E"/>
</linearGradient>
<linearGradient id="paint2_linear_1080_1088" x1="65.9136" y1="50.0521" x2="49.8544" y2="56.8795" gradientUnits="userSpaceOnUse">
<stop stop-color="#571787"/>
<stop offset="1" stop-color="#F2238E"/>
</linearGradient>
<linearGradient id="paint3_linear_1080_1088" x1="67.2271" y1="53.1387" x2="51.1569" y2="59.966" gradientUnits="userSpaceOnUse">
<stop stop-color="#571787"/>
<stop offset="1" stop-color="#F2238E"/>
</linearGradient>
<linearGradient id="paint4_linear_1080_1088" x1="144.126" y1="28.0628" x2="86.7059" y2="49.2948" gradientUnits="userSpaceOnUse">
<stop stop-color="#202E91"/>
<stop offset="1" stop-color="#08C2F4"/>
</linearGradient>
<linearGradient id="paint5_linear_1080_1088" x1="145.181" y1="30.9228" x2="87.7609" y2="52.1549" gradientUnits="userSpaceOnUse">
<stop stop-color="#202E91"/>
<stop offset="1" stop-color="#08C2F4"/>
</linearGradient>
<linearGradient id="paint6_linear_1080_1088" x1="145.999" y1="33.1207" x2="88.5782" y2="54.3528" gradientUnits="userSpaceOnUse">
<stop stop-color="#202E91"/>
<stop offset="1" stop-color="#08C2F4"/>
</linearGradient>
<linearGradient id="paint7_linear_1080_1088" x1="147.024" y1="35.9122" x2="89.6041" y2="57.1442" gradientUnits="userSpaceOnUse">
<stop stop-color="#202E91"/>
<stop offset="1" stop-color="#08C2F4"/>
</linearGradient>
<linearGradient id="paint8_linear_1080_1088" x1="147.917" y1="38.3024" x2="90.4961" y2="59.5455" gradientUnits="userSpaceOnUse">
<stop stop-color="#202E91"/>
<stop offset="1" stop-color="#08C2F4"/>
</linearGradient>
<linearGradient id="paint9_linear_1080_1088" x1="148.749" y1="40.5535" x2="91.318" y2="61.7856" gradientUnits="userSpaceOnUse">
<stop stop-color="#202E91"/>
<stop offset="1" stop-color="#08C2F4"/>
</linearGradient>
<linearGradient id="paint10_linear_1080_1088" x1="149.65" y1="43.0184" x2="92.23" y2="64.2505" gradientUnits="userSpaceOnUse">
<stop stop-color="#202E91"/>
<stop offset="1" stop-color="#08C2F4"/>
</linearGradient>
<linearGradient id="paint11_linear_1080_1088" x1="150.602" y1="45.5847" x2="93.1816" y2="66.8169" gradientUnits="userSpaceOnUse">
<stop stop-color="#202E91"/>
<stop offset="1" stop-color="#08C2F4"/>
</linearGradient>
<linearGradient id="paint12_linear_1080_1088" x1="151.481" y1="47.966" x2="94.0611" y2="69.1981" gradientUnits="userSpaceOnUse">
<stop stop-color="#202E91"/>
<stop offset="1" stop-color="#08C2F4"/>
</linearGradient>
<linearGradient id="paint13_linear_1080_1088" x1="152.286" y1="50.1151" x2="94.8544" y2="71.3471" gradientUnits="userSpaceOnUse">
<stop stop-color="#202E91"/>
<stop offset="1" stop-color="#08C2F4"/>
</linearGradient>
<linearGradient id="paint14_linear_1080_1088" x1="31.4226" y1="26.212" x2="70.3183" y2="26.212" gradientUnits="userSpaceOnUse">
<stop stop-color="#571787"/>
<stop offset="1" stop-color="#F2238E"/>
</linearGradient>
<linearGradient id="paint15_linear_1080_1088" x1="172.955" y1="24.7914" x2="47.0625" y2="27.4605" gradientUnits="userSpaceOnUse">
<stop stop-color="#202E91"/>
<stop offset="1" stop-color="#08C2F4"/>
</linearGradient>
<linearGradient id="paint16_linear_1080_1088" x1="15.1288" y1="34.0858" x2="13.7042" y2="57.9372" gradientUnits="userSpaceOnUse">
<stop stop-color="#571787"/>
<stop offset="1" stop-color="#F2238E"/>
</linearGradient>
<linearGradient id="paint17_linear_1080_1088" x1="22.851" y1="35.7101" x2="13.6191" y2="40.133" gradientUnits="userSpaceOnUse">
<stop stop-color="#202E91"/>
<stop offset="1" stop-color="#08C2F4"/>
</linearGradient>
<linearGradient id="paint18_linear_1080_1088" x1="15.5832" y1="12.2759" x2="13.9288" y2="39.6073" gradientUnits="userSpaceOnUse">
<stop stop-color="#202E91"/>
<stop offset="1" stop-color="#08C2F4"/>
</linearGradient>
<linearGradient id="paint19_linear_1080_1088" x1="28.7308" y1="11.4097" x2="21.716" y2="39.2927" gradientUnits="userSpaceOnUse">
<stop stop-color="#202E91"/>
<stop offset="1" stop-color="#08C2F4"/>
</linearGradient>
<linearGradient id="paint20_linear_1080_1088" x1="108.392" y1="0.887333" x2="7.94477" y2="21.9319" gradientUnits="userSpaceOnUse">
<stop stop-color="#202E91"/>
<stop offset="1" stop-color="#08C2F4"/>
</linearGradient>
<linearGradient id="paint21_linear_1080_1088" x1="16.3697" y1="8.23345" x2="5.83113" y2="22.4454" gradientUnits="userSpaceOnUse">
<stop stop-color="#202E91"/>
<stop offset="1" stop-color="#08C2F4"/>
</linearGradient>
<linearGradient id="paint22_linear_1080_1088" x1="22.9828" y1="2.60951" x2="15.5929" y2="5.92943" gradientUnits="userSpaceOnUse">
<stop stop-color="#571787"/>
<stop offset="1" stop-color="#F2238E"/>
</linearGradient>
<linearGradient id="paint23_linear_1080_1088" x1="18.0986" y1="15.5182" x2="9.0433" y2="22.7205" gradientUnits="userSpaceOnUse">
<stop stop-color="#202E91"/>
<stop offset="1" stop-color="#08C2F4"/>
</linearGradient>
<clipPath id="clip0_1080_1088">
<rect width="133.9" height="60.0013" fill="white"/>
</clipPath>
</defs>
</svg>
