<svg width="134" height="60" viewBox="0 0 134 60" fill="none" xmlns="http://www.w3.org/2000/svg">
<g clip-path="url(#clip0_1063_1059)">
<path d="M35.1829 56.8014C35.1829 57.2426 34.9623 57.5735 34.6314 57.7941C34.9623 57.9044 35.1829 58.125 35.2932 58.4558C35.4035 58.5661 35.4035 58.6764 35.4035 58.897C35.4035 59.3382 35.0726 59.7794 34.6314 59.8897C34.4108 60 34.1903 60 33.9697 60H31.9844V55.6985H33.8594C34.1903 55.6985 34.6314 55.8088 34.852 56.0294C35.0726 56.25 35.1829 56.5808 35.1829 56.8014ZM32.4256 57.5735H33.8594C34.1903 57.5735 34.5211 57.4632 34.6314 57.1323C34.6314 57.022 34.7417 56.9117 34.7417 56.8014C34.7417 56.6911 34.7417 56.5808 34.7417 56.4705C34.7417 56.3603 34.6314 56.3603 34.6314 56.25C34.4108 56.1397 34.1903 56.0294 33.9697 56.0294H32.4256V57.5735ZM33.9697 59.4485C34.1903 59.4485 34.4108 59.4485 34.6314 59.2279C34.7417 59.1176 34.852 58.897 34.852 58.6764C34.852 58.4558 34.7417 58.2353 34.6314 58.125C34.4108 57.9044 34.1903 57.9044 33.8594 57.9044H32.3153V59.3382H33.9697V59.4485Z" fill="#868686"/>
<path d="M39.8162 55.6985V59.4485H42.1324V59.8897H39.375V55.6985H39.8162Z" fill="#868686"/>
<path d="M47.6466 55.5881C48.1981 55.5881 48.7495 55.8087 49.1907 56.2499C49.9628 57.1323 49.9628 58.4558 49.1907 59.3381C48.3084 60.2205 46.9848 60.2205 46.1025 59.3381C45.3304 58.4558 45.3304 57.1323 46.1025 56.2499C46.5437 55.8087 47.0951 55.5881 47.6466 55.5881ZM47.6466 59.4484C48.0878 59.4484 48.529 59.3381 48.8598 58.897C49.4113 58.2352 49.4113 57.1323 48.8598 56.4705C48.1981 55.8087 47.0951 55.8087 46.4334 56.4705C45.8819 57.1323 45.8819 58.2352 46.4334 58.897C46.7642 59.3381 47.2054 59.5587 47.6466 59.4484Z" fill="#868686"/>
<path d="M54.8159 55.8087C55.0365 55.6984 55.3674 55.5881 55.588 55.5881C55.8086 55.5881 56.0292 55.5881 56.3601 55.6984C56.5807 55.8087 56.6909 55.8087 56.9115 55.919C57.2424 56.1396 57.463 56.4705 57.6836 56.8014H57.1321C57.0218 56.5808 56.8012 56.3602 56.5807 56.2499C56.3601 56.1396 56.0292 56.0293 55.8086 56.0293C55.588 56.0293 55.2571 56.0293 55.0365 56.1396C54.8159 56.2499 54.7057 56.3602 54.4851 56.4705C53.9336 57.1323 53.9336 58.2352 54.4851 58.897C54.8159 59.2278 55.2571 59.4484 55.6983 59.4484C56.0292 59.4484 56.4704 59.3381 56.6909 59.1175C57.0218 58.897 57.1321 58.4558 57.1321 58.1249H55.588V57.6837H57.5733V59.8896H57.1321V59.1175C56.9115 59.4484 56.5807 59.7793 56.1395 59.8896C55.9189 59.8896 55.6983 59.9999 55.4777 59.9999C54.9262 59.9999 54.3748 59.7793 54.0439 59.4484C53.2718 58.5661 53.2718 57.2425 54.0439 56.3602C54.2645 56.0293 54.4851 55.919 54.8159 55.8087Z" fill="#868686"/>
<path d="M65.7352 55.6985V59.8897H65.294V56.3602L63.7499 58.4558L62.0955 56.4705V60H61.6543V55.6985H62.2058L63.7499 57.6838L65.1837 55.6985H65.7352V55.6985Z" fill="#AEAEAE"/>
<path d="M73.6756 59.8897H73.1241L72.5726 58.6764H70.5873L70.0358 59.8897H69.4844L71.2491 55.6985H71.9108L73.6756 59.8897ZM72.4623 58.2353L71.58 56.1397L70.6976 58.2353H72.4623Z" fill="#AEAEAE"/>
<path d="M81.0655 55.6985V59.8897H80.514L77.867 56.25V59.8897H77.4258V55.6985H77.9773L80.6243 59.2279V55.6985H81.0655Z" fill="#AEAEAE"/>
<path d="M89.0065 59.8897H88.4551L87.9036 58.6764H85.808L85.2565 59.8897H84.7051L86.4698 55.6985H87.1315L89.0065 59.8897ZM87.7933 58.2353L86.911 56.1397L86.0286 58.2353H87.7933Z" fill="#AEAEAE"/>
<path d="M93.6389 55.8087C93.8595 55.6984 94.1904 55.5881 94.411 55.5881C94.6315 55.5881 94.8521 55.5881 95.0727 55.6984C95.2933 55.6984 95.4036 55.8087 95.6242 55.919C95.9551 56.1396 96.1757 56.4705 96.3963 56.8014H95.9551C95.8448 56.5808 95.6242 56.3602 95.4036 56.2499C95.183 56.1396 94.8521 56.0293 94.6316 56.0293C94.411 56.0293 94.0801 56.0293 93.8595 56.1396C93.6389 56.2499 93.5286 56.3602 93.308 56.4705C92.9771 56.8014 92.8668 57.2425 92.8668 57.6837C92.8668 58.1249 92.9771 58.5661 93.308 58.897C93.6389 59.2278 93.9698 59.4484 94.411 59.4484C94.7418 59.4484 95.183 59.3381 95.4036 59.1175C95.7345 58.897 95.8448 58.4558 95.8448 58.1249H94.3007V57.6837H96.286V59.8896H95.8448V59.1175C95.6242 59.4484 95.2933 59.7793 94.8521 59.8896C94.6316 59.8896 94.411 59.9999 94.1904 59.9999C93.9698 59.9999 93.6389 59.8896 93.4183 59.7793C93.1977 59.669 92.9771 59.5587 92.7565 59.3381C92.4257 58.897 92.2051 58.3455 92.2051 57.794C92.2051 57.2425 92.4257 56.6911 92.7565 56.2499C93.1977 56.0293 93.4183 55.919 93.6389 55.8087Z" fill="#AEAEAE"/>
<path d="M101.028 56.1397V57.5735H103.344V58.0147H101.028V59.4485H103.675V59.8897H100.477V55.6985H103.675V56.1397H101.028Z" fill="#AEAEAE"/>
<path d="M111.729 55.6985V59.8897H111.288V56.3602L109.634 58.4558L108.09 56.4705V60H107.648V55.6985H108.2L109.744 57.6838L111.178 55.6985H111.729V55.6985Z" fill="#AEAEAE"/>
<path d="M116.47 56.1397V57.5735H118.787V58.0147H116.47V59.4485H119.118V59.8897H116.029V55.6985H119.118V56.1397H116.47Z" fill="#868686"/>
<path d="M126.728 55.6985V59.8897H126.176L123.529 56.3602V60H123.088V55.6985H123.639L126.286 59.2279V55.6985H126.728V55.6985Z" fill="#AEAEAE"/>
<path d="M133.897 56.1397H132.463V59.8897H132.022V56.1397H130.588V55.6985H134.007L133.897 56.1397Z" fill="#AEAEAE"/>
<path d="M68.0512 29.1176C66.6174 27.1324 64.1909 25.6985 60.8821 24.9265V24.5956C63.1983 24.2647 65.4042 22.9412 66.7277 20.9559C68.2718 18.6397 69.0439 15.9926 68.9336 13.2353C68.9336 12.2426 68.8233 11.3603 68.713 10.3676C68.2718 7.38971 66.5071 4.74265 63.9704 3.19853C60.5512 1.10294 55.1468 0 47.7571 0H31.4336V52.3897H51.0659C57.0218 52.3897 61.6542 51.0662 65.1836 48.4191C68.6027 45.7721 70.588 41.5809 70.3674 37.2794C70.4777 34.3015 69.7056 31.5441 68.0512 29.1176ZM42.5733 9.15441H48.4189C51.6174 9.15441 53.9336 9.59559 55.3674 10.4779C56.9115 11.3603 57.6836 13.0147 57.5733 14.7794C57.7939 16.5441 57.0218 18.3088 55.588 19.4118C54.2645 20.2941 52.0586 20.8456 49.0807 20.8456H42.6836V9.15441H42.5733ZM56.5806 41.4706C55.1468 42.6838 52.8307 43.2353 49.8527 43.2353H42.5733V29.5588H49.5218C50.2939 29.5588 50.9557 29.5588 51.7277 29.6691C56.4704 30.1103 58.8968 32.3162 58.8968 36.0662C58.8968 38.1618 58.1248 40.1471 56.5806 41.4706Z" fill="#868686"/>
<path d="M118.787 0L105.662 40.0368H105.441L93.088 0H77.8674L68.713 10.3676L51.6174 29.6691C56.3601 30.1103 58.7865 32.3162 58.7865 36.0662C58.8968 38.0515 58.1248 40.1471 56.5806 41.4706C55.1468 42.6838 52.8307 43.2353 49.8527 43.2353H42.5733V39.9265L31.4336 52.3897H87.9042V28.0147C87.9042 25.2574 87.6836 19.6324 87.2424 11.25H87.5733L100.147 52.3897H110.294L123.86 11.3603H124.191C123.86 17.9779 123.75 22.0588 123.75 23.6029C123.75 25.1471 123.75 26.4706 123.75 27.6838V52.5H134.117V0H118.787Z" fill="#AEAEAE"/>
<path d="M13.8968 59.8898C22.9409 47.0957 17.757 41.1398 17.757 41.1398L14.5585 41.0295L11.36 40.9192C11.36 40.9192 5.73499 46.4339 13.8968 59.8898Z" fill="#868686"/>
<path d="M10.0371 41.1398L10.1474 38.603L18.0886 38.7133L17.9783 41.2501L10.0371 41.1398Z" fill="#AEAEAE"/>
<path d="M14.1176 27.6839C6.50735 27.4633 0.220588 33.4192 0 41.0295C0 42.6839 0.220588 44.4486 0.882353 45.9927C3.08824 40.8089 8.27206 37.5001 13.8971 37.6104C19.5221 37.7207 24.5956 41.2501 26.5809 46.5442C27.2426 45.0001 27.5735 43.3457 27.6838 41.581C27.6838 33.9707 21.6176 27.7942 14.1176 27.6839Z" fill="#AEAEAE"/>
<path d="M17.4258 38.0515C21.617 39.2647 25.0361 42.3529 26.5802 46.4338C27.242 44.8897 27.5728 43.2353 27.6831 41.4706C27.7934 35.2941 23.7125 29.7794 17.6464 28.125L17.4258 38.0515Z" fill="#AEAEAE"/>
<path d="M5.62523 23.1618C5.40464 29.0074 6.50758 34.7426 8.93405 40.0368C10.4782 39.5956 12.1326 39.375 13.787 39.375C15.4414 39.375 17.0958 39.7059 18.6399 40.2574C21.287 35.0735 22.6105 29.3382 22.6105 23.4926C22.9414 13.3456 19.6326 4.41176 14.6693 0C9.48552 4.19118 5.84582 12.9044 5.62523 23.1618Z" fill="#AEAEAE"/>
<path d="M8.16188 9.70591L7.7207 10.9191C12.2428 10.5883 16.7648 10.6986 21.2869 11.3603L20.7354 9.92649C20.7354 9.92649 12.3531 8.82355 8.16188 9.70591Z" fill="#AEAEAE"/>
<path d="M8.16211 9.70588C10.2577 9.59559 12.3533 9.59559 14.4489 9.59559C16.5445 9.59559 18.7503 9.70588 20.7356 9.92647C19.6327 6.17647 17.4268 2.75735 14.6695 0C11.6915 2.64706 9.37534 5.95588 8.16211 9.70588Z" fill="#868686"/>
<path d="M14.3379 14.8896C13.3452 14.8896 12.3526 15.2205 11.6908 15.8823C11.0291 16.5441 10.5879 17.5367 10.5879 18.5294C10.5879 20.6249 12.2423 22.2794 14.2276 22.2794C16.3232 22.2794 17.9776 20.7352 17.9776 18.6396C17.9776 16.5441 16.4335 14.8896 14.3379 14.8896Z" fill="#AEAEAE"/>
</g>
<defs>
<clipPath id="clip0_1063_1059">
<rect width="133.897" height="60" fill="white"/>
</clipPath>
</defs>
</svg>
