<svg width="203" height="49" viewBox="0 0 203 49" fill="none" xmlns="http://www.w3.org/2000/svg">
<path d="M69.0077 13.7453C69.8297 14.8006 70.2407 16.0078 70.2407 17.3631C70.2407 19.3182 69.5557 20.8697 68.1893 22.0139C66.8229 23.1582 64.9159 23.7284 62.472 23.7284H51.5742V0.333252H62.1054C64.4827 0.333252 66.3415 0.877585 67.6894 1.96625C69.0336 3.05491 69.7038 4.53239 69.7038 6.39867C69.7038 7.77616 69.3409 8.92036 68.6225 9.83128C67.9005 10.7422 66.9377 11.3754 65.738 11.7309C67.0932 12.0197 68.1819 12.6937 69.0039 13.7453H69.0077ZM57.2767 9.79425H61.0093C61.9424 9.79425 62.6608 9.5906 63.1607 9.17587C63.6606 8.76484 63.9087 8.16127 63.9087 7.36143C63.9087 6.5616 63.6606 5.95061 63.1607 5.52847C62.6608 5.10634 61.9424 4.89527 61.0093 4.89527H57.2767V9.79425V9.79425ZM63.6902 18.4776C64.2123 18.0444 64.4753 17.4186 64.4753 16.5966C64.4753 15.7745 64.2012 15.1302 63.6569 14.6636C63.1126 14.1971 62.3609 13.9638 61.4055 13.9638H57.273V19.1294H61.4722C62.4275 19.1294 63.1644 18.9146 63.6865 18.4814L63.6902 18.4776Z" fill="#33E2A0"/>
<path d="M79.2398 19.3293H86.705V23.7284H73.541V0.333252H79.2398V19.3293Z" fill="#33E2A0"/>
<path d="M94.4507 22.4287C92.6178 21.4067 91.1625 19.9773 90.085 18.1444C89.0074 16.3114 88.4668 14.2526 88.4668 11.9642C88.4668 9.67577 89.0037 7.62065 90.085 5.7988C91.1625 3.97696 92.6178 2.55502 94.4507 1.53301C96.2837 0.510999 98.2981 0 100.498 0C102.697 0 104.712 0.510999 106.545 1.53301C108.377 2.55502 109.822 3.97696 110.877 5.7988C111.932 7.62065 112.458 9.67577 112.458 11.9642C112.458 14.2526 111.925 16.3151 110.858 18.1444C109.792 19.9773 108.348 21.4067 106.526 22.4287C104.704 23.4507 102.693 23.9617 100.494 23.9617C98.2944 23.9617 96.28 23.4507 94.447 22.4287H94.4507ZM104.982 16.8965C106.104 15.6523 106.663 14.0082 106.663 11.9642C106.663 9.92017 106.1 8.24643 104.982 7.01706C103.86 5.78398 102.364 5.16559 100.498 5.16559C98.6314 5.16559 97.102 5.77658 95.9801 6.99855C94.8581 8.22052 94.2989 9.87573 94.2989 11.9642C94.2989 14.0526 94.8581 15.6819 95.9801 16.915C97.102 18.1481 98.6054 18.7628 100.498 18.7628C102.39 18.7628 103.856 18.1407 104.982 16.8965Z" fill="#33E2A0"/>
<path d="M131.162 7.73169C130.74 6.95407 130.133 6.36161 129.348 5.95058C128.559 5.53955 127.633 5.33218 126.563 5.33218C124.719 5.33218 123.242 5.93947 122.131 7.15033C121.02 8.36119 120.464 9.97937 120.464 11.9975C120.464 14.1526 121.049 15.8374 122.216 17.0483C123.382 18.2591 124.986 18.8627 127.03 18.8627C128.429 18.8627 129.611 18.5072 130.577 17.7963C131.544 17.0853 132.247 16.0633 132.692 14.7302H125.46V10.5311H137.857V15.83C137.435 17.2519 136.717 18.5739 135.706 19.7959C134.695 21.0178 133.41 22.0065 131.858 22.7619C130.303 23.5173 128.548 23.895 126.593 23.895C124.282 23.895 122.22 23.3914 120.409 22.3768C118.598 21.3659 117.187 19.9625 116.176 18.1629C115.166 16.3632 114.658 14.3081 114.658 11.9975C114.658 9.68684 115.162 7.628 116.176 5.81727C117.187 4.00653 118.591 2.59571 120.39 1.58481C122.19 0.573911 124.245 0.0703125 126.556 0.0703125C129.355 0.0703125 131.714 0.747946 133.636 2.10322C135.558 3.4585 136.828 5.33588 137.453 7.73539H131.155L131.162 7.73169Z" fill="#33E2A0"/>
<path d="M156.557 7.73169C156.135 6.95407 155.527 6.36161 154.742 5.95058C153.954 5.53955 153.028 5.33218 151.958 5.33218C150.114 5.33218 148.636 5.93947 147.525 7.15033C146.414 8.36119 145.859 9.97937 145.859 11.9975C145.859 14.1526 146.444 15.8374 147.61 17.0483C148.777 18.2591 150.38 18.8627 152.424 18.8627C153.824 18.8627 155.005 18.5072 155.972 17.7963C156.938 17.0853 157.642 16.0633 158.086 14.7302H150.854V10.5311H163.252V15.83C162.83 17.2519 162.111 18.5739 161.1 19.7959C160.089 21.0178 158.804 22.0065 157.253 22.7619C155.698 23.5173 153.942 23.895 151.987 23.895C149.677 23.895 147.614 23.3914 145.803 22.3768C143.993 21.3659 142.582 19.9625 141.571 18.1629C140.56 16.3632 140.053 14.3081 140.053 11.9975C140.053 9.68684 140.556 7.628 141.571 5.81727C142.582 4.00653 143.985 2.59571 145.785 1.58481C147.585 0.573911 149.64 0.0703125 151.95 0.0703125C154.75 0.0703125 157.108 0.747946 159.03 2.10322C160.952 3.4585 162.222 5.33588 162.848 7.73539H156.549L156.557 7.73169Z" fill="#33E2A0"/>
<path d="M172.117 4.89897V9.63133H179.749V14.0304H172.117V19.1627H180.748V23.7284H166.418V0.333252H180.748V4.89897H172.117V4.89897Z" fill="#33E2A0"/>
<path d="M196.378 23.7284L191.512 14.8969H190.146V23.7284H184.447V0.333252H194.012C195.856 0.333252 197.426 0.655413 198.726 1.29972C200.026 1.94404 200.996 2.82904 201.644 3.94732C202.288 5.06931 202.61 6.3209 202.61 7.69469C202.61 9.24993 202.17 10.6385 201.296 11.8605C200.418 13.0825 199.122 13.949 197.411 14.46L202.81 23.7247H196.378V23.7284ZM190.146 10.8644H193.679C194.723 10.8644 195.504 10.6089 196.03 10.0979C196.552 9.58689 196.811 8.86482 196.811 7.93168C196.811 6.99854 196.548 6.34312 196.03 5.83212C195.508 5.32111 194.723 5.06561 193.679 5.06561H190.146V10.8644Z" fill="#33E2A0"/>
<path d="M56.6549 47.1088C55.1071 46.2386 53.8777 45.0352 52.9742 43.4985C52.067 41.958 51.6152 40.2177 51.6152 38.2736C51.6152 36.3296 52.067 34.6151 52.9742 33.0747C53.8814 31.5343 55.1071 30.3308 56.6549 29.4643C58.2028 28.5978 59.9024 28.1609 61.7539 28.1609C63.6053 28.1609 65.3272 28.5941 66.8676 29.4643C68.4081 30.3345 69.6263 31.538 70.5224 33.0747C71.4185 34.6151 71.8666 36.3481 71.8666 38.2736C71.8666 40.1991 71.4185 41.9617 70.5224 43.4985C69.6263 45.0389 68.4006 46.2423 66.8528 47.1088C65.305 47.979 63.6053 48.4123 61.7539 48.4123C59.9024 48.4123 58.2028 47.979 56.6549 47.1088ZM64.8977 44.065C65.8049 43.5281 66.5121 42.7579 67.0232 41.7544C67.5342 40.7546 67.7897 39.5919 67.7897 38.2699C67.7897 36.948 67.5342 35.7926 67.0232 34.8003C66.5121 33.8079 65.8049 33.0488 64.8977 32.5193C63.9904 31.9897 62.9425 31.7268 61.7539 31.7268C60.5652 31.7268 59.5099 31.9897 58.5953 32.5193C57.6806 33.0488 56.966 33.8079 56.455 34.8003C55.944 35.7926 55.6885 36.948 55.6885 38.2699C55.6885 39.5919 55.944 40.7546 56.455 41.7544C56.966 42.7542 57.6769 43.5244 58.5953 44.065C59.5099 44.6019 60.5652 44.8722 61.7539 44.8722C62.9425 44.8722 63.9904 44.6019 64.8977 44.065Z" fill="white"/>
<path d="M78.7237 28.4424V40.6806C78.7237 42.021 79.0717 43.0468 79.7716 43.754C80.4714 44.4613 81.4527 44.8168 82.7191 44.8168C83.9855 44.8168 84.9964 44.4613 85.6926 43.754C86.3924 43.0468 86.7405 42.021 86.7405 40.6806V28.4424H90.736V40.651C90.736 42.3321 90.3731 43.754 89.6436 44.9131C88.9178 46.0758 87.944 46.9497 86.7257 47.5347C85.5074 48.1198 84.1522 48.4123 82.6599 48.4123C81.1676 48.4123 79.8493 48.1198 78.6533 47.5347C77.4535 46.9497 76.5056 46.0758 75.8057 44.9131C75.1059 43.7503 74.7578 42.3321 74.7578 40.651V28.4424H78.7237V28.4424Z" fill="white"/>
<path d="M108.014 28.4424V31.6417H102.745V48.2124H98.779V31.6417H93.5098V28.4424H108.014Z" fill="white"/>
<path d="M121.1 48.2161L116.738 40.5103H114.868V48.2161H110.902V28.4424H118.323C119.852 28.4424 121.156 28.7127 122.233 29.2496C123.311 29.7865 124.118 30.516 124.655 31.4307C125.192 32.3453 125.462 33.371 125.462 34.5041C125.462 35.8075 125.085 36.9814 124.329 38.0293C123.574 39.0772 122.448 39.7993 120.96 40.1955L125.692 48.2124H121.104L121.1 48.2161ZM114.868 37.5368H118.182C119.26 37.5368 120.06 37.2776 120.589 36.7592C121.119 36.2408 121.382 35.5187 121.382 34.593C121.382 33.6672 121.119 32.9822 120.589 32.4823C120.06 31.9824 119.256 31.7306 118.182 31.7306H114.868V37.5368Z" fill="white"/>
<path d="M133.024 31.6416V36.5998H139.682V39.7436H133.024V44.9832H140.53V48.2122H129.059V28.4126H140.53V31.6416H133.024V31.6416Z" fill="white"/>
<path d="M156.254 44.4463H148.377L147.074 48.2122H142.908L150.018 28.4126H154.635L161.745 48.2122H157.553L156.25 44.4463H156.254ZM155.176 41.2729L152.314 33.0005L149.451 41.2729H155.172H155.176Z" fill="white"/>
<path d="M164.766 33.0746C165.643 31.5342 166.843 30.3382 168.365 29.4754C169.883 28.6163 171.59 28.1868 173.479 28.1868C175.689 28.1868 177.622 28.7533 179.285 29.8864C180.947 31.0195 182.106 32.5859 182.769 34.5891H178.207C177.755 33.6449 177.115 32.9376 176.296 32.4637C175.474 31.9934 174.526 31.7564 173.449 31.7564C172.297 31.7564 171.272 32.0267 170.375 32.5636C169.479 33.1006 168.779 33.8634 168.28 34.8447C167.78 35.8259 167.528 36.9775 167.528 38.2995C167.528 39.6214 167.78 40.7508 168.28 41.7395C168.779 42.7319 169.479 43.4947 170.375 44.0353C171.272 44.5723 172.297 44.8426 173.449 44.8426C174.526 44.8426 175.474 44.6019 176.296 44.1205C177.119 43.6391 177.755 42.9282 178.207 41.9802H182.769C182.106 44.002 180.951 45.5721 179.3 46.6977C177.648 47.8234 175.708 48.3826 173.479 48.3826C171.59 48.3826 169.887 47.953 168.365 47.094C166.843 46.2349 165.647 45.0388 164.766 43.5095C163.888 41.9802 163.447 40.2435 163.447 38.2958C163.447 36.348 163.888 34.6077 164.766 33.0709V33.0746Z" fill="white"/>
<path d="M202.568 28.4424V48.2161H198.602V39.803H190.134V48.2161H186.168V28.4424H190.134V36.574H198.602V28.4424H202.568V28.4424Z" fill="white"/>
<path d="M22.2176 46.2868C34.4881 46.2868 44.4352 36.3396 44.4352 24.0692C44.4352 11.7987 34.4881 1.85156 22.2176 1.85156C9.94717 1.85156 0 11.7987 0 24.0692C0 36.3396 9.94717 46.2868 22.2176 46.2868Z" fill="white"/>
<path d="M35.1784 19.2366C35.1784 19.6884 34.8118 20.055 34.3527 20.055C33.9009 20.055 33.5343 19.6847 33.5343 19.2292C33.5417 17.2593 32.7826 15.4041 31.3977 14.0044C31.394 14.0007 31.3866 13.9933 31.3829 13.9896C29.998 12.601 28.154 11.8308 26.1914 11.8196C25.7396 11.8196 25.373 11.4493 25.373 10.9939C25.373 10.5421 25.7433 10.1755 26.1988 10.1755C28.5983 10.1866 30.8497 11.1272 32.5419 12.8231C32.5493 12.8305 32.5567 12.8379 32.5642 12.8454C34.2601 14.5561 35.1858 16.826 35.1784 19.2366V19.2366Z" fill="#5A34CD"/>
<path d="M31.8894 19.222C31.8894 19.6774 31.5154 20.0403 31.0636 20.0403C30.6119 20.0403 30.2453 19.67 30.2453 19.2146C30.249 18.1222 29.8306 17.0928 29.0604 16.3152C28.2901 15.5375 27.2681 15.108 26.1758 15.1043C25.7203 15.1043 25.3574 14.734 25.3574 14.2786C25.3574 13.8268 25.7277 13.4602 26.1832 13.4602C27.7125 13.4676 29.1455 14.0675 30.2231 15.1487L30.2305 15.1562C31.308 16.2448 31.9005 17.689 31.8931 19.2183L31.8894 19.222Z" fill="#5A34CD"/>
<path d="M30.2309 15.1598C31.3084 16.2485 31.9009 17.6926 31.8935 19.2219C31.8935 19.6774 31.5195 20.0403 31.0677 20.0403C30.616 20.0403 30.2494 19.67 30.2494 19.2145C30.2531 18.1221 29.8347 17.0927 29.0645 16.3151L30.2235 15.1487L30.2309 15.1561V15.1598Z" fill="#451CC0"/>
<path d="M35.1783 19.2367C35.1783 19.6884 34.8117 20.055 34.3526 20.055C33.9008 20.055 33.5342 19.6847 33.5342 19.2293C33.5416 17.2593 32.7825 15.4041 31.3976 14.0044C31.3939 14.0007 31.3865 13.9933 31.3828 13.9896L32.5418 12.8269C32.5418 12.8269 32.5566 12.8417 32.5641 12.8491C34.26 14.5599 35.1857 16.8298 35.1783 19.2404V19.2367Z" fill="#451CC0"/>
<path d="M16.3487 34.0002C16.3265 34.0224 14.338 36.0146 14.3232 36.0294C14.0973 36.2553 13.7345 36.2516 13.516 36.0294L11.472 33.9817L11.4498 33.9595L9.42054 31.9265C9.19836 31.7044 9.19836 31.3452 9.42054 31.1193L11.098 29.4345L11.4386 29.0938C11.6608 28.8716 12.0237 28.8679 12.2459 29.0938L14.2788 31.123L14.2973 31.1452L16.3487 33.193C16.5709 33.4151 16.5709 33.778 16.3487 34.0002Z" fill="#451CC0"/>
<path d="M16.3482 34.0002C16.326 34.0224 14.3375 36.0146 14.3227 36.0294C14.0968 36.2553 13.7339 36.2516 13.5155 36.0294L11.4714 33.9817L11.4492 33.9595L13.534 31.871L14.2783 31.123L14.2968 31.1453L16.3482 33.193C16.5704 33.4152 16.5704 33.778 16.3482 34.0002V34.0002Z" fill="#5A34CD"/>
<path d="M25.718 36.2776L24.2257 37.7736C23.9702 38.0328 23.5518 38.0328 23.2925 37.7736L18.9971 33.4856C18.7379 33.2301 18.7379 32.8116 18.9971 32.5524L20.4894 31.0565C20.7449 30.7973 21.1634 30.7973 21.4226 31.0565L25.718 35.3445C25.9772 35.6 25.9772 36.0184 25.718 36.2776Z" fill="#451CC0"/>
<path d="M22.5031 29.8012L21.3293 30.9788L18.9187 33.3931L17.6559 34.6558C17.2894 35.0224 16.6895 35.0261 16.3229 34.6558L13.5346 31.8712L11.098 29.4383L10.7426 29.0829C10.3723 28.7163 10.3723 28.1164 10.7426 27.7498L15.5897 22.8953L19.0445 26.3464L22.5031 29.8012V29.8012Z" fill="#33E2A0"/>
<path d="M22.5037 29.801L21.3298 30.9786L18.9192 33.3929L17.6565 34.6556C17.2899 35.0222 16.6901 35.0259 16.3235 34.6556L13.5352 31.871L14.2795 31.1267L19.0451 26.3462L22.5037 29.801V29.801Z" fill="#00CB7E"/>
<path d="M31.6569 27.4906L22.5032 29.8012L19.0447 26.3464L15.5898 22.8952L17.8857 13.7378C18.0449 12.9787 18.9817 12.701 19.5335 13.2491L25.8322 19.5366L25.8396 19.544L32.1457 25.839C32.6937 26.3871 32.416 27.3239 31.6606 27.4869L31.6569 27.4906Z" fill="#5A34CD"/>
<path d="M31.6571 27.4905L22.5035 29.8011L19.0449 26.3463L25.8324 19.5403L25.8398 19.5477L32.1459 25.8427C32.6939 26.3907 32.4199 27.3276 31.6608 27.4905H31.6571Z" fill="#451CC0"/>
</svg>
