<svg width="203" height="60" viewBox="0 0 203 60" fill="none" xmlns="http://www.w3.org/2000/svg">
<g clip-path="url(#clip0_1063_1017)">
<path d="M60.7543 30.0043C60.7543 37.9596 57.5543 45.5892 51.8584 51.2145C46.1625 56.8398 38.4371 60 30.3819 60C29.9145 60 29.4471 60 28.9797 60C26.4209 59.8925 23.8868 59.4587 21.4407 58.7092C16.0671 57.0767 11.2576 54.0037 7.54734 49.8321C3.83712 45.6605 1.37173 40.554 0.425547 35.0808C-0.520637 29.6076 0.0894995 23.9825 2.18805 18.8315C4.28661 13.6804 7.79127 9.20546 12.312 5.90463C16.8327 2.6038 22.1922 0.606566 27.794 0.135191C33.3958 -0.336185 39.0202 0.736789 44.0412 3.2347C49.0622 5.73262 53.2829 9.55749 56.2336 14.2837C59.1843 19.0098 60.7493 24.4519 60.7543 30.0043V30.0043Z" fill="#AEAEAE"/>
<path d="M83.2672 18.4558V18.1994C84.1758 17.666 84.9211 16.8996 85.4241 15.9815C85.927 15.0634 86.1687 14.0278 86.1235 12.9849C86.1235 10.6769 85.5177 9.05275 84.2193 8.02696C82.921 7.00117 81.0168 6.48828 78.4201 6.48828H68.5527V31.6286H78.5932C83.8731 31.6286 86.4698 29.2351 86.4698 24.3626C86.4698 21.1912 85.4311 19.2251 83.2672 18.4558ZM75.6503 12.0446H76.9486C77.1999 12.016 77.4543 12.0568 77.6835 12.1625C77.9127 12.2681 78.1078 12.4344 78.247 12.643C78.5698 13.2779 78.7189 13.9852 78.6798 14.6946C78.7515 15.369 78.6316 16.0498 78.3335 16.6607C78.1685 16.8409 77.9686 16.9867 77.7456 17.0895C77.5226 17.1923 77.2811 17.2499 77.0352 17.259H75.6503V12.0446ZM78.6798 26.5766C78.2184 26.9583 77.637 27.1698 77.0352 27.175H75.7369V21.1912H77.0352C77.8142 21.1912 78.4201 21.3622 78.6798 21.8751C79.0162 22.6271 79.1646 23.448 79.1125 24.2686C79.1892 25.0627 79.0393 25.8622 78.6798 26.5766V26.5766Z" fill="#AEAEAE"/>
<path d="M101.79 31.6286H88.8066V6.48828H95.8177V25.9782H102.136L101.79 31.6286Z" fill="#AEAEAE"/>
<path d="M120.66 8.96722C119.102 7.00113 116.505 5.97534 112.956 5.97534C109.408 5.97534 106.811 7.00113 105.253 9.0527C103.695 11.1043 102.916 14.3526 102.916 18.8832C102.916 23.4137 103.695 26.662 105.253 28.7991C106.811 30.9362 109.408 31.9619 112.956 31.9619C116.505 31.9619 119.102 30.8507 120.66 28.7136C122.218 26.5766 122.997 23.2428 122.997 18.7122C122.997 14.1816 122.218 10.9333 120.66 8.96722ZM115.899 19.909C115.899 22.3879 115.726 24.0121 115.38 24.7814C115.161 25.1929 114.82 25.5282 114.402 25.7422C113.984 25.9562 113.51 26.0385 113.043 25.9782C112.564 26.0458 112.075 25.9675 111.642 25.7536C111.209 25.5398 110.852 25.2007 110.619 24.7814C110.187 24.0121 110.014 22.3025 110.014 19.6525V18.7122C109.921 17.0428 110.097 15.3696 110.533 13.7542C110.73 13.3201 111.064 12.9607 111.486 12.7296C111.907 12.4985 112.392 12.4081 112.87 12.472C113.358 12.4193 113.85 12.5136 114.283 12.7425C114.715 12.9713 115.068 13.324 115.293 13.7542C115.726 14.6091 115.899 16.3187 115.899 18.7977V19.909Z" fill="#AEAEAE"/>
<path d="M141.086 13.9251C139.214 13.2795 137.265 12.8772 135.287 12.7283C134.757 12.687 134.228 12.8141 133.776 13.0909C133.325 13.3677 132.975 13.7798 132.777 14.267C132.245 15.8648 132.01 17.5446 132.085 19.225C131.984 20.9001 132.19 22.5794 132.69 24.1829C132.898 24.6811 133.263 25.0999 133.731 25.3771C134.198 25.6542 134.744 25.7751 135.287 25.7216C136.047 25.6805 136.8 25.566 137.538 25.3797V22.3023H135.72V17.5153H143.51V31.6285H138.663L137.97 30.3462H137.797C137.364 30.6881 136.932 31.0301 136.672 31.201C135.733 31.8349 134.604 32.1362 133.469 32.0559C127.757 32.0559 124.9 27.7817 124.9 19.2335C124.9 14.9594 125.679 11.7111 127.151 9.48855C128.622 7.26601 131.219 6.06926 134.768 6.06926C137.282 6.0102 139.783 6.44608 142.125 7.35149L141.086 13.9251Z" fill="#AEAEAE"/>
<path d="M162.379 13.9251C160.507 13.2795 158.557 12.8772 156.58 12.7283C156.05 12.687 155.521 12.8141 155.069 13.0909C154.618 13.3677 154.268 13.7798 154.07 14.267C153.538 15.8648 153.303 17.5446 153.377 19.225C153.277 20.9001 153.483 22.5794 153.983 24.1829C154.191 24.6811 154.556 25.0999 155.024 25.3771C155.491 25.6542 156.037 25.7751 156.58 25.7216C157.34 25.6805 158.093 25.566 158.83 25.3797V22.3023H157.013V17.5153H164.803V31.6285H159.956L159.263 30.3462H159.09C158.657 30.6881 158.225 31.0301 157.965 31.201C157.026 31.8349 155.897 32.1362 154.762 32.0559C149.05 32.0559 146.193 27.7817 146.193 19.2335C146.193 14.9594 146.972 11.7111 148.444 9.48855C149.915 7.26601 152.512 6.06926 156.061 6.06926C158.575 6.0102 161.076 6.44608 163.418 7.35149L162.379 13.9251Z" fill="#AEAEAE"/>
<path d="M182.114 31.6286H168.352V6.48828H182.547L182.114 12.643H175.363V16.4042H181.248V21.7896H175.363V25.9782H182.547L182.114 31.6286Z" fill="#AEAEAE"/>
<path d="M199.424 20.9348C200.34 20.1911 201.079 19.2572 201.588 18.1994C202.073 17.0046 202.309 15.7252 202.28 14.4381C202.28 11.6172 201.675 9.65112 200.376 8.36889C199.078 7.08666 197.174 6.48828 194.404 6.48828H184.883V31.6286H191.807V22.5589H192.759L195.269 31.6286H202.8L199.424 20.9348ZM194.317 17.6865C194.122 17.8982 193.88 18.0624 193.61 18.1663C193.339 18.2701 193.048 18.3107 192.759 18.2848H191.721V12.643H192.846C193.123 12.6057 193.405 12.6414 193.663 12.7465C193.922 12.8516 194.147 13.0223 194.317 13.2414C194.647 13.9352 194.795 14.6991 194.75 15.4639C194.806 16.2294 194.657 16.996 194.317 17.6865V17.6865Z" fill="#AEAEAE"/>
<path d="M83.2677 39.5696C81.7963 37.9455 79.6324 37.1761 76.8626 37.1761C75.6851 37.113 74.5072 37.2932 73.4043 37.7054C72.3014 38.1175 71.2977 38.7525 70.4575 39.5696C68.986 41.1083 68.207 43.4163 68.207 46.4082C68.207 49.4001 68.986 51.6226 70.4575 53.2468C71.9289 54.871 74.0928 55.6403 76.8626 55.6403C79.6324 55.6403 81.7963 54.871 83.2677 53.2468C84.7392 51.6226 85.5182 49.4001 85.5182 46.4082C85.5182 43.4163 84.8257 41.1083 83.2677 39.5696ZM76.8626 52.4775C76.2018 52.5229 75.5398 52.4061 74.9358 52.1377C74.3317 51.8692 73.8042 51.4573 73.4004 50.9388C72.5509 49.5836 72.157 47.9978 72.2751 46.4082C72.1767 44.823 72.5691 43.2458 73.4004 41.8862C73.8042 41.3676 74.3317 40.9558 74.9358 40.6873C75.5398 40.4188 76.2018 40.3021 76.8626 40.3475C79.892 40.3475 81.45 42.3991 81.45 46.4168C81.45 50.4344 79.892 52.4775 76.8626 52.4775Z" fill="#AEAEAE"/>
<path d="M104.04 37.4326V49.0582C104.075 50.2819 103.776 51.4923 103.175 52.563C102.576 53.5823 101.667 54.3898 100.578 54.871C99.3213 55.4042 97.9639 55.6664 96.5964 55.6403C94.6121 55.761 92.6576 55.1176 91.1434 53.8452C90.4926 53.2141 89.986 52.4528 89.6576 51.6124C89.3291 50.772 89.1865 49.872 89.2392 48.9727V37.4326H93.0477V48.3743C92.9515 49.4696 93.2589 50.5623 93.9132 51.4517C94.4325 52.1356 95.3847 52.392 96.683 52.392C97.1852 52.4304 97.6901 52.3668 98.1665 52.2051C98.6429 52.0434 99.0806 51.787 99.4528 51.4517C100.107 50.5623 100.414 49.4696 100.318 48.3743V37.4326H104.04Z" fill="#AEAEAE"/>
<path d="M115.553 55.3839H111.744V40.5955H106.811V37.4326H120.486V40.5955H115.553V55.3839Z" fill="#AEAEAE"/>
<path d="M132.431 47.5196C133.436 47.1072 134.305 46.4264 134.941 45.5535C135.524 44.727 135.827 43.7395 135.806 42.7326C135.864 41.9665 135.729 41.1983 135.411 40.497C135.094 39.7957 134.605 39.1833 133.989 38.7149C132.864 37.7746 130.959 37.3472 128.536 37.3472H123.256V55.2984H127.064V48.4599H129.228L133.556 55.2984H137.797L132.431 47.5196ZM130.959 44.7841C130.149 45.2515 129.212 45.4605 128.276 45.3825H127.064V40.5955H128.19C129.142 40.5305 130.095 40.7071 130.959 41.1084C131.26 41.2964 131.502 41.5647 131.655 41.8824C131.808 42.2001 131.867 42.5541 131.825 42.9035C131.857 43.264 131.794 43.6266 131.642 43.956C131.49 44.2855 131.255 44.5707 130.959 44.7841Z" fill="#AEAEAE"/>
<path d="M150.434 55.3839H139.961V37.4326H150.434V40.51H143.856V44.4507H150.001V47.5281H143.856V52.1441H150.434V55.3839Z" fill="#AEAEAE"/>
<path d="M163.071 37.3472H158.397L151.992 55.3839H156.147L157.445 51.1098H164.023L165.322 55.3839H169.476L163.071 37.3472ZM158.397 47.87C159.696 43.6814 160.475 41.1169 160.734 40.0912C160.821 40.3476 160.907 40.775 161.081 41.2879C161.254 41.8008 161.946 44.0233 163.158 47.87H158.397Z" fill="#AEAEAE"/>
<path d="M179.258 40.339C178.601 40.2995 177.946 40.4282 177.354 40.7128C176.763 40.9974 176.256 41.4281 175.882 41.9632C175.011 43.3122 174.588 44.8958 174.671 46.4937C174.671 50.5114 176.229 52.4775 179.258 52.4775C180.829 52.4124 182.378 52.0948 183.846 51.5372V54.7086C182.252 55.3473 180.545 55.667 178.825 55.6489C176.229 55.6489 174.151 54.8795 172.766 53.2554C171.382 51.6312 170.689 49.4087 170.689 46.4168C170.646 44.7348 171.001 43.0662 171.728 41.5443C172.371 40.204 173.393 39.0759 174.671 38.296C176.037 37.5197 177.596 37.1349 179.172 37.1847C181.008 37.2031 182.816 37.642 184.451 38.4669L183.24 41.5443C182.563 41.2232 181.87 40.9378 181.162 40.6895C180.56 40.4421 179.911 40.3227 179.258 40.339V40.339Z" fill="#AEAEAE"/>
<path d="M202.628 55.3839H198.733V47.6905H191.549V55.3839H187.74V37.4326H191.549V44.4507H198.733V37.4412H202.541V55.3924L202.628 55.3839Z" fill="#AEAEAE"/>
<path d="M8.04971 33.928L18.523 30.0813L23.3701 43.1601L12.8968 47.0153C12.562 47.1393 12.2053 47.1955 11.848 47.1806C11.4906 47.1656 11.14 47.0798 10.817 46.9283C10.494 46.7768 10.2051 46.5626 9.96761 46.2985C9.73012 46.0344 9.54885 45.7259 9.4346 45.3912L6.40516 37.3558C6.28193 37.0244 6.2268 36.6719 6.243 36.3192C6.25919 35.9664 6.34639 35.6204 6.49948 35.3013C6.65258 34.9822 6.86852 34.6964 7.13469 34.4606C7.40085 34.2248 7.71192 34.0438 8.04971 33.928V33.928Z" fill="#AEAEAE"/>
<path d="M50.0296 26.0636C50.313 26.8166 50.3639 27.6357 50.1758 28.4173C49.9877 29.1989 49.5691 29.9078 48.9729 30.4543C48.3767 31.0009 47.6297 31.3605 46.8265 31.4876C46.0233 31.6147 45.2 31.5037 44.4607 31.1686C43.7214 30.8334 43.0994 30.2893 42.6734 29.6049C42.2474 28.9205 42.0365 28.1267 42.0674 27.3239C42.0984 26.5212 42.3697 25.7455 42.8472 25.0951C43.3247 24.4447 43.9868 23.9487 44.7497 23.6701C45.255 23.4794 45.7938 23.3902 46.3345 23.4077C46.8752 23.4251 47.4069 23.5489 47.8986 23.7718C48.3902 23.9947 48.8319 24.3122 49.1979 24.7057C49.5638 25.0992 49.8465 25.5608 50.0296 26.0636V26.0636Z" fill="#F5F5F7"/>
<path d="M5.1933 38.1166L6.40508 37.6892L9.26142 45.3057L8.04964 45.7331C7.65812 45.8647 7.2299 45.8389 6.85744 45.6614C6.48498 45.4839 6.19814 45.1688 6.05886 44.7842L4.24119 40.0827C4.10752 39.6971 4.13238 39.2752 4.31042 38.9075C4.48846 38.5399 4.80548 38.2559 5.1933 38.1166Z" fill="#F5F5F7"/>
<path d="M23.5437 28.286L18.5234 30.1666L23.3706 43.2454L28.3908 41.3648C28.3908 41.3648 42.0666 37.0907 51.7608 43.5873L45.7885 27.6021L39.8161 11.6169C36.7867 22.7296 23.5437 28.286 23.5437 28.286Z" fill="#F5F5F7"/>
<path d="M40.0759 10.4202C39.47 10.6766 39.0372 11.275 39.2103 11.7024L51.2416 43.8438C51.3068 43.97 51.3975 44.0818 51.508 44.1723C51.6184 44.2629 51.7465 44.3302 51.8842 44.3702C52.0219 44.4102 52.1664 44.422 52.3089 44.405C52.4514 44.388 52.5889 44.3424 52.713 44.2712V44.2712C53.3189 44.0147 53.7517 43.4164 53.5786 42.9889L41.5473 10.8476C41.4008 10.6073 41.1684 10.4301 40.8959 10.3509C40.6234 10.2718 40.3308 10.2965 40.0759 10.4202V10.4202Z" fill="#AEAEAE"/>
<path d="M15.7547 48.7249L23.1119 46.0749L22.1598 43.5959L12.6387 47.1007L12.7252 47.4426C12.9616 48.004 13.4104 48.452 13.9762 48.6915C14.542 48.931 15.1801 48.943 15.7547 48.7249Z" fill="#ADADAD"/>
<path d="M28.9802 59.9658C26.4214 59.8583 23.8874 59.4245 21.4412 58.675L15.668 48.8018L23.1118 46.0664L28.9802 59.9658Z" fill="#CECECE"/>
<g opacity="0.21">
<path d="M5.36794 42.7411L6.06039 44.7071C6.12851 44.9077 6.23753 45.0922 6.38072 45.2495C6.52391 45.4068 6.69823 45.5334 6.89291 45.6215C7.08759 45.7096 7.29849 45.7574 7.51259 45.7618C7.7267 45.7663 7.93945 45.7274 8.13772 45.6475L9.08984 45.3055C9.17639 45.22 9.3495 45.3055 9.43606 45.4765C9.69016 46.1327 10.197 46.663 10.8457 46.9513C11.4945 47.2396 12.2324 47.2626 12.8983 47.0152L23.3715 43.1599L28.3918 41.3648C28.5649 41.2793 41.7213 37.4326 50.9828 43.0744L51.329 43.9293C51.4994 44.1665 51.7473 44.3386 52.0311 44.4164C52.3149 44.4943 52.6171 44.4732 52.887 44.3567C53.1585 44.2823 53.3907 44.1077 53.5357 43.8691C53.6806 43.6305 53.7273 43.346 53.666 43.0744L48.992 30.6795C48.9864 30.6331 48.9912 30.586 49.0061 30.5417C49.0211 30.4973 49.0458 30.4568 49.0786 30.4231C49.609 29.9315 49.994 29.3066 50.1922 28.6154C50.3905 27.9242 50.3945 27.1927 50.2038 26.4994C50.2038 26.3285 50.0307 26.243 49.8576 26.3285L5.54105 42.4761C5.36794 42.4761 5.28138 42.647 5.36794 42.7411Z" fill="#606060"/>
</g>
<path d="M14.6283 35.9794C12.8972 36.5778 11.4258 37.1762 11.4258 37.1762L11.772 38.1165L14.9746 37.0052C16.7057 36.4068 18.1771 35.8085 18.1771 35.8085L17.8309 34.8682L14.6283 35.9794Z" fill="#AEAEAE"/>
<path d="M14.6283 37.6891C12.8972 38.2875 11.4258 38.8859 11.4258 38.8859L11.772 39.8262L14.9746 38.7149C16.7057 38.1166 18.1771 37.5182 18.1771 37.5182L17.8309 36.5779C16.733 36.8567 15.6615 37.2285 14.6283 37.6891V37.6891Z" fill="#AEAEAE"/>
<path d="M14.6283 39.322C12.8972 39.9203 11.4258 40.5187 11.4258 40.5187L11.772 41.459L14.9746 40.3477C16.7057 39.7494 18.1771 39.151 18.1771 39.151L17.8309 38.2107C16.733 38.4895 15.6615 38.8613 14.6283 39.322V39.322Z" fill="#AEAEAE"/>
<path d="M14.6283 40.9374C12.8972 41.5358 11.4258 42.1342 11.4258 42.1342L11.772 43.0745L14.9746 41.9632C16.7057 41.3649 18.1771 40.7665 18.1771 40.7665L17.8309 39.8262L14.6283 40.9374Z" fill="#AEAEAE"/>
</g>
<defs>
<clipPath id="clip0_1063_1017">
<rect width="202.8" height="60" fill="white"/>
</clipPath>
</defs>
</svg>
