<svg width="177" height="60" viewBox="0 0 177 60" fill="none" xmlns="http://www.w3.org/2000/svg">
<g clip-path="url(#clip0_1063_1003)">
<path d="M8.38375 26.2832V41.1073H0.324219V2.48267H11.3927C16.5533 2.48267 20.3724 3.43823 22.85 5.34936C25.3276 7.26048 26.5661 10.1617 26.5654 14.0529C26.5654 16.3245 25.9505 18.3454 24.7208 20.1158C23.4911 21.8862 21.7503 23.2726 19.4983 24.2751C25.2144 32.9583 28.9382 38.5673 30.6695 41.1019H21.7328L12.665 26.2832H8.38375ZM8.38375 19.6231H10.9819C13.5279 19.6231 15.4071 19.1919 16.6193 18.3294C17.8316 17.467 18.4377 16.1108 18.4377 14.2608C18.4377 12.4301 17.8187 11.1268 16.5806 10.3511C15.3425 9.57545 13.4224 9.18939 10.8205 9.19294H8.38375V19.6231Z" fill="#868686"/>
<path d="M47.9733 41.631C43.2969 41.631 39.6423 40.3189 37.0096 37.6947C34.3769 35.0704 33.0605 31.3548 33.0605 26.5479C33.0605 21.5994 34.2773 17.7736 36.7109 15.0704C39.1445 12.3673 42.5091 11.0164 46.8047 11.0178C50.9103 11.0178 54.1058 12.2062 56.3913 14.5831C58.6767 16.9599 59.8201 20.2443 59.8215 24.4362V28.3459H41.0886C41.1753 30.636 41.8422 32.4234 43.0894 33.7082C44.3365 34.9929 46.0861 35.6357 48.338 35.6364C50.0073 35.6456 51.672 35.4595 53.2995 35.0818C54.9839 34.6667 56.6211 34.0737 58.1845 33.3125V39.5461C56.7748 40.259 55.282 40.7872 53.7418 41.1181C52.1655 41.4601 50.2427 41.631 47.9733 41.631ZM46.8571 16.7437C45.1739 16.7437 43.8572 17.2866 42.907 18.3723C41.9568 19.4579 41.4114 20.9944 41.271 22.9816H52.3908C52.3552 20.9908 51.8441 19.4544 50.8575 18.3723C49.871 17.2901 48.5375 16.7473 46.8571 16.7437Z" fill="#868686"/>
<path d="M75.4598 41.631C72.0473 41.631 69.3671 40.2837 67.4191 37.5891C65.4711 34.8944 64.4968 31.1618 64.4961 26.391C64.4961 21.5478 65.4876 17.775 67.4705 15.0725C69.4534 12.3701 72.1857 11.0192 75.6673 11.0199C79.3222 11.0199 82.1111 12.4639 84.0339 15.3519H84.2928C83.8945 13.1479 83.6954 11.1841 83.6954 9.46072V0H91.6459V41.102H85.5672L84.0349 37.2723H83.6975C81.8962 40.1788 79.1503 41.6317 75.4598 41.631ZM78.2403 35.2119C80.2665 35.2119 81.7516 34.6132 82.6955 33.4159C83.6395 32.2186 84.1548 30.1845 84.2414 27.3135V26.4422C84.2414 23.272 83.7607 21 82.7993 19.6264C81.8379 18.2528 80.2749 17.5659 78.1103 17.5659C76.3433 17.5659 74.9703 18.3278 73.9915 19.8514C73.0126 21.375 72.5235 23.5894 72.5242 26.4945C72.5242 29.401 73.0178 31.5805 74.0051 33.0331C74.9923 34.4856 76.4048 35.2119 78.2424 35.2119H78.2403Z" fill="#868686"/>
<path d="M118.447 41.102H110.523V23.8528C110.523 19.5912 108.964 17.4604 105.846 17.4604C103.629 17.4604 102.027 18.2264 101.04 19.7586C100.053 21.2908 99.5615 23.7739 99.5643 27.208V41.102H91.6348V0H99.5643V8.37398C99.5643 9.02595 99.5035 10.5581 99.382 12.9705L99.2007 15.3477H99.6199C101.387 12.4597 104.193 11.0156 108.038 11.0156C111.45 11.0156 114.04 11.9488 115.806 13.8151C117.572 15.6815 118.456 18.3583 118.457 21.8457L118.447 41.102Z" fill="#9E9E9E"/>
<path d="M145.052 41.102L143.518 37.0878H143.309C141.974 38.7941 140.601 39.9783 139.19 40.6402C137.779 41.3021 135.939 41.6324 133.67 41.631C130.881 41.631 128.685 40.8208 127.083 39.2005C125.481 37.5801 124.68 35.2733 124.68 32.2801C124.68 29.1461 125.758 26.8354 127.915 25.348C130.072 23.8606 133.324 23.0373 137.67 22.878L142.711 22.7191V21.4234C142.711 18.4301 141.204 16.9331 138.19 16.9324C135.869 16.9324 133.141 17.6455 130.006 19.0718L127.386 13.6327C130.728 11.8553 134.434 10.9666 138.506 10.9666C142.402 10.9666 145.39 11.8293 147.469 13.5549C149.547 15.2805 150.587 17.9047 150.587 21.4276V41.102H145.052ZM142.714 27.4191L139.647 27.5257C137.341 27.5968 135.627 28.0195 134.503 28.7938C133.38 29.568 132.817 30.7479 132.815 32.3334C132.815 34.605 134.096 35.7408 136.659 35.7408C138.495 35.7408 139.962 35.2037 141.061 34.1294C142.159 33.0551 142.709 31.6288 142.711 29.8507L142.714 27.4191Z" fill="#9E9E9E"/>
<path d="M170.982 35.2119C172.368 35.2119 174.03 34.9037 175.97 34.2873V40.2841C173.995 41.182 171.571 41.631 168.695 41.631C165.526 41.631 163.218 40.8166 161.772 39.1877C160.326 37.5589 159.603 35.1152 159.603 31.8568V17.6193H155.809V14.2066L160.174 11.518L162.461 5.28442H167.527V11.5766H175.655V17.6257H167.523V31.8632C167.523 33.0086 167.837 33.8539 168.466 34.3993C169.095 34.9446 169.934 35.2155 170.982 35.2119Z" fill="#9E9E9E"/>
<path d="M9.04889 48.738L6.79034 55.3982C6.61425 55.932 6.46729 56.4753 6.35015 57.0256H6.30299C6.22001 56.4781 6.08811 55.9394 5.90892 55.4163L3.65142 48.738H0V60H2.24598V53.7718C2.24598 52.9336 2.21034 51.9641 2.14641 50.8518H2.21663C2.37489 51.6954 2.48703 52.2158 2.56354 52.4248L5.19729 59.9968H7.23785L9.83074 52.3417C9.97661 51.8518 10.0925 51.3531 10.1776 50.8486H10.2363C10.1776 51.7284 10.1483 52.5294 10.1483 53.2599V60H12.606V48.738H9.04889Z" fill="#9E9E9E"/>
<path d="M49.2179 57.9417V55.3683H52.8337V53.3111H49.2179V50.8038H53.1041V48.738H46.7246V60H53.3567V57.9417H49.2179Z" fill="#9E9E9E"/>
<path d="M90.6562 48.738H86.7344V60H90.6562C92.4379 60 93.8667 59.4753 94.9427 58.4259C96.0187 57.3765 96.5539 55.9766 96.5483 54.2261C96.5476 50.5674 94.5836 48.738 90.6562 48.738ZM93.0028 56.9499C92.3907 57.6083 91.5439 57.9375 90.4623 57.9375H89.2266V50.8038H90.4466C91.5523 50.8038 92.4054 51.1152 93.0164 51.7252C93.6274 52.3353 93.9282 53.1852 93.9282 54.2624C93.9251 55.3929 93.619 56.2962 93.0017 56.9499H93.0028Z" fill="#9E9E9E"/>
<path d="M133.406 50.7025V48.738H129.061V50.7004H129.99V58.0345H129.061V60H133.406V58.0367H132.482V50.7025H133.406Z" fill="#9E9E9E"/>
<path d="M172.393 48.738H169.436L165.408 60H168.113L168.889 57.4928H172.824L173.612 60H176.329L172.393 48.738ZM169.424 55.5464L170.623 51.7316C170.728 51.4141 170.793 51.0845 170.817 50.7505H170.882C170.907 51.0932 170.968 51.4322 171.065 51.7615L172.252 55.5486L169.424 55.5464Z" fill="#9E9E9E"/>
</g>
<defs>
<clipPath id="clip0_1063_1003">
<rect width="176.327" height="60" fill="white"/>
</clipPath>
</defs>
</svg>
