<svg width="177" height="60" viewBox="0 0 177 60" fill="none" xmlns="http://www.w3.org/2000/svg">
<g clip-path="url(#clip0_1080_1151)">
<path d="M8.3839 25.8971V40.5034H0.324219V2.44629H11.3929C16.5536 2.44629 20.3728 3.38781 22.8505 5.27086C25.3281 7.1539 26.5666 10.0124 26.5659 13.8465C26.5659 16.0847 25.951 18.076 24.7213 19.8203C23.4915 21.5647 21.7507 22.9307 19.4987 23.9185C25.2149 32.4741 28.9387 38.0007 30.6701 40.4981H21.7332L12.6653 25.8971H8.3839ZM8.3839 19.3349H10.9821C13.5282 19.3349 15.4074 18.91 16.6197 18.0602C17.8319 17.2105 18.4381 15.8742 18.4381 14.0514C18.4381 12.2475 17.819 10.9634 16.5809 10.1991C15.3428 9.43486 13.4227 9.05446 10.8207 9.05797H8.3839V19.3349Z" fill="#EB2228"/>
<path d="M47.9736 41.0194C43.2971 41.0194 39.6424 39.7265 37.0097 37.1408C34.3769 34.5552 33.0605 30.8941 33.0605 26.1578C33.0605 21.2821 34.2774 17.5125 36.711 14.849C39.1446 12.1856 42.5093 10.8546 46.805 10.856C50.9106 10.856 54.1062 12.0269 56.3917 14.3688C58.6772 16.7107 59.8207 19.9468 59.8221 24.0772V27.9295H41.0888C41.1754 30.1859 41.8424 31.9471 43.0896 33.2129C44.3368 34.4788 46.0864 35.1121 48.3383 35.1128C50.0076 35.1219 51.6724 34.9385 53.2999 34.5664C54.9843 34.1573 56.6216 33.5731 58.185 32.8231V38.965C56.7753 39.6675 55.2824 40.188 53.7422 40.5139C52.1659 40.8509 50.243 41.0194 47.9736 41.0194ZM46.8574 16.4977C45.1742 16.4977 43.8574 17.0326 42.9072 18.1023C41.9569 19.172 41.4116 20.6859 41.2712 22.6439H52.3912C52.3556 20.6824 51.8445 19.1685 50.8579 18.1023C49.8713 17.0361 48.5378 16.5012 46.8574 16.4977Z" fill="#EB2228"/>
<path d="M75.4619 41.0193C72.0494 41.0193 69.3691 39.6918 67.4211 37.0367C65.4731 34.3817 64.4987 30.7039 64.498 26.0033C64.498 21.2312 65.4895 17.5138 67.4725 14.8511C69.4554 12.1883 72.1878 10.8573 75.6695 10.858C79.3244 10.858 82.1134 12.2808 84.0362 15.1264H84.2951C83.8968 12.9547 83.6977 11.0198 83.6977 9.32171V0H91.6484V40.4981H85.5696L84.0373 36.7246H83.6998C81.8985 39.5884 79.1526 41.02 75.4619 41.0193ZM78.2425 34.6945C80.2688 34.6945 81.7539 34.1046 82.6978 32.9249C83.6418 31.7452 84.1571 29.741 84.2437 26.9122V26.0537C84.2437 22.93 83.763 20.6914 82.8016 19.338C81.8402 17.9846 80.2771 17.3078 78.1125 17.3078C76.3455 17.3078 74.9725 18.0585 73.9936 19.5597C73.0147 21.061 72.5256 23.2428 72.5263 26.1052C72.5263 28.969 73.0199 31.1165 74.0072 32.5477C74.9945 33.9789 76.407 34.6945 78.2446 34.6945H78.2425Z" fill="#EB2228"/>
<path d="M118.45 40.4981H110.525V23.5023C110.525 19.3033 108.966 17.2038 105.849 17.2038C103.631 17.2038 102.029 17.9586 101.042 19.4683C100.056 20.978 99.5636 23.4246 99.5664 26.8082V40.4981H91.6367V0H99.5664V8.25094C99.5664 8.89333 99.5057 10.403 99.3841 12.7799L99.2028 15.1222H99.622C101.389 12.2766 104.195 10.8538 108.04 10.8538C111.453 10.8538 114.042 11.7732 115.808 13.6122C117.575 15.4511 118.458 18.0886 118.459 21.5247L118.45 40.4981Z" fill="white"/>
<path d="M145.054 40.4981L143.521 36.5428H143.311C141.977 38.2241 140.604 39.3909 139.192 40.0431C137.781 40.6953 135.941 41.0207 133.672 41.0193C130.883 41.0193 128.687 40.221 127.085 38.6245C125.483 37.028 124.682 34.7551 124.682 31.8058C124.682 28.7178 125.76 26.4411 127.917 24.9755C130.074 23.51 133.326 22.6988 137.673 22.5419L142.714 22.3853V21.1086C142.714 18.1593 141.207 16.6843 138.192 16.6836C135.871 16.6836 133.143 17.3863 130.008 18.7916L127.388 13.4324C130.73 11.6811 134.436 10.8054 138.508 10.8054C142.405 10.8054 145.392 11.6555 147.471 13.3557C149.55 15.0559 150.589 17.6416 150.589 21.1128V40.4981H145.054ZM142.716 27.0162L139.649 27.1213C137.343 27.1914 135.629 27.6078 134.505 28.3707C133.382 29.1336 132.819 30.2961 132.817 31.8583C132.817 34.0966 134.098 35.2157 136.661 35.2157C138.497 35.2157 139.965 34.6864 141.063 33.6279C142.161 32.5694 142.712 31.1641 142.714 29.4121L142.716 27.0162Z" fill="white"/>
<path d="M170.985 34.6945C172.37 34.6945 174.033 34.3908 175.972 33.7835V39.6922C173.998 40.5769 171.573 41.0193 168.698 41.0193C165.528 41.0193 163.22 40.2169 161.774 38.6119C160.328 37.007 159.605 34.5993 159.605 31.3887V17.3604H155.811V13.9978L160.176 11.3488L162.463 5.20679H167.529V11.4065H175.657V17.3667H167.525V31.395C167.525 32.5236 167.839 33.3565 168.468 33.8938C169.097 34.4311 169.936 34.698 170.985 34.6945Z" fill="white"/>
<path d="M9.04907 48.022L6.79047 54.5843C6.61438 55.1102 6.46742 55.6456 6.35028 56.1878H6.30311C6.22014 55.6483 6.08823 55.1176 5.90904 54.6021L3.65149 48.022H0V59.1185H2.24602V52.9818C2.24602 52.1558 2.21039 51.2007 2.14645 50.1047H2.21668C2.37493 50.9359 2.48708 51.4487 2.56359 51.6546L5.1974 59.1153H7.238L9.83093 51.5727C9.9768 51.0899 10.0927 50.5986 10.1778 50.1015H10.2365C10.1778 50.9684 10.1485 51.7576 10.1485 52.4774V59.1185H12.6062V48.022H9.04907Z" fill="white"/>
<path d="M49.218 57.0904V54.5548H52.8338V52.5278H49.218V50.0574H53.1042V48.022H46.7246V59.1185H53.3568V57.0904H49.218Z" fill="white"/>
<path d="M90.6582 48.022H86.7363V59.1185H90.6582C92.4399 59.1185 93.8688 58.6015 94.9448 57.5675C96.0209 56.5335 96.5561 55.1541 96.5505 53.4294C96.5498 49.8245 94.5857 48.022 90.6582 48.022ZM93.0049 56.1132C92.3928 56.7619 91.5459 57.0862 90.4643 57.0862H89.2286V50.0574H90.4486C91.5543 50.0574 92.4075 50.3642 93.0185 50.9653C93.6295 51.5663 93.9303 52.4038 93.9303 53.4652C93.9272 54.579 93.6211 55.469 93.0038 56.1132H93.0049Z" fill="white"/>
<path d="M133.408 49.9576V48.022H129.062V49.9555H129.992V57.1819H129.062V59.1185H133.408V57.184H132.484V49.9576H133.408Z" fill="white"/>
<path d="M172.398 48.022H169.44L165.412 59.1185H168.117L168.893 56.648H172.828L173.616 59.1185H176.333L172.398 48.022ZM169.428 54.7303L170.627 50.9716C170.732 50.6587 170.797 50.334 170.821 50.0048H170.886C170.911 50.3425 170.972 50.6765 171.069 51.001L172.256 54.7324L169.428 54.7303Z" fill="white"/>
</g>
<defs>
<clipPath id="clip0_1080_1151">
<rect width="176.33" height="59.1184" fill="white"/>
</clipPath>
</defs>
</svg>
