<svg width="207" height="60" viewBox="0 0 207 60" fill="none" xmlns="http://www.w3.org/2000/svg">
<path d="M0.974609 46.1069C0.974609 48.3917 1.73621 50.2957 3.2594 51.8189C4.78258 53.3421 6.68658 54.1037 8.97137 54.1037C11.2562 54.1037 13.0688 53.5325 14.4092 52.3901C15.7496 51.2477 16.6025 49.9149 16.9681 48.3917L14.6833 47.2493C14.6833 48.346 14.1121 49.3818 12.9697 50.3566C11.8274 51.3314 10.4946 51.8189 8.97137 51.8189C7.44817 51.8189 6.11538 51.2477 4.97298 50.1053C3.8306 48.9629 3.2594 47.6301 3.2594 46.1069C3.2594 44.5837 3.8306 43.2509 4.97298 42.1085C6.11538 40.9661 7.44817 40.3949 8.97137 40.3949C10.4946 40.3949 11.8274 40.8672 12.9697 41.8116C14.1121 42.7558 14.6833 43.8069 14.6833 44.9645L16.9681 43.8221C16.6025 42.2989 15.7496 40.9661 14.4092 39.8237C13.0688 38.6813 11.2562 38.1101 8.97137 38.1101C6.68658 38.1101 4.78258 38.8717 3.2594 40.3949C1.73621 41.9181 0.974609 43.8221 0.974609 46.1069Z" fill="#868686"/>
<path d="M53.2612 46.1069C53.2612 48.3156 52.4805 50.2005 50.9192 51.7617C49.358 53.323 47.473 54.1037 45.2644 54.1037C43.0557 54.1037 41.1708 53.323 39.6094 51.7617C38.0482 50.2005 37.2676 48.3156 37.2676 46.1069C37.2676 43.8982 38.0482 42.0133 39.6094 40.4521C41.1708 38.8908 43.0557 38.1101 45.2644 38.1101C47.473 38.1101 49.358 38.8908 50.9192 40.4521C52.4805 42.0133 53.2612 43.8982 53.2612 46.1069ZM49.297 42.0742C48.185 40.9548 46.8409 40.3949 45.2644 40.3949C43.6878 40.3949 42.3398 40.9548 41.2202 42.0742C40.1084 43.1862 39.5524 44.5304 39.5524 46.1069C39.5524 47.6834 40.1084 49.0314 41.2202 50.151C42.3398 51.2629 43.6878 51.8189 45.2644 51.8189C46.8409 51.8189 48.185 51.2629 49.297 50.151C50.4165 49.0314 50.9764 47.6834 50.9764 46.1069C50.9764 44.5304 50.4165 43.1862 49.297 42.0742Z" fill="#868686"/>
<path d="M89.554 46.1069C89.554 48.3156 88.7733 50.2005 87.2121 51.7617C85.6508 53.323 83.7659 54.1037 81.5572 54.1037H73.5605V38.1101H81.5572C83.7659 38.1101 85.6508 38.8908 87.2121 40.4521C88.7733 42.0133 89.554 43.8982 89.554 46.1069ZM85.5899 42.0742C84.478 40.9548 83.1337 40.3949 81.5572 40.3949H75.8453L75.8567 51.8074L81.5572 51.8189C83.1337 51.8189 84.478 51.2629 85.5899 50.151C86.7095 49.0314 87.2692 47.6834 87.2692 46.1069C87.2692 44.5304 86.7095 43.1862 85.5899 42.0742Z" fill="#868686"/>
<path d="M109.854 38.1101H125.847V40.3949H109.854V38.1101ZM109.854 54.1037V51.8189H125.847V54.1037H109.854ZM109.854 44.9645H125.847V47.2493H109.854V44.9645Z" fill="#868686"/>
<path d="M148.432 54.1037H146.148V38.1101H157.572C160.618 38.1101 162.142 39.6333 162.142 42.6797C162.142 45.7261 160.618 47.2493 157.572 47.2493H155.287L162.311 54.1037H159.856L149.575 44.9645H157.572C159.095 44.9645 159.856 44.2029 159.856 42.6797C159.856 41.1565 159.095 40.3949 157.572 40.3949H148.432V54.1037Z" fill="#868686"/>
<path d="M198.435 38.1101V40.3949H187.011C185.487 40.3949 184.725 41.1565 184.725 42.6797C184.725 44.2029 185.487 44.9645 187.011 44.9645H193.865C196.911 44.9645 198.435 46.4877 198.435 49.5341C198.435 52.5805 196.911 54.1037 193.865 54.1037H182.441V51.8189H193.865C195.388 51.8189 196.149 51.0573 196.149 49.5341C196.149 48.0109 195.388 47.2493 193.865 47.2493H187.011C183.964 47.2493 182.441 45.7261 182.441 42.6797C182.441 39.6333 183.964 38.1101 187.011 38.1101H198.435Z" fill="#868686"/>
<path d="M24.7673 11.9534C24.1879 11.4465 23.4879 10.9878 22.6673 10.5775C21.8706 10.1671 21.0137 9.82916 20.0965 9.56363C19.2033 9.27396 18.2859 9.05671 17.3446 8.91188C16.4031 8.74291 15.5101 8.65841 14.6651 8.65841C13.3134 8.65841 12.1909 8.8636 11.2978 9.27396C10.4046 9.66019 9.95804 10.2878 9.95804 11.1568C9.95804 11.712 10.2115 12.1586 10.7184 12.4965C11.2253 12.8345 11.9012 13.1241 12.7461 13.3656C13.591 13.5828 14.5445 13.788 15.6066 13.981C16.6687 14.15 17.755 14.3673 18.8654 14.6328C19.9998 14.8742 21.0982 15.176 22.1603 15.538C23.2225 15.9001 24.1759 16.3829 25.0207 16.9864C25.8657 17.5657 26.5415 18.2898 27.0485 19.1589C27.5554 20.0278 27.8089 21.09 27.8089 22.3452C27.8089 23.7453 27.4709 24.9401 26.795 25.9298C26.1433 26.9196 25.2501 27.7282 24.1155 28.3558C23.0051 28.9834 21.7137 29.4421 20.2413 29.7317C18.7929 30.0214 17.2842 30.1662 15.7151 30.1662C14.4358 30.1662 13.1444 30.0697 11.8409 29.8765C10.5374 29.7076 9.28215 29.4541 8.0752 29.1162C6.86825 28.7782 5.7458 28.38 4.70781 27.9213C3.66984 27.4385 2.76463 26.8954 1.99219 26.292L4.99748 21.2228C5.60096 21.778 6.34927 22.2849 7.24241 22.7434C8.13555 23.178 9.08904 23.5521 10.1029 23.866C11.1409 24.1556 12.1909 24.3849 13.253 24.554C14.3393 24.7229 15.3651 24.8074 16.3307 24.8074C17.0066 24.8074 17.6342 24.759 18.2135 24.6625C18.7929 24.566 19.2998 24.4332 19.7343 24.2642C20.1689 24.0712 20.5067 23.8297 20.7482 23.5401C20.9895 23.2262 21.1102 22.8762 21.1102 22.4901C21.1102 21.9108 20.8567 21.44 20.3499 21.078C19.843 20.7158 19.1671 20.4141 18.3222 20.1726C17.5015 19.9313 16.5601 19.7141 15.4979 19.5209C14.4358 19.3037 13.3375 19.0744 12.203 18.833C11.0926 18.5674 10.0063 18.2537 8.9442 17.8916C7.88209 17.5053 6.9286 17.0225 6.08373 16.4432C5.26301 15.8397 4.59919 15.1036 4.09228 14.2345C3.58536 13.3656 3.33189 12.3034 3.33189 11.0482C3.33189 9.64812 3.63364 8.46531 4.23711 7.49975C4.84059 6.51005 5.64924 5.71347 6.66308 5.10999C7.67691 4.48237 8.84765 4.02373 10.1753 3.73407C11.5271 3.4444 12.9392 3.29956 14.4117 3.29956C15.6186 3.29956 16.8377 3.38405 18.0687 3.55303C19.3239 3.722 20.5309 3.97545 21.6895 4.3134C22.8482 4.62721 23.9466 5.01343 24.9846 5.47207C26.0226 5.93072 26.9398 6.44971 27.7365 7.02904L24.7673 11.9534ZM44.5089 3.98752H50.6281L65.2925 29.3334H59.2094L50.6281 14.3069V29.3334H44.5089V3.98752ZM70.253 3.98752H76.3722V29.3334H70.253V14.3069L65.8357 22.0193L62.7579 17.0588L70.253 3.98752ZM105.169 3.62544H111.36L123.599 29.3334H117.118L108.246 10.8671L99.3754 29.3334H92.8941L105.169 3.62544ZM138.914 19.8106V14.7414H153.143C154.302 14.7414 155.171 14.4517 155.751 13.8724C156.33 13.269 156.619 12.6172 156.619 11.9172C156.619 11.2171 156.33 10.5775 155.751 9.99813C155.171 9.39465 154.302 9.09292 153.143 9.09292H138.914V3.98752H154.194C155.594 3.98752 156.813 4.21685 157.851 4.67549C158.889 5.10999 159.746 5.70139 160.422 6.44971C161.122 7.19801 161.641 8.05495 161.978 9.02051C162.341 9.96192 162.522 10.9275 162.522 11.9172C162.522 12.6896 162.413 13.45 162.195 14.1984C161.978 14.9466 161.653 15.6588 161.218 16.3346C160.807 16.9864 160.277 17.5777 159.625 18.1088C158.998 18.6157 158.261 19.014 157.417 19.3037L165.201 29.3334H157.561L150.862 19.8106H138.914ZM205.338 3.98752V9.05671H177.059V3.98752H205.338ZM188.138 13.0396H194.258V29.3334H188.138V13.0396Z" fill="#AEAEAE"/>
</svg>
