<svg width="203" height="59" viewBox="0 0 203 59" fill="none" xmlns="http://www.w3.org/2000/svg">
<path d="M0.955078 45.2152C0.955078 47.4558 1.70195 49.323 3.19568 50.8167C4.68941 52.3105 6.55659 53.0574 8.79719 53.0574C11.0378 53.0574 12.8153 52.4972 14.1298 51.3769C15.4443 50.2566 16.2808 48.9496 16.6393 47.4558L14.3987 46.3355C14.3987 47.411 13.8385 48.4268 12.7182 49.3827C11.5979 50.3387 10.2909 50.8167 8.79719 50.8167C7.30345 50.8167 5.99644 50.2566 4.87613 49.1363C3.75583 48.016 3.19568 46.7089 3.19568 45.2152C3.19568 43.7215 3.75583 42.4144 4.87613 41.2941C5.99644 40.1738 7.30345 39.6137 8.79719 39.6137C10.2909 39.6137 11.5979 40.0768 12.7182 41.0029C13.8385 41.9289 14.3987 42.9597 14.3987 44.0949L16.6393 42.9746C16.2808 41.4808 15.4443 40.1738 14.1298 39.0535C12.8153 37.9332 11.0378 37.373 8.79719 37.373C6.55659 37.373 4.68941 38.1199 3.19568 39.6137C1.70195 41.1074 0.955078 42.9746 0.955078 45.2152Z" fill="#F6AB1B"/>
<path d="M52.2312 45.2152C52.2312 47.3812 51.4656 49.2296 49.9345 50.7606C48.4035 52.2918 46.555 53.0574 44.389 53.0574C42.2231 53.0574 40.3746 52.2918 38.8435 50.7606C37.3124 49.2296 36.5469 47.3812 36.5469 45.2152C36.5469 43.0492 37.3124 41.2008 38.8435 39.6698C40.3746 38.1386 42.2231 37.373 44.389 37.373C46.555 37.373 48.4035 38.1386 49.9345 39.6698C51.4656 41.2008 52.2312 43.0492 52.2312 45.2152ZM48.3437 41.2605C47.2532 40.1627 45.9351 39.6137 44.389 39.6137C42.843 39.6137 41.5211 40.1627 40.4231 41.2605C39.3327 42.351 38.7875 43.6692 38.7875 45.2152C38.7875 46.7612 39.3327 48.0832 40.4231 49.1811C41.5211 50.2715 42.843 50.8167 44.389 50.8167C45.9351 50.8167 47.2532 50.2715 48.3437 49.1811C49.4415 48.0832 49.9906 46.7612 49.9906 45.2152C49.9906 43.6692 49.4415 42.351 48.3437 41.2605Z" fill="#F6AB1B"/>
<path d="M87.8228 45.2152C87.8228 47.3812 87.0573 49.2296 85.5263 50.7606C83.9951 52.2918 82.1466 53.0574 79.9807 53.0574H72.1387V37.373H79.9807C82.1466 37.373 83.9951 38.1386 85.5263 39.6698C87.0573 41.2008 87.8228 43.0492 87.8228 45.2152ZM83.9354 41.2605C82.845 40.1627 81.5267 39.6137 79.9807 39.6137H74.3793L74.3904 50.8055L79.9807 50.8167C81.5267 50.8167 82.845 50.2715 83.9354 49.1811C85.0333 48.0832 85.5822 46.7612 85.5822 45.2152C85.5822 43.6692 85.0333 42.351 83.9354 41.2605Z" fill="#F6AB1B"/>
<path d="M107.73 37.373H123.415V39.6137H107.73V37.373ZM107.73 53.0574V50.8167H123.415V53.0574H107.73ZM107.73 44.0949H123.415V46.3355H107.73V44.0949Z" fill="#F6AB1B"/>
<path d="M145.562 53.0574H143.322V37.373H154.525C157.512 37.373 159.006 38.8668 159.006 41.8543C159.006 44.8418 157.512 46.3355 154.525 46.3355H152.284L159.172 53.0574H156.765L146.683 44.0949H154.525C156.019 44.0949 156.765 43.348 156.765 41.8543C156.765 40.3605 156.019 39.6137 154.525 39.6137H145.562V53.0574Z" fill="#F6AB1B"/>
<path d="M194.598 37.373V39.6137H183.395C181.901 39.6137 181.154 40.3605 181.154 41.8543C181.154 43.348 181.901 44.0949 183.395 44.0949H190.117C193.104 44.0949 194.598 45.5886 194.598 48.5761C194.598 51.5636 193.104 53.0574 190.117 53.0574H178.914V50.8167H190.117C191.61 50.8167 192.357 50.0699 192.357 48.5761C192.357 47.0824 191.61 46.3355 190.117 46.3355H183.395C180.407 46.3355 178.914 44.8418 178.914 41.8543C178.914 38.8668 180.407 37.373 183.395 37.373H194.598Z" fill="#F6AB1B"/>
<path d="M24.2878 11.7221C23.7196 11.225 23.0332 10.7752 22.2284 10.3728C21.4471 9.97033 20.6067 9.63892 19.7073 9.37852C18.8314 9.09446 17.9318 8.88141 17.0086 8.73938C16.0854 8.57367 15.2096 8.49082 14.381 8.49082C13.0554 8.49082 11.9546 8.69203 11.0787 9.09446C10.2029 9.47322 9.76493 10.0887 9.76493 10.9409C9.76493 11.4853 10.0135 11.9233 10.5106 12.2547C11.0077 12.5861 11.6705 12.8702 12.4991 13.1069C13.3276 13.3199 14.2626 13.5212 15.3042 13.7105C16.3458 13.8762 17.4111 14.0893 18.5 14.3496C19.6125 14.5864 20.6896 14.8823 21.7312 15.2373C22.7728 15.5925 23.7079 16.0659 24.5363 16.6577C25.3649 17.2259 26.0277 17.936 26.5248 18.7882C27.022 19.6404 27.2705 20.682 27.2705 21.9129C27.2705 23.2859 26.9391 24.4576 26.2763 25.4282C25.6371 26.3988 24.7612 27.1919 23.6486 27.8073C22.5597 28.4228 21.2932 28.8726 19.8493 29.1566C18.4289 29.4407 16.9494 29.5827 15.4107 29.5827C14.1561 29.5827 12.8897 29.488 11.6114 29.2986C10.3331 29.1329 9.10211 28.8843 7.9185 28.553C6.7349 28.2215 5.63415 27.831 4.61623 27.3812C3.59833 26.9077 2.71063 26.3752 1.95312 25.7834L4.9003 20.8122C5.49211 21.3567 6.22595 21.8538 7.10182 22.3035C7.97768 22.7296 8.91273 23.0965 9.90697 23.4043C10.9249 23.6883 11.9546 23.9132 12.9962 24.079C14.0614 24.2446 15.0674 24.3275 16.0144 24.3275C16.6772 24.3275 17.2926 24.2801 17.8608 24.1854C18.4289 24.0907 18.926 23.9605 19.3521 23.7948C19.7783 23.6055 20.1096 23.3687 20.3464 23.0847C20.5831 22.7769 20.7014 22.4337 20.7014 22.055C20.7014 21.4869 20.4528 21.0252 19.9558 20.6702C19.4587 20.3151 18.7959 20.0192 17.9673 19.7824C17.1625 19.5457 16.2393 19.3327 15.1977 19.1432C14.1561 18.9302 13.0791 18.7053 11.9664 18.4687C10.8775 18.2082 9.81228 17.9005 8.7707 17.5454C7.72913 17.1666 6.79407 16.6932 5.96555 16.125C5.1607 15.5332 4.50971 14.8113 4.01261 13.9591C3.51549 13.1069 3.26692 12.0653 3.26692 10.8344C3.26692 9.46138 3.56283 8.30144 4.15463 7.35456C4.74644 6.384 5.53946 5.60282 6.53369 5.01101C7.52791 4.39553 8.67602 3.94576 9.97798 3.6617C11.3036 3.37763 12.6884 3.2356 14.1324 3.2356C15.316 3.2356 16.5115 3.31845 17.7188 3.48416C18.9497 3.64987 20.1333 3.89842 21.2695 4.22983C22.4058 4.53757 23.483 4.91632 24.5009 5.36609C25.5188 5.81587 26.4183 6.32482 27.1995 6.89295L24.2878 11.7221ZM43.6476 3.91025H49.6484L64.0292 28.766H58.0638L49.6484 14.0301V28.766H43.6476V3.91025ZM68.8939 3.91025H74.8947V28.766H68.8939V14.0301L64.5619 21.5933L61.5437 16.7287L68.8939 3.91025ZM103.134 3.55517H109.206L121.208 28.766H114.852L106.153 10.6568L97.4531 28.766H91.0971L103.134 3.55517ZM136.227 19.4274V14.4562H150.181C151.318 14.4562 152.17 14.1721 152.739 13.6039C153.306 13.0122 153.59 12.3731 153.59 11.6866C153.59 11.0001 153.306 10.3728 152.739 9.80463C152.17 9.21282 151.318 8.91692 150.181 8.91692H136.227V3.91025H151.212C152.585 3.91025 153.78 4.13515 154.798 4.58492C155.815 5.01101 156.656 5.59097 157.319 6.32482C158.006 7.05866 158.514 7.89902 158.845 8.84591C159.201 9.76911 159.379 10.716 159.379 11.6866C159.379 12.4441 159.271 13.1897 159.058 13.9236C158.845 14.6574 158.526 15.3558 158.1 16.0186C157.697 16.6577 157.177 17.2376 156.537 17.7584C155.923 18.2555 155.2 18.6461 154.372 18.9302L162.005 28.766H154.513L147.944 19.4274H136.227ZM201.367 3.91025V8.88141H173.635V3.91025H201.367ZM184.499 12.7873H190.501V28.766H184.499V12.7873Z" fill="white"/>
</svg>
